<svg xmlns="http://www.w3.org/2000/svg" xmlns:xlink="http://www.w3.org/1999/xlink" xmlns:lucid="lucid" width="1340" height="836"><g transform="translate(-4.5283018867924625 -4.5283018867924625)" lucid:page-tab-id="hYbOh0FZMpit"><path d="M556.9 460.53h340v360h-340z" fill-opacity="0"/><path d="M577.5 460.53h20.6m10.3 0H629m10.32 0h20.6m10.3 0h20.6m10.3 0h20.62m10.3 0h20.6m10.3 0h20.62m10.3 0h20.6m10.3 0h20.62m10.3 0h20.6m10.3 0h10.3v10m0 10v20m0 10v20m0 10v20m0 10v20m0 10v20m0 10v20m0 10v20m0 10v20m0 10v20m0 10v20m0 10v20m0 10v10h-10.3m-10.3 0h-20.6m-10.3 0h-20.6m-10.3 0h-20.62m-10.3 0h-20.6m-10.3 0h-20.62m-10.3 0h-20.6m-10.3 0h-20.6m-10.32 0h-20.6m-10.3 0h-20.6m-10.32 0h-20.6m-10.3 0h-10.3v-10m0-10v-20m0-10v-20m0-10v-20m0-10v-20m0-10v-20m0-10v-20m0-10v-20m0-10v-20m0-10v-20m0-10v-20m0-10v-20m0-10v-10h10.3" stroke="#3aa6dd" stroke-width="2" fill="none"/><path d="M556.53 24.53h340v360h-340z" fill-opacity="0"/><path d="M577.13 24.53h20.6m10.3 0h20.62m10.3 0h20.6m10.3 0h20.62m10.3 0h20.6m10.3 0h20.62m10.3 0h20.6m10.3 0h20.6m10.3 0H845m10.32 0h20.6m10.3 0h10.3v10m0 10v20m0 10v20m0 10v20m0 10v20m0 10v20m0 10v20m0 10v20m0 10v20m0 10v20m0 10v20m0 10v20m0 10v10h-10.3m-10.3 0h-20.6m-10.3 0h-20.6m-10.32 0h-20.6m-10.3 0h-20.6m-10.3 0h-20.62m-10.3 0h-20.6m-10.3 0h-20.62m-10.3 0h-20.6m-10.3 0h-20.62m-10.3 0h-20.6m-10.3 0h-10.3v-10m0-10v-20m0-10v-20m0-10v-20m0-10v-20m0-10v-20m0-10v-20m0-10v-20m0-10v-20m0-10v-20m0-10v-20m0-10v-20m0-10v-10h10.3" stroke="#7ab648" stroke-width="2" fill="none"/><path d="M58.53 92.53h272.73v200H58.53z" stroke="#e7ad52" stroke-width="2" fill="#333"/><path d="M223 199h73.7v73.53h-200v-100H217zm-126.3 0H223" stroke="#e7ad52" stroke-width="2" fill-opacity="0"/><use xlink:href="#a" transform="matrix(1,0,0,1,104.71012006861068,172.52830188679246) translate(0 18.10205078125)"/><path d="M58.53 92.53h272.73v60H58.53z" stroke="#e7ad52" stroke-width="2" fill="#666"/><path d="M121.26 100.03h160v45h-160z" stroke="#e7ad52" stroke-width="2" fill="#333"/><use xlink:href="#b" transform="matrix(1,0,0,1,126.25557461406515,105.02830188679246) translate(6.99462890625 22.60205078125)"/><path d="M71.26 102.53h40v40h-40z" stroke="#000" stroke-opacity="0" stroke-width="2" fill="#666"/><path d="M101.26 123.55c.34 0 .5-.48.26-.7l-9.84-9.88-9.86 9.9c-.24.22-.08.68.26.68h1.72v8.98h5.24v-7.48h4.5v7.48h5.26v-8.98h2.46zm-15.22-9.72h-2.98v5.26l2.98-3v-2.27z" stroke="#9c9c9c" fill="#9c9c9c"/><path d="M291.26 107.53h30v30h-30z" fill="none"/><path d="M314.66 115.42l-1.3-1.3-7.1 7.12-7.1-7.1-1.3 1.28 7.1 7.1-7.1 7.12 1.3 1.3 7.1-7.12 7.1 7.1 1.3-1.28-7.1-7.1 7.1-7.12z" fill="#403f3f"/><path d="M1324.53 463.83c0 5.9-35.82 10.7-80 10.7s-80-4.8-80-10.7v-85.6c0-5.9 35.82-10.7 80-10.7s80 4.8 80 10.7z" stroke="#e7ad52" stroke-width="2" fill-opacity="0"/><path d="M1324.53 378.23c0 5.9-35.82 10.7-80 10.7s-80-4.8-80-10.7" stroke="#e7ad52" stroke-width="2" fill="none"/><use xlink:href="#c" transform="matrix(1,0,0,1,1169.5283018867924,393.92830188679244) translate(38.3232421875 43.10205078125)"/><path d="M1011.53 420.03h153v2h-155v-83.46h2zm0-100.05h-2v-81.45h-153v-2h155z" fill="#e7ad52"/><path d="M1164.53 421.03l-14.27 4.63v-9.27z" fill="#e7ad52"/><path d="M1164.53 419.98v2.1l-15.27 4.96v-12.02zm-13.27 4.3l10.03-3.25-10.04-3.26zM870.8 242.16l-14.27-4.63 14.26-4.64z" fill="#e7ad52"/><path d="M871.8 243.54l-15.27-4.96v-2.1l15.26-4.96zm-12.04-6l10.03 3.25v-6.53z" fill="#e7ad52"/><use xlink:href="#d" transform="matrix(1,0,0,1,959.9955870430424,319.98386829304246) translate(0 14.396484375)"/><use xlink:href="#e" transform="matrix(1,0,0,1,959.9955870430424,319.98386829304246) translate(44.0068359375 14.396484375)"/><use xlink:href="#f" transform="matrix(1,0,0,1,959.9955870430424,319.98386829304246) translate(54.984375 14.396484375)"/><path d="M1012.03 676.53h-154.5v-2h152.5V557.57h2zm152.5-254.5h-152.5v116.95h-2V420.03h154.5z" fill="#e7ad52"/><path d="M871.8 680.16l-14.27-4.63 14.26-4.64z" fill="#e7ad52"/><path d="M872.8 681.54l-15.27-4.96v-2.1l15.26-4.96zm-12.04-6l10.03 3.25v-6.53zM1164.53 421.03l-14.27 4.63v-9.27z" fill="#e7ad52"/><path d="M1164.53 419.98v2.1l-15.27 4.96v-12.02zm-13.27 4.3l10.03-3.25-10.04-3.26z" fill="#e7ad52"/><use xlink:href="#d" transform="matrix(1,0,0,1,959.2123839180424,538.9838682930424) translate(0 14.396484375)"/><use xlink:href="#e" transform="matrix(1,0,0,1,959.2123839180424,538.9838682930424) translate(44.0068359375 14.396484375)"/><use xlink:href="#g" transform="matrix(1,0,0,1,959.2123839180424,538.9838682930424) translate(54.984375 14.396484375)"/><path d="M58.53 530.53h272.73v200H58.53z" stroke="#e7ad52" stroke-width="2" fill="#333"/><path d="M223 637h73.7v73.53h-200v-100H217zm-126.3 0H223" stroke="#e7ad52" stroke-width="2" fill-opacity="0"/><use xlink:href="#h" transform="matrix(1,0,0,1,104.7101200686107,610.5283018867924) translate(0 18.10205078125)"/><use xlink:href="#i" transform="matrix(1,0,0,1,108.7101200686107,644.5283018867924) translate(0 24.8076171875)"/><use xlink:href="#j" transform="matrix(1,0,0,1,108.7101200686107,644.5283018867924) translate(0 43.396484375)"/><use xlink:href="#k" transform="matrix(1,0,0,1,108.7101200686107,644.5283018867924) translate(109.1689453125 43.396484375)"/><path d="M58.53 530.53h272.73v60H58.53z" stroke="#e7ad52" stroke-width="2" fill="#666"/><path d="M121.26 538.03h160v45h-160z" stroke="#e7ad52" stroke-width="2" fill="#333"/><use xlink:href="#l" transform="matrix(1,0,0,1,126.25557461406515,543.0283018867924) translate(6.87158203125 22.60205078125)"/><path d="M71.26 540.53h40v40h-40z" stroke="#000" stroke-opacity="0" stroke-width="2" fill="#666"/><path d="M101.26 561.55c.34 0 .5-.48.26-.7l-9.84-9.88-9.86 9.9c-.24.22-.08.68.26.68h1.72v8.98h5.24v-7.48h4.5v7.48h5.26v-8.98h2.46zm-15.22-9.72h-2.98v5.26l2.98-3v-2.27z" stroke="#9c9c9c" fill="#9c9c9c"/><path d="M291.26 545.53h30v30h-30z" fill="none"/><path d="M314.66 553.42l-1.3-1.3-7.1 7.12-7.1-7.1-1.3 1.28 7.1 7.1-7.1 7.12 1.3 1.3 7.1-7.12 7.1 7.1 1.3-1.28-7.1-7.1 7.1-7.12z" fill="#403f3f"/><path d="M414.46 193.53h-83.2v-2h83.2zm203.07 0h-83.2v-2h83.2z" fill="#e7ad52"/><path fill="#e7ad52"/><path d="M617.53 192.53l-14.27 4.63v-9.27z" fill="#e7ad52"/><path d="M617.53 191.48v2.1l-15.27 4.96v-12.02zm-13.27 4.3l10.03-3.25-10.04-3.26z" fill="#e7ad52"/><use xlink:href="#m" transform="matrix(1,0,0,1,414.4593210629288,183.23386829304246) translate(0 14.396484375)"/><use xlink:href="#n" transform="matrix(1,0,0,1,414.4593210629288,183.23386829304246) translate(24.3193359375 14.396484375)"/><use xlink:href="#e" transform="matrix(1,0,0,1,414.4593210629288,183.23386829304246) translate(60.0029296875 14.396484375)"/><use xlink:href="#o" transform="matrix(1,0,0,1,414.4593210629288,183.23386829304246) translate(70.98046875 14.396484375)"/><path d="M760 134h96.53v233.53h-260v-260H753zm-163.47 0H760" stroke="#e7ad52" stroke-width="2" fill-opacity="0"/><use xlink:href="#p" transform="matrix(1,0,0,1,604.5283018867924,107.52830188679249) translate(0 18.10205078125)"/><path d="M617.53 152.53v80h220v-80z" stroke="#e7ad52" stroke-width="2" fill-opacity="0"/><path d="M827.53 162.53h-15v20h15z" stroke="#e7ad52" fill-opacity="0"/><path d="M817.53 165.86h-10v3.33h10zm0 10h-10v3.33h10z" stroke="#e7ad52" fill-opacity="0"/><use xlink:href="#q" transform="matrix(1,0,0,1,617.5283018867924,152.52830188679246) translate(49.446894531249995 36.896484375)"/><use xlink:href="#r" transform="matrix(1,0,0,1,617.5283018867924,152.52830188679246) translate(28.345820312500003 55.4853515625)"/><path d="M617.66 272.53v80h218.87v-80z" stroke="#e7ad52" stroke-width="2" fill-opacity="0"/><path d="M826.53 282.53h-15v20h15z" stroke="#e7ad52" fill-opacity="0"/><path d="M816.53 285.86h-10v3.33h10zm0 10h-10v3.33h10z" stroke="#e7ad52" fill-opacity="0"/><use xlink:href="#s" transform="matrix(1,0,0,1,617.6646655231559,272.52830188679246) translate(60.41662109375 36.896484375)"/><use xlink:href="#t" transform="matrix(1,0,0,1,617.6646655231559,272.52830188679246) translate(103.33361328125 36.896484375)"/><use xlink:href="#u" transform="matrix(1,0,0,1,617.6646655231559,272.52830188679246) translate(40.67345703125 55.4853515625)"/><path d="M761 572h96.53v233.53h-260v-260H754zm-163.47 0H761" stroke="#e7ad52" stroke-width="2" fill-opacity="0"/><use xlink:href="#v" transform="matrix(1,0,0,1,605.5283018867924,545.5283018867924) translate(0 18.10205078125)"/><path d="M617.53 590.53v80h220v-80z" stroke="#e7ad52" stroke-width="2" fill-opacity="0"/><path d="M827.53 600.53h-15v20h15z" stroke="#e7ad52" fill-opacity="0"/><path d="M817.53 603.86h-10v3.33h10zm0 10h-10v3.33h10z" stroke="#e7ad52" fill-opacity="0"/><use xlink:href="#w" transform="matrix(1,0,0,1,617.5283018867924,590.5283018867924) translate(52.259394531249995 36.896484375)"/><use xlink:href="#x" transform="matrix(1,0,0,1,617.5283018867924,590.5283018867924) translate(64.20958984375 55.4853515625)"/><path d="M617.53 710.53v80h220v-80z" stroke="#e7ad52" stroke-width="2" fill-opacity="0"/><path d="M827.53 720.53h-15v20h15z" stroke="#e7ad52" fill-opacity="0"/><path d="M817.53 723.86h-10v3.33h10zm0 10h-10v3.33h10z" stroke="#e7ad52" fill-opacity="0"/><use xlink:href="#y" transform="matrix(1,0,0,1,617.5283018867924,710.5283018867924) translate(30.159296875000003 36.896484375)"/><use xlink:href="#z" transform="matrix(1,0,0,1,617.5283018867924,710.5283018867924) translate(87.79064453125001 55.4853515625)"/><path d="M488.12 631.53H331.26v-2h156.86zm129.4 0H572.1v-2h45.43z" fill="#e7ad52"/><path fill="#e7ad52"/><path d="M617.53 630.53l-14.27 4.63v-9.27z" fill="#e7ad52"/><path d="M617.53 629.48v2.1l-15.27 4.96v-12.02zm-13.27 4.3l10.03-3.25-10.04-3.26z" fill="#e7ad52"/><use xlink:href="#A" transform="matrix(1,0,0,1,488.11836939605644,621.2338682930424) translate(0 14.396484375)"/><use xlink:href="#B" transform="matrix(1,0,0,1,488.11836939605644,621.2338682930424) translate(33.50390625 14.396484375)"/><path d="M475.4 749.53h142.13v2H473.4v-51.7h2zm0-68.3h-2v-49.7H331.25v-2H475.4z" fill="#e7ad52"/><path fill="#e7ad52"/><path d="M617.53 750.53l-14.27 4.63v-9.27z" fill="#e7ad52"/><path d="M617.53 749.48v2.1l-15.27 4.96v-12.02zm-13.27 4.3l10.03-3.25-10.04-3.26z" fill="#e7ad52"/><use xlink:href="#C" transform="matrix(1,0,0,1,437.3372507504288,681.2338682930424) translate(0 14.396484375)"/><use xlink:href="#D" transform="matrix(1,0,0,1,437.3372507504288,681.2338682930424) translate(43.716796875 14.396484375)"/><path d="M475.46 631.53h-144.2v-2h142.2v-148.7h2zm142.2-318h-142.2v148.7h-2v-150.7h144.2z" fill="#e7ad52"/><path fill="#e7ad52"/><path d="M617.66 312.53l-14.26 4.63v-9.27z" fill="#e7ad52"/><path d="M617.66 311.48v2.1l-15.26 4.96v-12.02zm-13.26 4.3l10.03-3.25-10.03-3.26z" fill="#e7ad52"/><g><use xlink:href="#E" transform="matrix(1,0,0,1,411.05142866236054,462.2338682930424) translate(0 14.396484375)"/><use xlink:href="#F" transform="matrix(1,0,0,1,411.05142866236054,462.2338682930424) translate(43.0927734375 14.396484375)"/></g><path d="M607.53 40.53h240v60h-240z" stroke="#000" stroke-opacity="0" stroke-width="2" fill="#fff" fill-opacity="0"/><g><use xlink:href="#G" transform="matrix(1,0,0,1,612.5283018867924,45.52830188679246) translate(32.58897569444444 31.298828125)"/></g><path d="M577.53 478.53h300v60h-300z" stroke="#000" stroke-opacity="0" stroke-width="2" fill="#fff" fill-opacity="0"/><g><use xlink:href="#H" transform="matrix(1,0,0,1,582.5283018867924,483.52830188679246) translate(8.552517361111114 31.298828125)"/></g><path d="M24.53 404.53h340v360h-340z" fill-opacity="0"/><path d="M45.13 404.53h20.6m10.3 0h20.62m10.3 0h20.6m10.3 0h20.62m10.3 0h20.6m10.3 0h20.62m10.3 0h20.6m10.3 0h20.6m10.3 0H313m10.32 0h20.6m10.3 0h10.3v10m0 10v20m0 10v20m0 10v20m0 10v20m0 10v20m0 10v20m0 10v20m0 10v20m0 10v20m0 10v20m0 10v20m0 10v10h-10.3m-10.3 0h-20.6m-10.3 0h-20.6m-10.32 0h-20.6m-10.3 0h-20.6m-10.3 0h-20.62m-10.3 0h-20.6m-10.3 0h-20.62m-10.3 0h-20.6m-10.3 0H76.03m-10.3 0h-20.6m-10.3 0h-10.3v-10m0-10v-20m0-10v-20m0-10v-20m0-10v-20m0-10v-20m0-10v-20m0-10v-20m0-10v-20m0-10v-20m0-10v-20m0-10v-20m0-10v-10h10.3" stroke="#b391b5" stroke-width="2" fill="none"/><path d="M76.53 424.53h240v78.85h-240z" stroke="#000" stroke-opacity="0" stroke-width="2" fill="#fff" fill-opacity="0"/><g><use xlink:href="#I" transform="matrix(1,0,0,1,81.52830188679249,429.52830188679246) translate(36.29991319444446 17.849609375)"/><use xlink:href="#J" transform="matrix(1,0,0,1,81.52830188679249,429.52830188679246) translate(121.23914930555557 17.849609375)"/><use xlink:href="#K" transform="matrix(1,0,0,1,81.52830188679249,429.52830188679246) translate(186.6796875 17.849609375)"/><use xlink:href="#L" transform="matrix(1,0,0,1,81.52830188679249,429.52830188679246) translate(17.435980902777786 40.798828125)"/><use xlink:href="#M" transform="matrix(1,0,0,1,81.52830188679249,429.52830188679246) translate(96.70030381944446 40.798828125)"/><use xlink:href="#N" transform="matrix(1,0,0,1,81.52830188679249,429.52830188679246) translate(137.54231770833334 40.798828125)"/><use xlink:href="#O" transform="matrix(1,0,0,1,81.52830188679249,429.52830188679246) translate(151.09483506944446 40.798828125)"/><use xlink:href="#P" transform="matrix(1,0,0,1,81.52830188679249,429.52830188679246) translate(39.22417534722223 63.748046875)"/><use xlink:href="#Q" transform="matrix(1,0,0,1,81.52830188679249,429.52830188679246) translate(95.28971354166666 63.748046875)"/><use xlink:href="#R" transform="matrix(1,0,0,1,81.52830188679249,429.52830188679246) translate(112.09743923611111 63.748046875)"/><use xlink:href="#Q" transform="matrix(1,0,0,1,81.52830188679249,429.52830188679246) translate(152.17990451388889 63.748046875)"/><use xlink:href="#S" transform="matrix(1,0,0,1,81.52830188679249,429.52830188679246) translate(168.98763020833331 63.748046875)"/></g><path d="M878.53 651.53h-41v-2h39v-201.7h2zm0-222.3h-2v-115.7h-40v-2h42z" fill="#e7ad52"/><path fill="#e7ad52"/><path d="M851.8 655.16l-14.27-4.63 14.26-4.64z" fill="#e7ad52"/><path d="M852.8 656.54l-15.27-4.96v-2.1l15.26-4.96zm-12.04-6l10.03 3.25v-6.53z" fill="#e7ad52"/><g><use xlink:href="#T" transform="matrix(1,0,0,1,814.2118956367924,429.2338682930424) translate(0 14.396484375)"/><use xlink:href="#U" transform="matrix(1,0,0,1,814.2118956367924,429.2338682930424) translate(89.015625 14.396484375)"/></g><defs><path fill="#e5e5e5" d="M488-1365c273 0 550 113 550 360 0 140-81 265-244 374-130 87-276 146-439 180-8 56-16 299-32 372-12 53-47 79-94 79-53 0-99-48-99-101 0-200 54-864 49-1044-37-23-56-56-56-99 0-39 25-69 73-90s145-31 292-31zm348 355c0-132-280-161-454-151-1 136-1 303-1 501 100-31 192-72 276-122 119-70 179-146 179-228" id="V"/><path fill="#e5e5e5" d="M759-451c68-46 151 19 151 87 0 27-17 54-48 86C767-182 491 0 329 0 186 0 114-109 114-326c0-169 46-507 46-695 0-139-8-341 120-344 53-2 103 46 101 99-4-2-27 472-40 636-16 198-27 312-27 343 0 57 11 86 32 86 61 0 169-62 325-185 19-16 49-38 88-65" id="W"/><path fill="#e5e5e5" d="M922-654c-9 182 20 369 29 555 5 90-140 139-183 58-2-3-13-31-31-85-54-160-191-263-414-306-19 75-30 243-58 360-12 50-51 72-98 72-55 0-99-53-99-108 1-366 195-896 360-1117 69-92 141-140 222-140 182 0 273 207 273 621 0 19 1 49-1 90zM724-476v-400c-20-103-13-145-35-225-11-40-25-60-40-60-32 0-83 65-154 195-56 103-99 215-130 336 137 27 256 79 359 154" id="X"/><path fill="#e5e5e5" d="M534 0c-54 1-104-40-104-96 0-45 18-79 58-93 38-13 78-19 114-33 139-52 207-229 207-522-71 158-178 237-321 237-171 0-289-87-355-261-43-114-65-273-65-478 0-79 34-119 101-119 58 0 96 44 106 134 10 91 12 183 22 275 13 113 52 188 113 226 57 35 92 27 153-4 115-60 203-251 231-413 5-26 9-65 25-113s51-71 94-71c48 0 84 32 102 97 48 177 15 638-17 760-49 186-136 325-271 414C667-20 603 0 534 0" id="Y"/><path fill="#e5e5e5" d="M369 0C201 0 119-119 119-294c0-119 26-272 77-457 80-290 99-377 125-524 7-13 27-26 60-41 71-33 211-49 419-49 129 0 193 36 193 107 0 50-48 105-99 101-142-10-258-9-397 20-11 59-34 158-69 297 146-57 246-85 301-85 53 0 100 43 100 96 0 43-23 80-73 99-127 49-178 54-389 129-29 119-44 224-44 314 0 58 10 87 30 87 66 0 151-30 256-90s173-91 205-91c50 0 101 49 101 99 0 30-19 57-51 87C794-129 500 0 369 0" id="Z"/><path fill="#e5e5e5" d="M432-1365c342 0 623 232 623 568 0 219-132 374-395 466 145 90 217 167 217 230 0 52-52 98-104 96-17 0-39-10-66-29-90-65-203-166-304-203v78C403-53 368 0 299 0c-53 0-99-44-99-97v-374c17-145 25-361 25-650-2 5-10 7-24 7-53 2-99-46-99-99 0-112 194-152 330-152zm257 786c221-128 209-317 21-469-89-71-178-111-268-119-1 97-2 329-2 698 90-27 172-66 249-110" id="aa"/><g id="a"><use transform="matrix(0.0087890625,0,0,0.0087890625,0,0)" xlink:href="#V"/><use transform="matrix(0.0087890625,0,0,0.0087890625,9.31640625,0)" xlink:href="#W"/><use transform="matrix(0.0087890625,0,0,0.0087890625,17.3671875,0)" xlink:href="#X"/><use transform="matrix(0.0087890625,0,0,0.0087890625,26.75390625,0)" xlink:href="#Y"/><use transform="matrix(0.0087890625,0,0,0.0087890625,36.8173828125,0)" xlink:href="#Z"/><use transform="matrix(0.0087890625,0,0,0.0087890625,46.599609375,0)" xlink:href="#aa"/></g><path fill="#e5e5e5" d="M387-1365c369 0 678 217 678 573 0 172-83 346-249 522C647-90 478 0 307 0 194 0 137-80 137-239c0-257 30-558 68-915-53-11-80-43-80-95 0-56 32-93 97-108 26-6 81-8 165-8zm21 204c-15 76-47 491-72 917 0 13 1 27 2 41 116-22 231-92 346-210 120-123 180-241 180-355-1-196-67-277-209-343-74-35-157-50-247-50" id="ab"/><path fill="#e5e5e5" d="M270-1365c53 0 101 46 100 99-5 357-80 777-80 1073C290-64 254 0 183 0 132 0 82-50 82-101c0-298 47-662 55-976 2-76 19-138 34-189 19-66 52-99 99-99" id="ac"/><path fill="#e5e5e5" d="M188 0C127 1 82-61 96-128c102-498 136-682 239-1056 16-58 29-97 39-118 39-81 152-87 186 3 8 21 18 60 27 118 29 181 79 412 149 693 44-195 133-594 228-824 15-37 48-53 86-53 50 0 89 31 100 97 19 117 18 225 53 381 45 201 158 605 162 785 1 54-41 102-95 102-46 0-83-20-96-65-38-130-44-258-87-432-40-161-61-264-70-309-35 138-86 345-147 622-13 58-23 96-30 117-29 83-132 87-176 19-11-18-25-49-39-97-63-219-122-453-173-703-35 145-85 365-140 660-11 60-19 101-29 123-20 43-51 65-95 65" id="ad"/><path fill="#e5e5e5" d="M609-1364c323 0 519 229 519 557 0 183-51 357-152 522C860-95 716 0 544 0 271 0 97-283 97-570c0-191 38-362 113-512 95-188 228-282 399-282zm319 550c0-231-116-347-349-347-81 0-151 81-210 243-48 132-72 248-72 348 0 161 47 272 142 333 35 23 69 34 100 34 113 0 208-76 287-229 68-131 102-258 102-382" id="ae"/><path fill="#e5e5e5" d="M46-1227c0-128 188-119 328-120 79-1 391-35 488-35 99 0 148 35 148 105 0 65-48 98-145 98-76 0-153 3-232 8 1 179-14 796-13 976C622-79 604-4 510 0c-53 2-99-44-99-97v-270c21-312 24-505 22-785-143 13-240 20-291 20-64 0-96-32-96-95" id="af"/><path fill="#e5e5e5" d="M829-1263c0-55 42-106 96-102 141 10 133 224 150 372 25 219 36 341 36 365 0 117-18 227-55 328C983-97 875 5 732 5 532 5 402-187 343-570c-16 123-24 243-24 360C319-70 282 0 207 0c-53 0-99-44-99-97 0-315 85-1025 186-1197 27-46 56-71 93-71 53 0 88 33 105 99 5 21 8 92 8 213 0 153 26 313 55 481 43 253 101 379 172 379 116 0 183-303 183-438 0-120-81-513-81-632" id="ag"/><path fill="#e5e5e5" d="M137-119c0-58 89-135 145-135 71 0 107 42 107 126C389-63 336 0 270 0c-63 0-133-55-133-119" id="ah"/><path fill="#e5e5e5" d="M773-362c52-3 103 50 103 101 0 27-17 56-48 89C762-102 548 0 418 0 210 0 81-204 84-422c3-221 73-486 152-640 103-201 220-303 358-303 167 0 251 128 251 385 0 123-35 185-106 185-48 0-101-46-99-94 2-77 27-278-39-278-46 0-94 47-150 138-89 144-168 415-168 602 0 146 56 219 169 219 46 0 106-26 180-77s122-77 141-77" id="ai"/><g id="b"><use transform="matrix(0.0087890625,0,0,0.0087890625,0,0)" xlink:href="#ab"/><use transform="matrix(0.0087890625,0,0,0.0087890625,9.9580078125,0)" xlink:href="#X"/><use transform="matrix(0.0087890625,0,0,0.0087890625,19.3447265625,0)" xlink:href="#ac"/><use transform="matrix(0.0087890625,0,0,0.0087890625,23.255859375,0)" xlink:href="#W"/><use transform="matrix(0.0087890625,0,0,0.0087890625,30.5859375,0)" xlink:href="#Y"/><use transform="matrix(0.0087890625,0,0,0.0087890625,40.6494140625,0)" xlink:href="#ad"/><use transform="matrix(0.0087890625,0,0,0.0087890625,53.5341796875,0)" xlink:href="#ae"/><use transform="matrix(0.0087890625,0,0,0.0087890625,64.2568359375,0)" xlink:href="#af"/><use transform="matrix(0.0087890625,0,0,0.0087890625,73.5556640625,0)" xlink:href="#ac"/><use transform="matrix(0.0087890625,0,0,0.0087890625,77.466796875,0)" xlink:href="#ae"/><use transform="matrix(0.0087890625,0,0,0.0087890625,88.189453125,0)" xlink:href="#ag"/><use transform="matrix(0.0087890625,0,0,0.0087890625,98.947265625,0)" xlink:href="#ah"/><use transform="matrix(0.0087890625,0,0,0.0087890625,103.8955078125,0)" xlink:href="#ai"/><use transform="matrix(0.0087890625,0,0,0.0087890625,112.4033203125,0)" xlink:href="#ae"/><use transform="matrix(0.0087890625,0,0,0.0087890625,123.1259765625,0)" xlink:href="#ad"/></g><path fill="#e5e5e5" d="M186 0C125 1 80-61 94-128c102-498 136-682 239-1056 16-58 29-97 39-118 39-81 152-87 186 3 8 21 18 60 27 118 29 181 80 412 149 693 44-195 134-593 229-824 15-37 48-53 85-53 50 0 90 31 101 97 20 117 17 225 52 381 45 201 159 605 163 785 2 54-42 102-96 102-45 0-83-20-96-65-37-130-44-258-87-432-40-161-61-264-70-309-35 138-85 345-146 622-13 58-24 96-31 117-30 83-132 87-176 19-11-18-25-49-39-97-63-219-121-453-172-703-35 145-84 365-140 660-11 60-19 102-29 123-19 43-51 65-96 65" id="aj"/><path fill="#e5e5e5" d="M621-594c163 0 326 124 326 282S736 5 573 0C387-6 235-158 176-307c-32-81-50-172-50-277 0-291 84-515 251-672 123-114 255-148 401-60 53 32 90 76 121 123 44 67-17 153-85 152-24 0-53-21-88-61s-68-60-100-60c-180 0-298 367-298 568 0 189 80 393 249 393 76 0 150-57 167-118-25-60-81-80-164-74-50 4-95-50-95-100 0-67 45-101 136-101" id="ak"/><path fill="#e5e5e5" d="M379-1365c368 0 677 218 677 573 0 172-83 346-249 522C639-90 470 0 299 0 185 0 128-80 128-239c0-257 31-558 68-915-53-11-80-43-80-95 0-56 32-93 97-108 26-6 82-8 166-8zm20 204c-15 77-48 489-71 917 0 13 0 27 1 41 116-22 232-92 347-210 119-123 179-241 179-355-1-195-66-277-208-343-75-35-158-50-248-50" id="al"/><path fill="#e5e5e5" d="M104-254c0-80 75-479 73-483 4-23 17-167 40-434-41-20-62-51-62-94 0-67 48-100 145-100 431 0 647 127 647 380 0 161-86 280-258 359 120 81 180 177 180 290 0 173-116 256-272 302C523-12 452 0 384 0 197 0 104-85 104-254zm642-722c0-105-210-177-326-186-9 140-24 282-43 426 246-59 369-139 369-240zm-77 638c-27-89-136-153-326-193-27 162-48 229-34 323 82 18 157 3 237-24 75-26 116-61 123-106" id="am"/><g id="c"><use transform="matrix(0.0087890625,0,0,0.0087890625,0,0)" xlink:href="#aj"/><use transform="matrix(0.0087890625,0,0,0.0087890625,12.8408203125,0)" xlink:href="#ae"/><use transform="matrix(0.0087890625,0,0,0.0087890625,23.5634765625,0)" xlink:href="#ag"/><use transform="matrix(0.0087890625,0,0,0.0087890625,34.3212890625,0)" xlink:href="#ak"/><use transform="matrix(0.0087890625,0,0,0.0087890625,43.76953125,0)" xlink:href="#ae"/><use transform="matrix(0.0087890625,0,0,0.0087890625,54.4921875,0)" xlink:href="#al"/><use transform="matrix(0.0087890625,0,0,0.0087890625,64.3359375,0)" xlink:href="#am"/></g><path fill="#e5e5e5" d="M430-1365c342 0 623 231 623 568 0 219-131 374-394 466 145 90 217 167 217 230 0 52-53 98-105 96-17 0-39-10-66-29-90-66-201-166-304-203v78C401-53 366 0 297 0c-53 0-99-44-99-97v-374c17-145 26-361 26-650-3 5-11 7-24 7-53 2-99-46-99-99 0-112 193-152 329-152zm258 786c221-128 209-317 20-469-89-71-178-111-268-119-1 97-1 329-1 698 89-27 172-65 249-110" id="an"/><path fill="#e5e5e5" d="M362 0C195 0 113-120 113-294c0-119 25-272 76-457 80-290 99-377 125-524 7-13 27-26 60-41 71-33 211-49 420-49 128 0 192 36 192 107 0 50-48 105-99 101-142-10-258-9-397 20-11 59-33 158-68 297 145-57 245-85 300-85 53 0 101 43 101 96 0 43-23 79-74 99-127 49-178 54-389 129-29 119-44 224-44 314 0 58 10 87 30 87 66 0 151-30 256-90s173-91 205-91c51 0 101 49 101 99 0 30-19 57-51 87C788-129 492 0 362 0" id="ao"/><path fill="#e5e5e5" d="M920-744c0 218 15 427 27 645 5 89-139 139-182 58-3-3-13-32-31-85-53-161-192-263-415-306-18 75-30 243-58 360-12 50-50 72-97 72-56 0-99-53-99-108 1-367 194-896 360-1117 69-92 141-140 222-140 182 0 273 207 273 621zM720-476v-400c-19-103-12-145-34-225-11-40-25-60-41-60-32 0-83 65-153 195-56 103-99 215-130 336 137 27 256 79 358 154" id="ap"/><g id="d"><use transform="matrix(0.0087890625,0,0,0.0087890625,0,0)" xlink:href="#an"/><use transform="matrix(0.0087890625,0,0,0.0087890625,9.94921875,0)" xlink:href="#ao"/><use transform="matrix(0.0087890625,0,0,0.0087890625,19.5908203125,0)" xlink:href="#ap"/><use transform="matrix(0.0087890625,0,0,0.0087890625,28.8720703125,0)" xlink:href="#al"/></g><path fill="#e5e5e5" d="M497-1365c50 0 101 53 99 102C621-1286 247-19 246-72c-25 48-57 72-94 72C103 0 48-41 48-92c0-33 18-110 53-231 48-167 138-465 271-894 5-16 12-40 26-72 22-51 56-76 99-76" id="aq"/><use transform="matrix(0.0087890625,0,0,0.0087890625,0,0)" xlink:href="#aq" id="e"/><path fill="#e5e5e5" d="M1318-1365c50 0 103 50 100 100-10 151-187 568-251 746-42 119-107 332-145 435-42 112-161 111-205 2-9-23-20-69-34-138-17-86-43-213-76-384-30 121-72 279-128 471-25 85-42 143-123 143-41 0-72-22-91-66-8-19-18-59-29-120-38-220-218-897-246-1087-8-52 45-102 98-102 44 0 77 24 99 73 7 15 11 53 22 113 33 173 101 434 160 701 72-277 121-491 147-642 10-57 20-94 27-114 31-93 161-82 185 7 6 22 10 66 10 133 0 150 44 362 101 635l239-724c8-25 19-62 42-109 25-50 60-73 98-73" id="ar"/><g id="f"><use transform="matrix(0.0087890625,0,0,0.0087890625,0,0)" xlink:href="#ar"/><use transform="matrix(0.0087890625,0,0,0.0087890625,13.11328125,0)" xlink:href="#aa"/><use transform="matrix(0.0087890625,0,0,0.0087890625,23.0888671875,0)" xlink:href="#ac"/><use transform="matrix(0.0087890625,0,0,0.0087890625,27,0)" xlink:href="#af"/><use transform="matrix(0.0087890625,0,0,0.0087890625,36.298828125,0)" xlink:href="#Z"/></g><path fill="#e5e5e5" d="M203-1149c-53 2-102-44-102-97 0-81 83-121 249-121 26 1 80 3 114 2 148 0 222 37 222 111 0 53-48 102-101 100-20 0-52-3-97-8-28 489-22 541-22 947 76-15 142 28 142 94 0 49-23 87-72 99-75 18-199 39-326 61-50 9-91-53-91-102 0-61 53-101 159-120-24-480-18-487 7-976-34 7-61 10-82 10" id="as"/><path fill="#e5e5e5" d="M46-1227c0-128 188-119 328-120 79-1 391-35 488-35 99 0 148 35 148 105 0 65-48 98-145 98-76 0-153 3-232 8 1 179-14 796-13 976C622-79 604-4 510 0c-53 2-99-44-99-97v-270c21-312 24-505 22-785-143 13-240 20-291 20-64 0-96-32-96-95" id="at"/><g id="g"><use transform="matrix(0.0087890625,0,0,0.0087890625,0,0)" xlink:href="#ar"/><use transform="matrix(0.0087890625,0,0,0.0087890625,13.11328125,0)" xlink:href="#an"/><use transform="matrix(0.0087890625,0,0,0.0087890625,23.0625,0)" xlink:href="#as"/><use transform="matrix(0.0087890625,0,0,0.0087890625,29.724609375,0)" xlink:href="#at"/><use transform="matrix(0.0087890625,0,0,0.0087890625,39.005859375,0)" xlink:href="#ao"/></g><path fill="#e5e5e5" d="M806-1260c0-54 39-105 95-105 43 0 76 24 99 73 18 39 27 131 27 277 0 274-20 484-61 631C894-128 756 0 553 0 384 0 262-90 188-270c-51-126-77-289-77-488 0-289 18-467 53-534 26-49 59-73 99-73 53 0 105 52 99 104-14 128-48 300-48 513 0 128 14 239 41 332 41 144 108 216 201 216 105 0 180-98 226-293 29-124 44-265 44-422 0-66-20-279-20-345" id="au"/><g id="h"><use transform="matrix(0.0087890625,0,0,0.0087890625,0,0)" xlink:href="#au"/><use transform="matrix(0.0087890625,0,0,0.0087890625,9.9931640625,0)" xlink:href="#as"/></g><path fill="#e5e5e5" d="M777-672c57 0 100 48 100 105 0 58-42 105-100 104-73-2-320 16-393 16-130 0-195-37-195-111 0-50 47-104 98-104 25 0 103 5 128 5 66 0 296-15 362-15" id="av"/><g id="i"><use transform="matrix(0.0087890625,0,0,0.0087890625,0,0)" xlink:href="#ap"/><use transform="matrix(0.0087890625,0,0,0.0087890625,9.0703125,0)" xlink:href="#ab"/><use transform="matrix(0.0087890625,0,0,0.0087890625,19.0283203125,0)" xlink:href="#av"/><use transform="matrix(0.0087890625,0,0,0.0087890625,28.4501953125,0)" xlink:href="#al"/><use transform="matrix(0.0087890625,0,0,0.0087890625,38.2939453125,0)" xlink:href="#ac"/><use transform="matrix(0.0087890625,0,0,0.0087890625,42.205078125,0)" xlink:href="#aa"/><use transform="matrix(0.0087890625,0,0,0.0087890625,52.1806640625,0)" xlink:href="#Z"/><use transform="matrix(0.0087890625,0,0,0.0087890625,61.962890625,0)" xlink:href="#ai"/><use transform="matrix(0.0087890625,0,0,0.0087890625,70.470703125,0)" xlink:href="#af"/><use transform="matrix(0.0087890625,0,0,0.0087890625,79.76953125,0)" xlink:href="#ae"/><use transform="matrix(0.0087890625,0,0,0.0087890625,90.4921875,0)" xlink:href="#aa"/></g><g id="j"><use transform="matrix(0.0087890625,0,0,0.0087890625,0,0)" xlink:href="#aj"/><use transform="matrix(0.0087890625,0,0,0.0087890625,12.8408203125,0)" xlink:href="#X"/><use transform="matrix(0.0087890625,0,0,0.0087890625,22.2275390625,0)" xlink:href="#ag"/><use transform="matrix(0.0087890625,0,0,0.0087890625,32.9853515625,0)" xlink:href="#X"/><use transform="matrix(0.0087890625,0,0,0.0087890625,42.1611328125,0)" xlink:href="#ak"/><use transform="matrix(0.0087890625,0,0,0.0087890625,51.3720703125,0)" xlink:href="#Z"/><use transform="matrix(0.0087890625,0,0,0.0087890625,61.154296875,0)" xlink:href="#ad"/><use transform="matrix(0.0087890625,0,0,0.0087890625,74.0390625,0)" xlink:href="#Z"/><use transform="matrix(0.0087890625,0,0,0.0087890625,83.8212890625,0)" xlink:href="#ag"/><use transform="matrix(0.0087890625,0,0,0.0087890625,94.5791015625,0)" xlink:href="#af"/></g><g id="k"><use transform="matrix(0.0087890625,0,0,0.0087890625,0,0)" xlink:href="#au"/><use transform="matrix(0.0087890625,0,0,0.0087890625,9.9931640625,0)" xlink:href="#as"/></g><g id="l"><use transform="matrix(0.0087890625,0,0,0.0087890625,0,0)" xlink:href="#ap"/><use transform="matrix(0.0087890625,0,0,0.0087890625,9.0703125,0)" xlink:href="#ab"/><use transform="matrix(0.0087890625,0,0,0.0087890625,19.0283203125,0)" xlink:href="#al"/><use transform="matrix(0.0087890625,0,0,0.0087890625,28.8720703125,0)" xlink:href="#as"/><use transform="matrix(0.0087890625,0,0,0.0087890625,35.5341796875,0)" xlink:href="#an"/><use transform="matrix(0.0087890625,0,0,0.0087890625,45.4833984375,0)" xlink:href="#av"/><use transform="matrix(0.0087890625,0,0,0.0087890625,54.9052734375,0)" xlink:href="#au"/><use transform="matrix(0.0087890625,0,0,0.0087890625,64.8984375,0)" xlink:href="#as"/><use transform="matrix(0.0087890625,0,0,0.0087890625,71.560546875,0)" xlink:href="#ah"/><use transform="matrix(0.0087890625,0,0,0.0087890625,76.5087890625,0)" xlink:href="#al"/><use transform="matrix(0.0087890625,0,0,0.0087890625,86.3525390625,0)" xlink:href="#aj"/><use transform="matrix(0.0087890625,0,0,0.0087890625,99.193359375,0)" xlink:href="#ah"/><use transform="matrix(0.0087890625,0,0,0.0087890625,104.1416015625,0)" xlink:href="#ai"/><use transform="matrix(0.0087890625,0,0,0.0087890625,112.6494140625,0)" xlink:href="#ae"/><use transform="matrix(0.0087890625,0,0,0.0087890625,123.3720703125,0)" xlink:href="#ad"/></g><g id="m"><use transform="matrix(0.0087890625,0,0,0.0087890625,0,0)" xlink:href="#ap"/><use transform="matrix(0.0087890625,0,0,0.0087890625,9.0703125,0)" xlink:href="#ab"/></g><path fill="#e5e5e5" d="M584-1365c326 0 553 334 548 674-5 286-156 533-352 633 45 103 67 168 67 196 0 50-51 99-101 99-69 0-122-80-159-239C265 29 72-294 72-614c0-177 41-339 123-487 97-176 227-264 389-264zM713-253c124-77 219-244 219-438 0-191-91-355-215-432-167-102-280-19-367 169-89 192-115 401-19 587 45 85 106 139 183 162-39-95-58-155-58-179 0-50 50-99 100-99 62 0 114 77 157 230" id="aw"/><g id="n"><use transform="matrix(0.0087890625,0,0,0.0087890625,0,0)" xlink:href="#an"/><use transform="matrix(0.0087890625,0,0,0.0087890625,9.94921875,0)" xlink:href="#Z"/><use transform="matrix(0.0087890625,0,0,0.0087890625,19.7314453125,0)" xlink:href="#aw"/></g><path fill="#e5e5e5" d="M925-1365c52 0 103 46 101 97 0 23-38 113-113 270-125 261-227 519-304 774-21 71-38 117-49 139-29 57-63 85-104 85-109-1-156-321-181-456-30-165-184-659-203-805-7-52 44-104 97-104 40 0 72 25 99 73 46 84 66 250 92 370 23 106 68 262 121 471 71-167 173-418 306-754 20-51 35-86 46-104 25-37 55-56 92-56" id="ax"/><g id="o"><use transform="matrix(0.0087890625,0,0,0.0087890625,0,0)" xlink:href="#ao"/><use transform="matrix(0.0087890625,0,0,0.0087890625,9.6416015625,0)" xlink:href="#ax"/><use transform="matrix(0.0087890625,0,0,0.0087890625,19.0458984375,0)" xlink:href="#Z"/><use transform="matrix(0.0087890625,0,0,0.0087890625,28.828125,0)" xlink:href="#ag"/><use transform="matrix(0.0087890625,0,0,0.0087890625,39.5859375,0)" xlink:href="#af"/></g><g id="p"><use transform="matrix(0.0087890625,0,0,0.0087890625,0,0)" xlink:href="#ap"/><use transform="matrix(0.0087890625,0,0,0.0087890625,9.0703125,0)" xlink:href="#ab"/><use transform="matrix(0.0087890625,0,0,0.0087890625,19.0283203125,0)" xlink:href="#av"/><use transform="matrix(0.0087890625,0,0,0.0087890625,28.4501953125,0)" xlink:href="#al"/><use transform="matrix(0.0087890625,0,0,0.0087890625,38.2939453125,0)" xlink:href="#ac"/><use transform="matrix(0.0087890625,0,0,0.0087890625,42.205078125,0)" xlink:href="#aa"/><use transform="matrix(0.0087890625,0,0,0.0087890625,52.1806640625,0)" xlink:href="#Z"/><use transform="matrix(0.0087890625,0,0,0.0087890625,61.962890625,0)" xlink:href="#ai"/><use transform="matrix(0.0087890625,0,0,0.0087890625,70.470703125,0)" xlink:href="#af"/><use transform="matrix(0.0087890625,0,0,0.0087890625,79.76953125,0)" xlink:href="#ae"/><use transform="matrix(0.0087890625,0,0,0.0087890625,90.4921875,0)" xlink:href="#aa"/></g><path fill="#e5e5e5" d="M196-1063c0-251 371-378 608-255 71 37 119 87 150 151 35 73-14 152-87 150-26 0-63-25-111-73s-102-72-162-72c-72 0-200 37-200 99 0 43 47 111 142 203 145 142 234 232 266 271 95 116 142 225 142 328C944-95 791 0 613 0 494 0 170-60 118-111c-29-29-48-55-48-87-1-69 67-120 140-92h-2c162 59 305 89 429 89 69 0 104-25 104-75 0-69-47-151-142-245-86-86-177-167-261-254-98-100-142-199-142-288" id="ay"/><g id="q"><use transform="matrix(0.0087890625,0,0,0.0087890625,0,0)" xlink:href="#ap"/><use transform="matrix(0.0087890625,0,0,0.0087890625,9.0703125,0)" xlink:href="#ab"/><use transform="matrix(0.0087890625,0,0,0.0087890625,19.0283203125,0)" xlink:href="#av"/><use transform="matrix(0.0087890625,0,0,0.0087890625,28.4501953125,0)" xlink:href="#ay"/><use transform="matrix(0.0087890625,0,0,0.0087890625,37.8369140625,0)" xlink:href="#Z"/><use transform="matrix(0.0087890625,0,0,0.0087890625,47.619140625,0)" xlink:href="#aa"/><use transform="matrix(0.0087890625,0,0,0.0087890625,57.5947265625,0)" xlink:href="#ax"/><use transform="matrix(0.0087890625,0,0,0.0087890625,66.9990234375,0)" xlink:href="#ac"/><use transform="matrix(0.0087890625,0,0,0.0087890625,70.91015625,0)" xlink:href="#ag"/><use transform="matrix(0.0087890625,0,0,0.0087890625,81.66796875,0)" xlink:href="#ak"/></g><path fill="#e5e5e5" d="M108-101c0-144 39-657 39-763 0-78 7-179 29-235 46-116 122-195 235-232 69-23 183-34 342-34 78 0 117 33 117 99 0 83-48 100-162 100-195-1-308 48-343 145-25 70-17 205-22 302 195-81 317-121 367-121 54 0 101 56 101 110 0 37-23 69-72 88-119 47-231 77-408 144-1 97 0 317-24 397C287-35 257 0 208 0c-50 0-100-50-100-101" id="az"/><path fill="#e5e5e5" d="M196-1063c0-251 371-378 608-255 71 37 119 87 150 151 35 73-14 152-87 150-26 0-63-25-111-73s-102-72-162-72c-72 0-200 37-200 99 0 43 47 111 142 203 145 142 234 232 266 271 95 116 142 225 142 328C944-95 791 0 613 0 494 0 170-60 118-111c-29-29-48-55-48-87-1-69 67-120 140-92h-2c162 59 305 89 429 89 69 0 104-25 104-75 0-69-47-151-142-245-86-86-177-167-261-254-98-100-142-199-142-288" id="aA"/><g id="r"><use transform="matrix(0.0087890625,0,0,0.0087890625,0,0)" xlink:href="#aq"/><use transform="matrix(0.0087890625,0,0,0.0087890625,5.6865234375,0)" xlink:href="#ai"/><use transform="matrix(0.0087890625,0,0,0.0087890625,14.1943359375,0)" xlink:href="#ab"/><use transform="matrix(0.0087890625,0,0,0.0087890625,24.15234375,0)" xlink:href="#ag"/><use transform="matrix(0.0087890625,0,0,0.0087890625,34.91015625,0)" xlink:href="#aq"/><use transform="matrix(0.0087890625,0,0,0.0087890625,40.5966796875,0)" xlink:href="#ad"/><use transform="matrix(0.0087890625,0,0,0.0087890625,53.4814453125,0)" xlink:href="#X"/><use transform="matrix(0.0087890625,0,0,0.0087890625,62.8681640625,0)" xlink:href="#ag"/><use transform="matrix(0.0087890625,0,0,0.0087890625,73.6259765625,0)" xlink:href="#ac"/><use transform="matrix(0.0087890625,0,0,0.0087890625,77.537109375,0)" xlink:href="#az"/><use transform="matrix(0.0087890625,0,0,0.0087890625,85.3681640625,0)" xlink:href="#Z"/><use transform="matrix(0.0087890625,0,0,0.0087890625,95.150390625,0)" xlink:href="#aA"/><use transform="matrix(0.0087890625,0,0,0.0087890625,104.5546875,0)" xlink:href="#af"/><use transform="matrix(0.0087890625,0,0,0.0087890625,113.853515625,0)" xlink:href="#aq"/><use transform="matrix(0.0087890625,0,0,0.0087890625,119.5400390625,0)" xlink:href="#ax"/><use transform="matrix(0.0087890625,0,0,0.0087890625,128.9443359375,0)" xlink:href="#ac"/><use transform="matrix(0.0087890625,0,0,0.0087890625,132.85546875,0)" xlink:href="#ab"/><use transform="matrix(0.0087890625,0,0,0.0087890625,142.8134765625,0)" xlink:href="#Z"/><use transform="matrix(0.0087890625,0,0,0.0087890625,152.595703125,0)" xlink:href="#ae"/></g><path fill="#e5e5e5" d="M758-451c66-46 150 20 150 87 0 27-17 54-48 86C767-182 488 0 328 0 185 0 113-109 113-326c0-170 46-508 46-695 0-141-8-341 119-344 53-2 103 46 101 99-3-2-26 472-39 636-16 198-28 312-28 343 0 57 11 86 33 86 60 0 168-62 324-185 19-16 49-38 89-65" id="aB"/><g id="s"><use transform="matrix(0.0087890625,0,0,0.0087890625,0,0)" xlink:href="#an"/><use transform="matrix(0.0087890625,0,0,0.0087890625,9.94921875,0)" xlink:href="#au"/><use transform="matrix(0.0087890625,0,0,0.0087890625,19.9423828125,0)" xlink:href="#aB"/><use transform="matrix(0.0087890625,0,0,0.0087890625,27.984375,0)" xlink:href="#ao"/></g><g id="t"><use transform="matrix(0.0087890625,0,0,0.0087890625,0,0)" xlink:href="#ap"/><use transform="matrix(0.0087890625,0,0,0.0087890625,9.28125,0)" xlink:href="#V"/><use transform="matrix(0.0087890625,0,0,0.0087890625,18.59765625,0)" xlink:href="#as"/></g><path fill="#e5e5e5" d="M492-1365c272 0 549 114 549 360 0 140-81 265-244 374-130 87-276 146-439 180-7 56-15 301-32 372-12 53-46 79-94 79-53 0-99-48-99-101 0-201 55-864 50-1044-38-23-57-56-57-99 0-39 24-69 72-90s147-31 294-31zm348 355c0-132-280-161-454-151-1 136-2 303-2 501 100-31 192-72 276-122 120-70 180-146 180-228" id="aC"/><g id="u"><use transform="matrix(0.0087890625,0,0,0.0087890625,0,0)" xlink:href="#aq"/><use transform="matrix(0.0087890625,0,0,0.0087890625,5.6865234375,0)" xlink:href="#ad"/><use transform="matrix(0.0087890625,0,0,0.0087890625,18.5712890625,0)" xlink:href="#X"/><use transform="matrix(0.0087890625,0,0,0.0087890625,27.9580078125,0)" xlink:href="#ag"/><use transform="matrix(0.0087890625,0,0,0.0087890625,38.7158203125,0)" xlink:href="#X"/><use transform="matrix(0.0087890625,0,0,0.0087890625,47.8916015625,0)" xlink:href="#ak"/><use transform="matrix(0.0087890625,0,0,0.0087890625,57.1025390625,0)" xlink:href="#Z"/><use transform="matrix(0.0087890625,0,0,0.0087890625,66.884765625,0)" xlink:href="#ad"/><use transform="matrix(0.0087890625,0,0,0.0087890625,79.76953125,0)" xlink:href="#Z"/><use transform="matrix(0.0087890625,0,0,0.0087890625,89.5517578125,0)" xlink:href="#ag"/><use transform="matrix(0.0087890625,0,0,0.0087890625,100.3095703125,0)" xlink:href="#af"/><use transform="matrix(0.0087890625,0,0,0.0087890625,109.6083984375,0)" xlink:href="#aq"/><use transform="matrix(0.0087890625,0,0,0.0087890625,115.294921875,0)" xlink:href="#X"/><use transform="matrix(0.0087890625,0,0,0.0087890625,124.4091796875,0)" xlink:href="#aC"/><use transform="matrix(0.0087890625,0,0,0.0087890625,133.751953125,0)" xlink:href="#ac"/></g><g id="v"><use transform="matrix(0.0087890625,0,0,0.0087890625,0,0)" xlink:href="#aj"/><use transform="matrix(0.0087890625,0,0,0.0087890625,12.8408203125,0)" xlink:href="#X"/><use transform="matrix(0.0087890625,0,0,0.0087890625,22.2275390625,0)" xlink:href="#ag"/><use transform="matrix(0.0087890625,0,0,0.0087890625,32.9853515625,0)" xlink:href="#X"/><use transform="matrix(0.0087890625,0,0,0.0087890625,42.1611328125,0)" xlink:href="#ak"/><use transform="matrix(0.0087890625,0,0,0.0087890625,51.3720703125,0)" xlink:href="#Z"/><use transform="matrix(0.0087890625,0,0,0.0087890625,61.154296875,0)" xlink:href="#ad"/><use transform="matrix(0.0087890625,0,0,0.0087890625,74.0390625,0)" xlink:href="#Z"/><use transform="matrix(0.0087890625,0,0,0.0087890625,83.8212890625,0)" xlink:href="#ag"/><use transform="matrix(0.0087890625,0,0,0.0087890625,94.5791015625,0)" xlink:href="#af"/></g><path fill="#e5e5e5" d="M768-362c52-3 102 50 102 101 0 27-17 56-47 89C758-102 542 0 413 0 205 0 76-203 79-422c3-220 72-486 151-640 103-201 221-303 359-303 167 0 251 128 251 385 0 123-35 185-106 185-48 0-101-46-99-94 2-77 27-279-39-278-99 4-207 230-243 339-48 149-75 282-75 401 0 146 56 219 169 219 45 0 105-26 180-77s122-77 141-77" id="aD"/><path fill="#e5e5e5" d="M925-1365c50 0 101 48 101 99 0 165-53 833-94 1164C923-33 882 0 831 0c-53 0-101-49-101-102 0-145 29-345 45-490-111 9-252 35-425 78-6 58-9 145-9 260 0 35-10 86-22 153C307-33 270 0 220 0c-53 0-103-48-102-101 6-372 65-764 56-1090-3-108 18-171 108-174 55-2 99 41 99 97v544c167-44 304-66 413-66 7-75 10-182 10-321 8-35 11-88 22-155s48-99 99-99" id="aE"/><path fill="#e5e5e5" d="M828-1263c0-55 41-106 95-102 140 10 133 224 150 372 25 219 36 341 36 365 0 117-18 227-54 328C982-97 873 5 730 5 530 5 400-187 341-570c-16 123-24 243-24 360C317-70 280 0 205 0c-53 0-99-44-99-97 0-314 85-1024 186-1197 27-46 56-71 94-71 52 0 87 33 104 99 5 21 8 92 8 213 0 153 26 313 55 481 43 253 101 379 172 379 116 0 183-303 183-438 0-120-80-513-80-632" id="aF"/><path fill="#e5e5e5" d="M614-594c163 0 326 124 326 282C940-155 729 5 567 0 380-5 228-157 169-307c-32-81-50-172-50-277 0-291 84-515 251-672 123-114 254-148 400-60 53 32 92 76 123 123 43 67-18 153-86 152-24 0-53-21-88-61s-68-60-99-60c-180 0-299 367-299 568 0 189 80 393 249 393 77 0 149-57 167-118-25-60-81-80-164-74-50 4-95-50-95-100 0-67 45-101 136-101" id="aG"/><path fill="#e5e5e5" d="M608-1364c322 0 518 229 518 557 0 183-50 357-151 522C858-95 714 0 543 0 269 0 96-283 96-570c0-191 37-362 112-512 94-188 228-282 400-282zm319 550c0-231-117-347-350-347-81 0-151 81-210 243-48 132-72 248-72 348 0 161 47 272 142 333 35 23 69 34 101 34 113 0 207-77 286-229 68-131 103-258 103-382" id="aH"/><g id="w"><use transform="matrix(0.0087890625,0,0,0.0087890625,0,0)" xlink:href="#aD"/><use transform="matrix(0.0087890625,0,0,0.0087890625,8.40234375,0)" xlink:href="#aE"/><use transform="matrix(0.0087890625,0,0,0.0087890625,18.439453125,0)" xlink:href="#ap"/><use transform="matrix(0.0087890625,0,0,0.0087890625,27.720703125,0)" xlink:href="#aF"/><use transform="matrix(0.0087890625,0,0,0.0087890625,38.443359375,0)" xlink:href="#aG"/><use transform="matrix(0.0087890625,0,0,0.0087890625,47.77734375,0)" xlink:href="#ao"/><use transform="matrix(0.0087890625,0,0,0.0087890625,57.4189453125,0)" xlink:href="#aB"/><use transform="matrix(0.0087890625,0,0,0.0087890625,65.4609375,0)" xlink:href="#aH"/><use transform="matrix(0.0087890625,0,0,0.0087890625,76.1572265625,0)" xlink:href="#aG"/></g><g id="x"><use transform="matrix(0.0087890625,0,0,0.0087890625,0,0)" xlink:href="#aq"/><use transform="matrix(0.0087890625,0,0,0.0087890625,5.6865234375,0)" xlink:href="#ai"/><use transform="matrix(0.0087890625,0,0,0.0087890625,14.1943359375,0)" xlink:href="#aE"/><use transform="matrix(0.0087890625,0,0,0.0087890625,24.2314453125,0)" xlink:href="#X"/><use transform="matrix(0.0087890625,0,0,0.0087890625,33.6181640625,0)" xlink:href="#ag"/><use transform="matrix(0.0087890625,0,0,0.0087890625,44.3759765625,0)" xlink:href="#ak"/><use transform="matrix(0.0087890625,0,0,0.0087890625,53.5869140625,0)" xlink:href="#Z"/><use transform="matrix(0.0087890625,0,0,0.0087890625,63.369140625,0)" xlink:href="#W"/><use transform="matrix(0.0087890625,0,0,0.0087890625,71.419921875,0)" xlink:href="#ae"/><use transform="matrix(0.0087890625,0,0,0.0087890625,82.142578125,0)" xlink:href="#ak"/></g><path fill="#e5e5e5" d="M922-1365c50 0 100 48 100 99 0 155-55 850-94 1164C919-33 879 0 828 0c-53 0-101-49-101-102 0-145 29-345 44-490-110 9-252 35-425 78-5 58-8 145-8 260 0 35-10 86-22 153C304-33 267 0 217 0c-52 0-104-48-103-101 6-372 66-765 57-1090-3-107 18-171 107-174 56-2 99 41 99 97v544c167-44 305-66 413-66 7-75 10-182 10-321 8-35 12-88 23-155s48-99 99-99" id="aI"/><g id="y"><use transform="matrix(0.0087890625,0,0,0.0087890625,0,0)" xlink:href="#ap"/><use transform="matrix(0.0087890625,0,0,0.0087890625,9.10546875,0)" xlink:href="#au"/><use transform="matrix(0.0087890625,0,0,0.0087890625,19.0986328125,0)" xlink:href="#at"/><use transform="matrix(0.0087890625,0,0,0.0087890625,28.3798828125,0)" xlink:href="#aI"/><use transform="matrix(0.0087890625,0,0,0.0087890625,38.337890625,0)" xlink:href="#ao"/><use transform="matrix(0.0087890625,0,0,0.0087890625,47.9794921875,0)" xlink:href="#aF"/><use transform="matrix(0.0087890625,0,0,0.0087890625,58.7021484375,0)" xlink:href="#at"/><use transform="matrix(0.0087890625,0,0,0.0087890625,67.9833984375,0)" xlink:href="#as"/><use transform="matrix(0.0087890625,0,0,0.0087890625,74.6455078125,0)" xlink:href="#aD"/><use transform="matrix(0.0087890625,0,0,0.0087890625,83.0478515625,0)" xlink:href="#ap"/><use transform="matrix(0.0087890625,0,0,0.0087890625,92.3291015625,0)" xlink:href="#at"/><use transform="matrix(0.0087890625,0,0,0.0087890625,101.6103515625,0)" xlink:href="#as"/><use transform="matrix(0.0087890625,0,0,0.0087890625,108.2724609375,0)" xlink:href="#aH"/><use transform="matrix(0.0087890625,0,0,0.0087890625,118.96875,0)" xlink:href="#aF"/></g><path fill="#e5e5e5" d="M807-1260c0-54 40-105 96-105 43 0 76 24 99 73 18 39 27 131 27 277 0 274-20 485-61 631C895-128 757 0 555 0 385 0 262-90 189-270c-51-126-76-289-76-488 0-289 18-467 53-534 26-49 59-73 99-73 52 0 105 52 99 104-14 128-48 300-48 513 0 128 14 239 41 332 41 144 108 216 201 216 105 0 179-98 225-293 29-124 45-265 45-422 0-66-21-279-21-345" id="aJ"/><g id="z"><use transform="matrix(0.0087890625,0,0,0.0087890625,0,0)" xlink:href="#aq"/><use transform="matrix(0.0087890625,0,0,0.0087890625,5.6865234375,0)" xlink:href="#X"/><use transform="matrix(0.0087890625,0,0,0.0087890625,15.0732421875,0)" xlink:href="#aJ"/><use transform="matrix(0.0087890625,0,0,0.0087890625,25.0927734375,0)" xlink:href="#af"/><use transform="matrix(0.0087890625,0,0,0.0087890625,34.3916015625,0)" xlink:href="#aE"/></g><g id="A"><use transform="matrix(0.0087890625,0,0,0.0087890625,0,0)" xlink:href="#aB"/><use transform="matrix(0.0087890625,0,0,0.0087890625,8.0419921875,0)" xlink:href="#ae"/><use transform="matrix(0.0087890625,0,0,0.0087890625,18.7646484375,0)" xlink:href="#ak"/></g><path fill="#e5e5e5" d="M582-1365c328 0 553 334 548 674-5 286-154 533-352 633 45 103 67 168 67 196 0 50-51 99-101 99-68 0-121-80-159-239C263 29 70-294 70-614c0-177 41-339 123-487 98-176 228-264 389-264zM712-253c124-77 218-243 218-438-1-192-95-350-215-432-274-186-445 261-445 512 0 181 102 372 242 406-39-95-58-155-58-179 0-50 50-99 101-99 61 0 114 77 157 230" id="aK"/><g id="B"><use transform="matrix(0.0087890625,0,0,0.0087890625,0,0)" xlink:href="#aK"/><use transform="matrix(0.0087890625,0,0,0.0087890625,10.634765625,0)" xlink:href="#aJ"/><use transform="matrix(0.0087890625,0,0,0.0087890625,20.654296875,0)" xlink:href="#Z"/><use transform="matrix(0.0087890625,0,0,0.0087890625,30.4365234375,0)" xlink:href="#aa"/><use transform="matrix(0.0087890625,0,0,0.0087890625,40.412109375,0)" xlink:href="#Y"/></g><g id="C"><use transform="matrix(0.0087890625,0,0,0.0087890625,0,0)" xlink:href="#ap"/><use transform="matrix(0.0087890625,0,0,0.0087890625,9.0703125,0)" xlink:href="#aJ"/><use transform="matrix(0.0087890625,0,0,0.0087890625,19.08984375,0)" xlink:href="#af"/><use transform="matrix(0.0087890625,0,0,0.0087890625,28.388671875,0)" xlink:href="#aE"/></g><g id="D"><use transform="matrix(0.0087890625,0,0,0.0087890625,0,0)" xlink:href="#an"/><use transform="matrix(0.0087890625,0,0,0.0087890625,9.94921875,0)" xlink:href="#Z"/><use transform="matrix(0.0087890625,0,0,0.0087890625,19.7314453125,0)" xlink:href="#aw"/></g><g id="E"><use transform="matrix(0.0087890625,0,0,0.0087890625,0,0)" xlink:href="#an"/><use transform="matrix(0.0087890625,0,0,0.0087890625,9.94921875,0)" xlink:href="#aJ"/><use transform="matrix(0.0087890625,0,0,0.0087890625,19.96875,0)" xlink:href="#W"/><use transform="matrix(0.0087890625,0,0,0.0087890625,28.01953125,0)" xlink:href="#Z"/></g><g id="F"><use transform="matrix(0.0087890625,0,0,0.0087890625,0,0)" xlink:href="#aH"/><use transform="matrix(0.0087890625,0,0,0.0087890625,10.6962890625,0)" xlink:href="#aC"/><use transform="matrix(0.0087890625,0,0,0.0087890625,20.0390625,0)" xlink:href="#Z"/><use transform="matrix(0.0087890625,0,0,0.0087890625,29.8212890625,0)" xlink:href="#aa"/><use transform="matrix(0.0087890625,0,0,0.0087890625,39.6474609375,0)" xlink:href="#X"/><use transform="matrix(0.0087890625,0,0,0.0087890625,49.0341796875,0)" xlink:href="#af"/><use transform="matrix(0.0087890625,0,0,0.0087890625,58.3330078125,0)" xlink:href="#ac"/><use transform="matrix(0.0087890625,0,0,0.0087890625,62.244140625,0)" xlink:href="#ae"/><use transform="matrix(0.0087890625,0,0,0.0087890625,72.966796875,0)" xlink:href="#ag"/></g><path fill="#7ab648" d="M922-654c-9 182 20 369 29 555 5 90-140 139-183 58-2-3-13-31-31-85-54-160-191-263-414-306-19 75-30 243-58 360-12 50-51 72-98 72-55 0-99-53-99-108 1-366 195-896 360-1117 69-92 141-140 222-140 182 0 273 207 273 621 0 19 1 49-1 90zM724-476v-400c-20-103-13-145-35-225-11-40-25-60-40-60-32 0-83 65-154 195-56 103-99 215-130 336 137 27 256 79 359 154" id="aL"/><path fill="#7ab648" d="M387-1365c369 0 678 217 678 573 0 172-83 346-249 522C647-90 478 0 307 0 194 0 137-80 137-239c0-257 30-558 68-915-53-11-80-43-80-95 0-56 32-93 97-108 26-6 81-8 165-8zm21 204c-15 76-47 491-72 917 0 13 1 27 2 41 116-22 231-92 346-210 120-123 180-241 180-355-1-196-67-277-209-343-74-35-157-50-247-50" id="aM"/><path fill="#7ab648" d="M777-672c57 0 100 48 100 105 0 58-42 105-100 104-73-2-320 16-393 16-130 0-195-37-195-111 0-50 47-104 98-104 25 0 103 5 128 5 66 0 296-15 362-15" id="aN"/><path fill="#7ab648" d="M270-1365c53 0 101 46 100 99-5 357-80 777-80 1073C290-64 254 0 183 0 132 0 82-50 82-101c0-298 47-662 55-976 2-76 19-138 34-189 19-66 52-99 99-99" id="aO"/><path fill="#7ab648" d="M432-1365c342 0 623 232 623 568 0 219-132 374-395 466 145 90 217 167 217 230 0 52-52 98-104 96-17 0-39-10-66-29-90-65-203-166-304-203v78C403-53 368 0 299 0c-53 0-99-44-99-97v-374c17-145 25-361 25-650-2 5-10 7-24 7-53 2-99-46-99-99 0-112 194-152 330-152zm257 786c221-128 209-317 21-469-89-71-178-111-268-119-1 97-2 329-2 698 90-27 172-66 249-110" id="aP"/><path fill="#7ab648" d="M369 0C201 0 119-119 119-294c0-119 26-272 77-457 80-290 99-377 125-524 7-13 27-26 60-41 71-33 211-49 419-49 129 0 193 36 193 107 0 50-48 105-99 101-142-10-258-9-397 20-11 59-34 158-69 297 146-57 246-85 301-85 53 0 100 43 100 96 0 43-23 80-73 99-127 49-178 54-389 129-29 119-44 224-44 314 0 58 10 87 30 87 66 0 151-30 256-90s173-91 205-91c50 0 101 49 101 99 0 30-19 57-51 87C794-129 500 0 369 0" id="aQ"/><path fill="#7ab648" d="M773-362c52-3 103 50 103 101 0 27-17 56-48 89C762-102 548 0 418 0 210 0 81-204 84-422c3-221 73-486 152-640 103-201 220-303 358-303 167 0 251 128 251 385 0 123-35 185-106 185-48 0-101-46-99-94 2-77 27-278-39-278-46 0-94 47-150 138-89 144-168 415-168 602 0 146 56 219 169 219 46 0 106-26 180-77s122-77 141-77" id="aR"/><path fill="#7ab648" d="M46-1227c0-128 188-119 328-120 79-1 391-35 488-35 99 0 148 35 148 105 0 65-48 98-145 98-76 0-153 3-232 8 1 179-14 796-13 976C622-79 604-4 510 0c-53 2-99-44-99-97v-270c21-312 24-505 22-785-143 13-240 20-291 20-64 0-96-32-96-95" id="aS"/><path fill="#7ab648" d="M609-1364c323 0 519 229 519 557 0 183-51 357-152 522C860-95 716 0 544 0 271 0 97-283 97-570c0-191 38-362 113-512 95-188 228-282 399-282zm319 550c0-231-116-347-349-347-81 0-151 81-210 243-48 132-72 248-72 348 0 161 47 272 142 333 35 23 69 34 100 34 113 0 208-76 287-229 68-131 102-258 102-382" id="aT"/><path fill="#7ab648" d="M137-119c0-58 89-135 145-135 71 0 107 42 107 126C389-63 336 0 270 0c-63 0-133-55-133-119" id="aU"/><path fill="#7ab648" d="M111-254c0-80 75-479 73-483 3-23 17-167 40-434-41-20-62-51-62-94 0-67 48-100 145-100 431 0 647 127 647 380 0 161-86 280-258 359 120 81 180 177 180 290 0 173-116 256-272 302C530-12 459 0 391 0 204 0 111-85 111-254zm642-722c0-105-210-177-326-186-9 140-24 282-43 426 246-59 369-139 369-240zm-77 638c-27-89-136-153-326-193-27 162-48 229-34 323 82 18 157 3 237-24 75-26 116-61 123-106" id="aV"/><g id="G"><use transform="matrix(0.010850694444444444,0,0,0.010850694444444444,0,0)" xlink:href="#aL"/><use transform="matrix(0.010850694444444444,0,0,0.010850694444444444,11.588541666666666,0)" xlink:href="#aM"/><use transform="matrix(0.010850694444444444,0,0,0.010850694444444444,23.88237847222222,0)" xlink:href="#aN"/><use transform="matrix(0.010850694444444444,0,0,0.010850694444444444,35.514322916666664,0)" xlink:href="#aM"/><use transform="matrix(0.010850694444444444,0,0,0.010850694444444444,47.80815972222222,0)" xlink:href="#aO"/><use transform="matrix(0.010850694444444444,0,0,0.010850694444444444,52.63671875,0)" xlink:href="#aP"/><use transform="matrix(0.010850694444444444,0,0,0.010850694444444444,64.95225694444444,0)" xlink:href="#aQ"/><use transform="matrix(0.010850694444444444,0,0,0.010850694444444444,77.02907986111111,0)" xlink:href="#aR"/><use transform="matrix(0.010850694444444444,0,0,0.010850694444444444,87.53255208333334,0)" xlink:href="#aS"/><use transform="matrix(0.010850694444444444,0,0,0.010850694444444444,99.01258680555557,0)" xlink:href="#aT"/><use transform="matrix(0.010850694444444444,0,0,0.010850694444444444,112.2504340277778,0)" xlink:href="#aP"/><use transform="matrix(0.010850694444444444,0,0,0.010850694444444444,123.07942708333334,0)" xlink:href="#aU"/><use transform="matrix(0.010850694444444444,0,0,0.010850694444444444,129.18836805555557,0)" xlink:href="#aM"/><use transform="matrix(0.010850694444444444,0,0,0.010850694444444444,141.48220486111111,0)" xlink:href="#aQ"/><use transform="matrix(0.010850694444444444,0,0,0.010850694444444444,153.55902777777777,0)" xlink:href="#aV"/></g><path fill="#3aa6dd" d="M922-654c-9 182 20 369 29 555 5 90-140 139-183 58-2-3-13-31-31-85-54-160-191-263-414-306-19 75-30 243-58 360-12 50-51 72-98 72-55 0-99-53-99-108 1-366 195-896 360-1117 69-92 141-140 222-140 182 0 273 207 273 621 0 19 1 49-1 90zM724-476v-400c-20-103-13-145-35-225-11-40-25-60-40-60-32 0-83 65-154 195-56 103-99 215-130 336 137 27 256 79 359 154" id="aW"/><path fill="#3aa6dd" d="M387-1365c369 0 678 217 678 573 0 172-83 346-249 522C647-90 478 0 307 0 194 0 137-80 137-239c0-257 30-558 68-915-53-11-80-43-80-95 0-56 32-93 97-108 26-6 81-8 165-8zm21 204c-15 76-47 491-72 917 0 13 1 27 2 41 116-22 231-92 346-210 120-123 180-241 180-355-1-196-67-277-209-343-74-35-157-50-247-50" id="aX"/><path fill="#3aa6dd" d="M777-672c57 0 100 48 100 105 0 58-42 105-100 104-73-2-320 16-393 16-130 0-195-37-195-111 0-50 47-104 98-104 25 0 103 5 128 5 66 0 296-15 362-15" id="aY"/><path fill="#3aa6dd" d="M270-1365c53 0 101 46 100 99-5 357-80 777-80 1073C290-64 254 0 183 0 132 0 82-50 82-101c0-298 47-662 55-976 2-76 19-138 34-189 19-66 52-99 99-99" id="aZ"/><path fill="#3aa6dd" d="M432-1365c342 0 623 232 623 568 0 219-132 374-395 466 145 90 217 167 217 230 0 52-52 98-104 96-17 0-39-10-66-29-90-65-203-166-304-203v78C403-53 368 0 299 0c-53 0-99-44-99-97v-374c17-145 25-361 25-650-2 5-10 7-24 7-53 2-99-46-99-99 0-112 194-152 330-152zm257 786c221-128 209-317 21-469-89-71-178-111-268-119-1 97-2 329-2 698 90-27 172-66 249-110" id="ba"/><path fill="#3aa6dd" d="M369 0C201 0 119-119 119-294c0-119 26-272 77-457 80-290 99-377 125-524 7-13 27-26 60-41 71-33 211-49 419-49 129 0 193 36 193 107 0 50-48 105-99 101-142-10-258-9-397 20-11 59-34 158-69 297 146-57 246-85 301-85 53 0 100 43 100 96 0 43-23 80-73 99-127 49-178 54-389 129-29 119-44 224-44 314 0 58 10 87 30 87 66 0 151-30 256-90s173-91 205-91c50 0 101 49 101 99 0 30-19 57-51 87C794-129 500 0 369 0" id="bb"/><path fill="#3aa6dd" d="M773-362c52-3 103 50 103 101 0 27-17 56-48 89C762-102 548 0 418 0 210 0 81-204 84-422c3-221 73-486 152-640 103-201 220-303 358-303 167 0 251 128 251 385 0 123-35 185-106 185-48 0-101-46-99-94 2-77 27-278-39-278-46 0-94 47-150 138-89 144-168 415-168 602 0 146 56 219 169 219 46 0 106-26 180-77s122-77 141-77" id="bc"/><path fill="#3aa6dd" d="M46-1227c0-128 188-119 328-120 79-1 391-35 488-35 99 0 148 35 148 105 0 65-48 98-145 98-76 0-153 3-232 8 1 179-14 796-13 976C622-79 604-4 510 0c-53 2-99-44-99-97v-270c21-312 24-505 22-785-143 13-240 20-291 20-64 0-96-32-96-95" id="bd"/><path fill="#3aa6dd" d="M609-1364c323 0 519 229 519 557 0 183-51 357-152 522C860-95 716 0 544 0 271 0 97-283 97-570c0-191 38-362 113-512 95-188 228-282 399-282zm319 550c0-231-116-347-349-347-81 0-151 81-210 243-48 132-72 248-72 348 0 161 47 272 142 333 35 23 69 34 100 34 113 0 208-76 287-229 68-131 102-258 102-382" id="be"/><path fill="#3aa6dd" d="M188 0C127 1 82-61 96-128c102-498 136-682 239-1056 16-58 29-97 39-118 39-81 152-87 186 3 8 21 18 60 27 118 29 181 79 412 149 693 44-195 133-594 228-824 15-37 48-53 86-53 50 0 89 31 100 97 19 117 18 225 53 381 45 201 158 605 162 785 1 54-41 102-95 102-46 0-83-20-96-65-38-130-44-258-87-432-40-161-61-264-70-309-35 138-86 345-147 622-13 58-23 96-30 117-29 83-132 87-176 19-11-18-25-49-39-97-63-219-122-453-173-703-35 145-85 365-140 660-11 60-19 101-29 123-20 43-51 65-95 65" id="bf"/><path fill="#3aa6dd" d="M621-594c163 0 326 124 326 282S736 5 573 0C387-6 235-158 176-307c-32-81-50-172-50-277 0-291 84-515 251-672 123-114 255-148 401-60 53 32 90 76 121 123 44 67-17 153-85 152-24 0-53-21-88-61s-68-60-100-60c-180 0-298 367-298 568 0 189 80 393 249 393 76 0 150-57 167-118-25-60-81-80-164-74-50 4-95-50-95-100 0-67 45-101 136-101" id="bg"/><path fill="#3aa6dd" d="M492-1365c272 0 549 114 549 360 0 140-81 265-244 374-130 87-276 146-439 180-7 56-15 301-32 372-12 53-46 79-94 79-53 0-99-48-99-101 0-201 55-864 50-1044-38-23-57-56-57-99 0-39 24-69 72-90s147-31 294-31zm348 355c0-132-280-161-454-151-1 136-2 303-2 501 100-31 192-72 276-122 120-70 180-146 180-228" id="bh"/><path fill="#3aa6dd" d="M137-119c0-58 89-135 145-135 71 0 107 42 107 126C389-63 336 0 270 0c-63 0-133-55-133-119" id="bi"/><path fill="#3aa6dd" d="M111-254c0-80 75-479 73-483 3-23 17-167 40-434-41-20-62-51-62-94 0-67 48-100 145-100 431 0 647 127 647 380 0 161-86 280-258 359 120 81 180 177 180 290 0 173-116 256-272 302C530-12 459 0 391 0 204 0 111-85 111-254zm642-722c0-105-210-177-326-186-9 140-24 282-43 426 246-59 369-139 369-240zm-77 638c-27-89-136-153-326-193-27 162-48 229-34 323 82 18 157 3 237-24 75-26 116-61 123-106" id="bj"/><g id="H"><use transform="matrix(0.010850694444444444,0,0,0.010850694444444444,0,0)" xlink:href="#aW"/><use transform="matrix(0.010850694444444444,0,0,0.010850694444444444,11.588541666666666,0)" xlink:href="#aX"/><use transform="matrix(0.010850694444444444,0,0,0.010850694444444444,23.88237847222222,0)" xlink:href="#aY"/><use transform="matrix(0.010850694444444444,0,0,0.010850694444444444,35.514322916666664,0)" xlink:href="#aX"/><use transform="matrix(0.010850694444444444,0,0,0.010850694444444444,47.80815972222222,0)" xlink:href="#aZ"/><use transform="matrix(0.010850694444444444,0,0,0.010850694444444444,52.63671875,0)" xlink:href="#ba"/><use transform="matrix(0.010850694444444444,0,0,0.010850694444444444,64.95225694444444,0)" xlink:href="#bb"/><use transform="matrix(0.010850694444444444,0,0,0.010850694444444444,77.02907986111111,0)" xlink:href="#bc"/><use transform="matrix(0.010850694444444444,0,0,0.010850694444444444,87.53255208333334,0)" xlink:href="#bd"/><use transform="matrix(0.010850694444444444,0,0,0.010850694444444444,99.01258680555557,0)" xlink:href="#be"/><use transform="matrix(0.010850694444444444,0,0,0.010850694444444444,112.2504340277778,0)" xlink:href="#ba"/><use transform="matrix(0.010850694444444444,0,0,0.010850694444444444,123.64366319444449,0)" xlink:href="#aY"/><use transform="matrix(0.010850694444444444,0,0,0.010850694444444444,135.2756076388889,0)" xlink:href="#bf"/><use transform="matrix(0.010850694444444444,0,0,0.010850694444444444,151.18272569444446,0)" xlink:href="#bg"/><use transform="matrix(0.010850694444444444,0,0,0.010850694444444444,162.84722222222223,0)" xlink:href="#bf"/><use transform="matrix(0.010850694444444444,0,0,0.010850694444444444,178.75434027777777,0)" xlink:href="#bd"/><use transform="matrix(0.010850694444444444,0,0,0.010850694444444444,190.234375,0)" xlink:href="#aY"/><use transform="matrix(0.010850694444444444,0,0,0.010850694444444444,201.86631944444449,0)" xlink:href="#aW"/><use transform="matrix(0.010850694444444444,0,0,0.010850694444444444,213.11848958333331,0)" xlink:href="#bh"/><use transform="matrix(0.010850694444444444,0,0,0.010850694444444444,224.6527777777778,0)" xlink:href="#bh"/><use transform="matrix(0.010850694444444444,0,0,0.010850694444444444,231.15234375000003,0)" xlink:href="#bi"/><use transform="matrix(0.010850694444444444,0,0,0.010850694444444444,237.26128472222226,0)" xlink:href="#aX"/><use transform="matrix(0.010850694444444444,0,0,0.010850694444444444,249.5551215277778,0)" xlink:href="#bb"/><use transform="matrix(0.010850694444444444,0,0,0.010850694444444444,261.63194444444446,0)" xlink:href="#bj"/></g><path fill="#b391b5" d="M379-1365c368 0 677 218 677 573 0 172-83 346-249 522C639-90 470 0 299 0 185 0 128-80 128-239c0-257 31-558 68-915-53-11-80-43-80-95 0-56 32-93 97-108 26-6 82-8 166-8zm20 204c-15 77-48 489-71 917 0 13 0 27 1 41 116-22 232-92 347-210 119-123 179-241 179-355-1-195-66-277-208-343-75-35-158-50-248-50" id="bk"/><path fill="#b391b5" d="M609-1364c323 0 519 229 519 557 0 183-51 357-152 522C860-95 716 0 544 0 271 0 97-283 97-570c0-191 38-362 113-512 95-188 228-282 399-282zm319 550c0-231-116-347-349-347-81 0-151 81-210 243-48 132-72 248-72 348 0 161 47 272 142 333 35 23 69 34 100 34 113 0 208-76 287-229 68-131 102-258 102-382" id="bl"/><path fill="#b391b5" d="M773-362c52-3 103 50 103 101 0 27-17 56-48 89C762-102 548 0 418 0 210 0 81-204 84-422c3-221 73-486 152-640 103-201 220-303 358-303 167 0 251 128 251 385 0 123-35 185-106 185-48 0-101-46-99-94 2-77 27-278-39-278-46 0-94 47-150 138-89 144-168 415-168 602 0 146 56 219 169 219 46 0 106-26 180-77s122-77 141-77" id="bm"/><path fill="#b391b5" d="M819-1377c51-2 99 48 99 100 0 45-37 111-112 198-69 79-142 155-210 234-77 90-113 163-113 215 0 67 40 139 121 214 9 8 85 66 227 174 81 61 121 110 121 146 0 52-54 107-105 105-17 0-40-10-67-29-196-143-322-233-435-405-11 59-17 288-43 364-14 42-49 61-95 61-56 0-96-49-96-104 0-132 56-634 60-717 3-65 6-162 6-293 7-35 10-86 21-152 11-67 48-99 99-99 53 0 101 46 101 99 0 47-7 172-21 377 82-84 176-223 268-326 95-107 151-162 174-162" id="bn"/><path fill="#b391b5" d="M369 0C201 0 119-119 119-294c0-119 26-272 77-457 80-290 99-377 125-524 7-13 27-26 60-41 71-33 211-49 419-49 129 0 193 36 193 107 0 50-48 105-99 101-142-10-258-9-397 20-11 59-34 158-69 297 146-57 246-85 301-85 53 0 100 43 100 96 0 43-23 80-73 99-127 49-178 54-389 129-29 119-44 224-44 314 0 58 10 87 30 87 66 0 151-30 256-90s173-91 205-91c50 0 101 49 101 99 0 30-19 57-51 87C794-129 500 0 369 0" id="bo"/><path fill="#b391b5" d="M432-1365c342 0 623 232 623 568 0 219-132 374-395 466 145 90 217 167 217 230 0 52-52 98-104 96-17 0-39-10-66-29-90-65-203-166-304-203v78C403-53 368 0 299 0c-53 0-99-44-99-97v-374c17-145 25-361 25-650-2 5-10 7-24 7-53 2-99-46-99-99 0-112 194-152 330-152zm257 786c221-128 209-317 21-469-89-71-178-111-268-119-1 97-2 329-2 698 90-27 172-66 249-110" id="bp"/><g id="I"><use transform="matrix(0.010850694444444444,0,0,0.010850694444444444,0,0)" xlink:href="#bk"/><use transform="matrix(0.010850694444444444,0,0,0.010850694444444444,12.152777777777777,0)" xlink:href="#bl"/><use transform="matrix(0.010850694444444444,0,0,0.010850694444444444,25.390625,0)" xlink:href="#bm"/><use transform="matrix(0.010850694444444444,0,0,0.010850694444444444,35.89409722222222,0)" xlink:href="#bn"/><use transform="matrix(0.010850694444444444,0,0,0.010850694444444444,47.482638888888886,0)" xlink:href="#bo"/><use transform="matrix(0.010850694444444444,0,0,0.010850694444444444,59.55946180555555,0)" xlink:href="#bp"/></g><path fill="#b391b5" d="M203-1149c-53 2-102-44-102-97 0-81 83-121 249-121 26 1 80 3 114 2 148 0 222 37 222 111 0 53-48 102-101 100-20 0-52-3-97-8-28 489-22 541-22 947 76-15 142 28 142 94 0 49-23 87-72 99-75 18-199 39-326 61-50 9-91-53-91-102 0-61 53-101 159-120-24-480-18-487 7-976-34 7-61 10-82 10" id="bq"/><path fill="#b391b5" d="M188 0C127 1 82-61 96-128c102-498 136-682 239-1056 16-58 29-97 39-118 39-81 152-87 186 3 8 21 18 60 27 118 29 181 79 412 149 693 44-195 133-594 228-824 15-37 48-53 86-53 50 0 89 31 100 97 19 117 18 225 53 381 45 201 158 605 162 785 1 54-41 102-95 102-46 0-83-20-96-65-38-130-44-258-87-432-40-161-61-264-70-309-35 138-86 345-147 622-13 58-23 96-30 117-29 83-132 87-176 19-11-18-25-49-39-97-63-219-122-453-173-703-35 145-85 365-140 660-11 60-19 101-29 123-20 43-51 65-95 65" id="br"/><path fill="#b391b5" d="M922-654c-9 182 20 369 29 555 5 90-140 139-183 58-2-3-13-31-31-85-54-160-191-263-414-306-19 75-30 243-58 360-12 50-51 72-98 72-55 0-99-53-99-108 1-366 195-896 360-1117 69-92 141-140 222-140 182 0 273 207 273 621 0 19 1 49-1 90zM724-476v-400c-20-103-13-145-35-225-11-40-25-60-40-60-32 0-83 65-154 195-56 103-99 215-130 336 137 27 256 79 359 154" id="bs"/><path fill="#b391b5" d="M621-594c163 0 326 124 326 282S736 5 573 0C387-6 235-158 176-307c-32-81-50-172-50-277 0-291 84-515 251-672 123-114 255-148 401-60 53 32 90 76 121 123 44 67-17 153-85 152-24 0-53-21-88-61s-68-60-100-60c-180 0-298 367-298 568 0 189 80 393 249 393 76 0 150-57 167-118-25-60-81-80-164-74-50 4-95-50-95-100 0-67 45-101 136-101" id="bt"/><g id="J"><use transform="matrix(0.010850694444444444,0,0,0.010850694444444444,0,0)" xlink:href="#bq"/><use transform="matrix(0.010850694444444444,0,0,0.010850694444444444,8.22482638888889,0)" xlink:href="#br"/><use transform="matrix(0.010850694444444444,0,0,0.010850694444444444,24.131944444444443,0)" xlink:href="#bs"/><use transform="matrix(0.010850694444444444,0,0,0.010850694444444444,35.46006944444444,0)" xlink:href="#bt"/><use transform="matrix(0.010850694444444444,0,0,0.010850694444444444,46.83159722222222,0)" xlink:href="#bo"/></g><path fill="#b391b5" d="M497-1365c50 0 101 53 99 102C621-1286 247-19 246-72c-25 48-57 72-94 72C103 0 48-41 48-92c0-33 18-110 53-231 48-167 138-465 271-894 5-16 12-40 26-72 22-51 56-76 99-76" id="bu"/><use transform="matrix(0.010850694444444444,0,0,0.010850694444444444,0,0)" xlink:href="#bu" id="K"/><path fill="#b391b5" d="M828-1263c0-55 41-106 95-102 140 10 133 224 150 372 25 219 36 341 36 365 0 117-18 227-54 328C982-97 873 5 730 5 530 5 400-187 341-570c-16 123-24 243-24 360C317-70 280 0 205 0c-53 0-99-44-99-97 0-314 85-1024 186-1197 27-46 56-71 94-71 52 0 87 33 104 99 5 21 8 92 8 213 0 153 26 313 55 481 43 253 101 379 172 379 116 0 183-303 183-438 0-120-80-513-80-632" id="bv"/><path fill="#b391b5" d="M387-1365c369 0 678 217 678 573 0 172-83 346-249 522C647-90 478 0 307 0 194 0 137-80 137-239c0-257 30-558 68-915-53-11-80-43-80-95 0-56 32-93 97-108 26-6 81-8 165-8zm21 204c-15 76-47 491-72 917 0 13 1 27 2 41 116-22 231-92 346-210 120-123 180-241 180-355-1-196-67-277-209-343-74-35-157-50-247-50" id="bw"/><path fill="#b391b5" d="M393-1106c-85 0-123-115-69-169 75-41 289-90 328-90 67 0 116 76 148 227 21 100 33 204 33 312 0 359-41 594-120 707C607 32 419 27 252-68c-82-47-144-100-184-161-19-29-29-54-29-75-2-51 53-99 104-94 70 6 117 81 165 118 43 33 92 80 158 80 65 0 111-88 140-264 32-197 40-527-17-686-74 29-139 44-196 44" id="bx"/><path fill="#b391b5" d="M196-1063c0-251 371-378 608-255 71 37 119 87 150 151 35 73-14 152-87 150-26 0-63-25-111-73s-102-72-162-72c-72 0-200 37-200 99 0 43 47 111 142 203 145 142 234 232 266 271 95 116 142 225 142 328C944-95 791 0 613 0 494 0 170-60 118-111c-29-29-48-55-48-87-1-69 67-120 140-92h-2c162 59 305 89 429 89 69 0 104-25 104-75 0-69-47-151-142-245-86-86-177-167-261-254-98-100-142-199-142-288" id="by"/><g id="L"><use transform="matrix(0.010850694444444444,0,0,0.010850694444444444,0,0)" xlink:href="#bv"/><use transform="matrix(0.010850694444444444,0,0,0.010850694444444444,13.237847222222221,0)" xlink:href="#bl"/><use transform="matrix(0.010850694444444444,0,0,0.010850694444444444,26.475694444444443,0)" xlink:href="#bw"/><use transform="matrix(0.010850694444444444,0,0,0.010850694444444444,38.76953125,0)" xlink:href="#bo"/><use transform="matrix(0.010850694444444444,0,0,0.010850694444444444,50.846354166666664,0)" xlink:href="#bx"/><use transform="matrix(0.010850694444444444,0,0,0.010850694444444444,61.12196180555555,0)" xlink:href="#by"/></g><path fill="#b391b5" d="M920-744c0 218 15 427 27 645 5 89-139 139-182 58-3-3-13-32-31-85-53-161-192-263-415-306-18 75-30 243-58 360-12 50-50 72-97 72-56 0-99-53-99-108 1-367 194-896 360-1117 69-92 141-140 222-140 182 0 273 207 273 621zM720-476v-400c-19-103-12-145-34-225-11-40-25-60-41-60-32 0-83 65-153 195-56 103-99 215-130 336 137 27 256 79 358 154" id="bz"/><path fill="#b391b5" d="M492-1365c272 0 549 114 549 360 0 140-81 265-244 374-130 87-276 146-439 180-7 56-15 301-32 372-12 53-46 79-94 79-53 0-99-48-99-101 0-201 55-864 50-1044-38-23-57-56-57-99 0-39 24-69 72-90s147-31 294-31zm348 355c0-132-280-161-454-151-1 136-2 303-2 501 100-31 192-72 276-122 120-70 180-146 180-228" id="bA"/><g id="M"><use transform="matrix(0.010850694444444444,0,0,0.010850694444444444,0,0)" xlink:href="#bz"/><use transform="matrix(0.010850694444444444,0,0,0.010850694444444444,11.241319444444445,0)" xlink:href="#bA"/><use transform="matrix(0.010850694444444444,0,0,0.010850694444444444,22.77560763888889,0)" xlink:href="#bA"/></g><use transform="matrix(0.010850694444444444,0,0,0.010850694444444444,0,0)" xlink:href="#bu" id="N"/><path fill="#b391b5" d="M196-1063c0-251 371-378 608-255 71 37 119 87 150 151 35 73-14 152-87 150-26 0-63-25-111-73s-102-72-162-72c-72 0-200 37-200 99 0 43 47 111 142 203 145 142 234 232 266 271 95 116 142 225 142 328C944-95 791 0 613 0 494 0 170-60 118-111c-29-29-48-55-48-87-1-69 67-120 140-92h-2c162 59 305 89 429 89 69 0 104-25 104-75 0-69-47-151-142-245-86-86-177-167-261-254-98-100-142-199-142-288" id="bB"/><path fill="#b391b5" d="M46-1227c0-128 188-119 328-120 79-1 391-35 488-35 99 0 148 35 148 105 0 65-48 98-145 98-76 0-153 3-232 8 1 179-14 796-13 976C622-79 604-4 510 0c-53 2-99-44-99-97v-270c21-312 24-505 22-785-143 13-240 20-291 20-64 0-96-32-96-95" id="bC"/><path fill="#b391b5" d="M270-1365c53 0 101 46 100 99-5 357-80 777-80 1073C290-64 254 0 183 0 132 0 82-50 82-101c0-298 47-662 55-976 2-76 19-138 34-189 19-66 52-99 99-99" id="bD"/><g id="O"><use transform="matrix(0.010850694444444444,0,0,0.010850694444444444,0,0)" xlink:href="#bB"/><use transform="matrix(0.010850694444444444,0,0,0.010850694444444444,11.588541666666666,0)" xlink:href="#bC"/><use transform="matrix(0.010850694444444444,0,0,0.010850694444444444,23.06857638888889,0)" xlink:href="#bs"/><use transform="matrix(0.010850694444444444,0,0,0.010850694444444444,34.65711805555555,0)" xlink:href="#bC"/><use transform="matrix(0.010850694444444444,0,0,0.010850694444444444,46.13715277777778,0)" xlink:href="#bD"/><use transform="matrix(0.010850694444444444,0,0,0.010850694444444444,50.96571180555556,0)" xlink:href="#bm"/></g><path fill="#b391b5" d="M922-1365c50 0 100 48 100 99 0 155-55 850-94 1164C919-33 879 0 828 0c-53 0-101-49-101-102 0-145 29-345 44-490-110 9-252 35-425 78-5 58-8 145-8 260 0 35-10 86-22 153C304-33 267 0 217 0c-52 0-104-48-103-101 6-372 66-765 57-1090-3-107 18-171 107-174 56-2 99 41 99 97v544c167-44 305-66 413-66 7-75 10-182 10-321 8-35 12-88 23-155s48-99 99-99" id="bE"/><path fill="#b391b5" d="M46-1227c0-128 188-119 328-120 79-1 391-35 488-35 99 0 148 35 148 105 0 65-48 98-145 98-76 0-153 3-232 8 1 179-14 796-13 976C622-79 604-4 510 0c-53 2-99-44-99-97v-270c21-312 24-505 22-785-143 13-240 20-291 20-64 0-96-32-96-95" id="bF"/><path fill="#b391b5" d="M186 0C125 1 80-61 94-128c102-498 136-682 239-1056 16-58 29-97 39-118 39-81 152-87 186 3 8 21 18 60 27 118 29 181 80 412 149 693 44-195 134-593 229-824 15-37 48-53 85-53 50 0 90 31 101 97 20 117 17 225 52 381 45 201 159 605 163 785 2 54-42 102-96 102-45 0-83-20-96-65-37-130-44-258-87-432-40-161-61-264-70-309-35 138-85 345-146 622-13 58-24 96-31 117-30 83-132 87-176 19-11-18-25-49-39-97-63-219-121-453-172-703-35 145-84 365-140 660-11 60-19 102-29 123-19 43-51 65-96 65" id="bG"/><path fill="#b391b5" d="M758-451c66-46 150 20 150 87 0 27-17 54-48 86C767-182 488 0 328 0 185 0 113-109 113-326c0-170 46-508 46-695 0-141-8-341 119-344 53-2 103 46 101 99-3-2-26 472-39 636-16 198-28 312-28 343 0 57 11 86 33 86 60 0 168-62 324-185 19-16 49-38 89-65" id="bH"/><g id="P"><use transform="matrix(0.010850694444444444,0,0,0.010850694444444444,0,0)" xlink:href="#bE"/><use transform="matrix(0.010850694444444444,0,0,0.010850694444444444,12.293836805555555,0)" xlink:href="#bF"/><use transform="matrix(0.010850694444444444,0,0,0.010850694444444444,23.75217013888889,0)" xlink:href="#bG"/><use transform="matrix(0.010850694444444444,0,0,0.010850694444444444,39.605034722222214,0)" xlink:href="#bH"/></g><path fill="#b391b5" d="M585-1365c52 0 105 52 103 104 0 2-6 43-19 123 131 10 196 52 196 126 0 55-51 107-106 107-108 0-355-108-355 57 0 82 146 76 217 100 52 17 77 52 77 101 0 65-54 97-162 97-23 1-103-6-126-5-66 0-99 25-99 75 0 35 16 60 49 76 40 19 142 29 307 29 58 0 103 48 103 105 0 59-44 103-103 103-47 0-86-1-117-2-4 40-8 80-11 120-10 33-43 49-100 49-92 0-115-94-94-193C168-229 79-310 79-435c0-100 50-180 150-241-111-92-72-239 29-331 56-51 121-89 198-111 8-165 51-247 129-247" id="bI"/><use transform="matrix(0.010850694444444444,0,0,0.010850694444444444,0,0)" xlink:href="#bI" id="Q"/><path fill="#b391b5" d="M768-362c52-3 102 50 102 101 0 27-17 56-47 89C758-102 542 0 413 0 205 0 76-203 79-422c3-220 72-486 151-640 103-201 221-303 359-303 167 0 251 128 251 385 0 123-35 185-106 185-48 0-101-46-99-94 2-77 27-279-39-278-99 4-207 230-243 339-48 149-75 282-75 401 0 146 56 219 169 219 45 0 105-26 180-77s122-77 141-77" id="bJ"/><g id="R"><use transform="matrix(0.010850694444444444,0,0,0.010850694444444444,0,0)" xlink:href="#bJ"/><use transform="matrix(0.010850694444444444,0,0,0.010850694444444444,10.37326388888889,0)" xlink:href="#bB"/><use transform="matrix(0.010850694444444444,0,0,0.010850694444444444,21.961805555555557,0)" xlink:href="#bB"/></g><path fill="#b391b5" d="M649-1365c133-5 180 359 180 539 0 359-40 595-119 707C604 32 415 28 248-68c-82-47-143-100-183-161-19-29-29-54-29-75-2-51 53-99 104-94 70 6 118 81 166 118 43 33 91 80 157 80 65 0 110-88 139-264 33-197 41-527-17-686-74 29-139 44-196 44-85 0-124-116-68-169 75-41 288-96 328-90" id="bK"/><g id="S"><use transform="matrix(0.010850694444444444,0,0,0.010850694444444444,0,0)" xlink:href="#bK"/><use transform="matrix(0.010850694444444444,0,0,0.010850694444444444,10.199652777777777,0)" xlink:href="#bB"/></g><g id="T"><use transform="matrix(0.0087890625,0,0,0.0087890625,0,0)" xlink:href="#aH"/><use transform="matrix(0.0087890625,0,0,0.0087890625,10.6962890625,0)" xlink:href="#aC"/><use transform="matrix(0.0087890625,0,0,0.0087890625,20.0390625,0)" xlink:href="#Z"/><use transform="matrix(0.0087890625,0,0,0.0087890625,29.8212890625,0)" xlink:href="#aa"/><use transform="matrix(0.0087890625,0,0,0.0087890625,39.6474609375,0)" xlink:href="#X"/><use transform="matrix(0.0087890625,0,0,0.0087890625,49.0341796875,0)" xlink:href="#af"/><use transform="matrix(0.0087890625,0,0,0.0087890625,58.3330078125,0)" xlink:href="#ae"/><use transform="matrix(0.0087890625,0,0,0.0087890625,69.0556640625,0)" xlink:href="#ac"/><use transform="matrix(0.0087890625,0,0,0.0087890625,72.966796875,0)" xlink:href="#ag"/></g><g id="U"><use transform="matrix(0.0087890625,0,0,0.0087890625,0,0)" xlink:href="#aB"/><use transform="matrix(0.0087890625,0,0,0.0087890625,8.0419921875,0)" xlink:href="#ae"/><use transform="matrix(0.0087890625,0,0,0.0087890625,18.7646484375,0)" xlink:href="#ak"/><use transform="matrix(0.0087890625,0,0,0.0087890625,28.212890625,0)" xlink:href="#aA"/></g></defs></g></svg>