<svg xmlns="http://www.w3.org/2000/svg" xmlns:xlink="http://www.w3.org/1999/xlink" xmlns:lucid="lucid" width="996" height="440"><g transform="translate(3.0646589902568735 3.0646589902568735)" lucid:page-tab-id="0_0"><path d="M16.94 16.94h956v400h-956z" stroke="#e7ad52" stroke-width="2" fill-opacity="0"/><path d="M23.94 31.54h18l-9 12.6zM49.74 59.94h11.52l2.88 3.6v14.4h-14.4z" stroke="#e7ad52" stroke-width="2" fill-opacity="0"/><path d="M61.26 59.94v3.6h2.88m-11.52 3.6h7.2m-7.2 5.4h8.64M23.94 95.54h18l-9 12.6zM49.74 123.94h11.52l2.88 3.6v14.4h-14.4z" stroke="#e7ad52" stroke-width="2" fill-opacity="0"/><path d="M61.26 123.94v3.6h2.88m-11.52 3.6h7.2m-7.2 5.4h8.64M23.94 159.54h18l-9 12.6zM49.74 187.94h11.52l2.88 3.6v14.4h-14.4z" stroke="#e7ad52" stroke-width="2" fill-opacity="0"/><path d="M61.26 187.94v3.6h2.88m-11.52 3.6h7.2m-7.2 5.4h8.64M23.94 223.54h18l-9 12.6zM49.74 251.94h11.52l2.88 3.6v14.4h-14.4z" stroke="#e7ad52" stroke-width="2" fill-opacity="0"/><path d="M61.26 251.94v3.6h2.88m-11.52 3.6h7.2m-7.2 5.4h8.64M49.74 283.94h11.52l2.88 3.6v14.4h-14.4z" stroke="#e7ad52" stroke-width="2" fill-opacity="0"/><path d="M61.26 283.94v3.6h2.88m-11.52 3.6h7.2m-7.2 5.4h8.64M25.74 315.94h11.52l2.88 3.6v14.4h-14.4z" stroke="#e7ad52" stroke-width="2" fill-opacity="0"/><path d="M37.26 315.94v3.6h2.88m-11.52 3.6h7.2m-7.2 5.4h8.64" stroke="#e7ad52" stroke-width="2" fill-opacity="0"/><use xlink:href="#a" transform="matrix(1,0,0,1,48.93534100974313,20.935341009743127) translate(0 23.55859375)"/><use xlink:href="#b" transform="matrix(1,0,0,1,72.93534100974313,52.93534100974313) translate(0 23.55859375)"/><use xlink:href="#c" transform="matrix(1,0,0,1,72.93534100974313,52.93534100974313) translate(203.28124999999994 23.55859375)"/><use xlink:href="#d" transform="matrix(1,0,0,1,72.93534100974313,52.93534100974313) translate(250.2083333333333 23.55859375)"/><use xlink:href="#e" transform="matrix(1,0,0,1,48.93534100974313,84.93534100974313) translate(0 23.55859375)"/><use xlink:href="#f" transform="matrix(1,0,0,1,72.93534100974313,116.93534100974313) translate(0 23.55859375)"/><use xlink:href="#c" transform="matrix(1,0,0,1,72.93534100974313,116.93534100974313) translate(207.10937499999991 23.55859375)"/><use xlink:href="#g" transform="matrix(1,0,0,1,72.93534100974313,116.93534100974313) translate(254.03645833333326 23.55859375)"/><use xlink:href="#h" transform="matrix(1,0,0,1,48.93534100974313,148.93534100974313) translate(0 23.55859375)"/><use xlink:href="#i" transform="matrix(1,0,0,1,72.93534100974313,180.93534100974313) translate(0 23.55859375)"/><use xlink:href="#c" transform="matrix(1,0,0,1,72.93534100974313,180.93534100974313) translate(198.0598958333333 23.55859375)"/><use xlink:href="#j" transform="matrix(1,0,0,1,72.93534100974313,180.93534100974313) translate(244.98697916666663 23.55859375)"/><g><use xlink:href="#k" transform="matrix(1,0,0,1,48.93534100974313,212.93534100974313) translate(0 23.55859375)"/></g><g><use xlink:href="#l" transform="matrix(1,0,0,1,72.93534100974313,244.93534100974313) translate(0 23.55859375)"/><use xlink:href="#c" transform="matrix(1,0,0,1,72.93534100974313,244.93534100974313) translate(196.21093749999994 23.55859375)"/><use xlink:href="#m" transform="matrix(1,0,0,1,72.93534100974313,244.93534100974313) translate(243.1380208333333 23.55859375)"/></g><g><use xlink:href="#n" transform="matrix(1,0,0,1,72.93534100974313,276.9353410097431) translate(0 23.55859375)"/><use xlink:href="#c" transform="matrix(1,0,0,1,72.93534100974313,276.9353410097431) translate(200.58593749999994 23.55859375)"/><use xlink:href="#o" transform="matrix(1,0,0,1,72.93534100974313,276.9353410097431) translate(247.5130208333333 23.55859375)"/></g><g><use xlink:href="#p" transform="matrix(1,0,0,1,48.93534100974313,308.9353410097431) translate(0 23.55859375)"/><use xlink:href="#c" transform="matrix(1,0,0,1,48.93534100974313,308.9353410097431) translate(225.33854166666657 23.55859375)"/><use xlink:href="#q" transform="matrix(1,0,0,1,48.93534100974313,308.9353410097431) translate(272.2656249999999 23.55859375)"/></g><defs><path fill="#e7ad52" d="M773-362c52-3 103 50 103 101 0 27-17 56-48 89C762-102 548 0 418 0 210 0 81-204 84-422c3-221 73-486 152-640 103-201 220-303 358-303 167 0 251 128 251 385 0 123-35 185-106 185-48 0-101-46-99-94 2-77 27-278-39-278-46 0-94 47-150 138-89 144-168 415-168 602 0 146 56 219 169 219 46 0 106-26 180-77s122-77 141-77" id="r"/><path fill="#e7ad52" d="M196-1063c0-251 371-378 608-255 71 37 119 87 150 151 35 73-14 152-87 150-26 0-63-25-111-73s-102-72-162-72c-72 0-200 37-200 99 0 43 47 111 142 203 145 142 234 232 266 271 95 116 142 225 142 328C944-95 791 0 613 0 494 0 170-60 118-111c-29-29-48-55-48-87-1-69 67-120 140-92h-2c162 59 305 89 429 89 69 0 104-25 104-75 0-69-47-151-142-245-86-86-177-167-261-254-98-100-142-199-142-288" id="s"/><g id="a"><use transform="matrix(0.013020833333333334,0,0,0.013020833333333334,0,0)" xlink:href="#r"/><use transform="matrix(0.013020833333333334,0,0,0.013020833333333334,12.604166666666668,0)" xlink:href="#s"/><use transform="matrix(0.013020833333333334,0,0,0.013020833333333334,26.536458333333336,0)" xlink:href="#s"/></g><path fill="#e7ad52" d="M369 0C201 0 119-119 119-294c0-119 26-272 77-457 80-290 99-377 125-524 7-13 27-26 60-41 71-33 211-49 419-49 129 0 193 36 193 107 0 50-48 105-99 101-142-10-258-9-397 20-11 59-34 158-69 297 146-57 246-85 301-85 53 0 100 43 100 96 0 43-23 80-73 99-127 49-178 54-389 129-29 119-44 224-44 314 0 58 10 87 30 87 66 0 151-30 256-90s173-91 205-91c50 0 101 49 101 99 0 30-19 57-51 87C794-129 500 0 369 0" id="t"/><path fill="#e7ad52" d="M172-1273c0-51 55-92 106-92 37 0 64 24 92 68 37 59 126 327 147 375 45-73 86-148 133-220 69-105 130-155 174-155 52 0 105 52 103 104-20 75-241 385-311 490 18 36 85 160 200 372 65 118 97 196 97 234 1 55-42 97-97 97-43 0-105-70-183-212-15-28-60-122-136-281-43 69-136 292-221 411-25 35-56 50-87 50-84 0-113-73-88-151 12-39 108-216 290-529-146-314-219-501-219-561" id="u"/><path fill="#e7ad52" d="M922-654c-9 182 20 369 29 555 5 90-140 139-183 58-2-3-13-31-31-85-54-160-191-263-414-306-19 75-30 243-58 360-12 50-51 72-98 72-55 0-99-53-99-108 1-366 195-896 360-1117 69-92 141-140 222-140 182 0 273 207 273 621 0 19 1 49-1 90zM724-476v-400c-20-103-13-145-35-225-11-40-25-60-40-60-32 0-83 65-154 195-56 103-99 215-130 336 137 27 256 79 359 154" id="v"/><path fill="#e7ad52" d="M188 0C127 1 82-61 96-128c102-498 136-682 239-1056 16-58 29-97 39-118 39-81 152-87 186 3 8 21 18 60 27 118 29 181 79 412 149 693 44-195 133-594 228-824 15-37 48-53 86-53 50 0 89 31 100 97 19 117 18 225 53 381 45 201 158 605 162 785 1 54-41 102-95 102-46 0-83-20-96-65-38-130-44-258-87-432-40-161-61-264-70-309-35 138-86 345-147 622-13 58-23 96-30 117-29 83-132 87-176 19-11-18-25-49-39-97-63-219-122-453-173-703-35 145-85 365-140 660-11 60-19 101-29 123-20 43-51 65-95 65" id="w"/><path fill="#e7ad52" d="M492-1365c272 0 549 114 549 360 0 140-81 265-244 374-130 87-276 146-439 180-7 56-15 301-32 372-12 53-46 79-94 79-53 0-99-48-99-101 0-201 55-864 50-1044-38-23-57-56-57-99 0-39 24-69 72-90s147-31 294-31zm348 355c0-132-280-161-454-151-1 136-2 303-2 501 100-31 192-72 276-122 120-70 180-146 180-228" id="x"/><path fill="#e7ad52" d="M759-451c68-46 151 19 151 87 0 27-17 54-48 86C767-182 491 0 329 0 186 0 114-109 114-326c0-169 46-507 46-695 0-139-8-341 120-344 53-2 103 46 101 99-4-2-27 472-40 636-16 198-27 312-27 343 0 57 11 86 32 86 61 0 169-62 325-185 19-16 49-38 88-65" id="y"/><path fill="#e7ad52" d="M137-119c0-58 89-135 145-135 71 0 107 42 107 126C389-63 336 0 270 0c-63 0-133-55-133-119" id="z"/><g id="b"><use transform="matrix(0.013020833333333334,0,0,0.013020833333333334,0,0)" xlink:href="#t"/><use transform="matrix(0.013020833333333334,0,0,0.013020833333333334,14.4921875,0)" xlink:href="#u"/><use transform="matrix(0.013020833333333334,0,0,0.013020833333333334,27.799479166666668,0)" xlink:href="#v"/><use transform="matrix(0.013020833333333334,0,0,0.013020833333333334,41.70572916666667,0)" xlink:href="#w"/><use transform="matrix(0.013020833333333334,0,0,0.013020833333333334,60.79427083333335,0)" xlink:href="#x"/><use transform="matrix(0.013020833333333334,0,0,0.013020833333333334,74.63541666666667,0)" xlink:href="#y"/><use transform="matrix(0.013020833333333334,0,0,0.013020833333333334,86.5625,0)" xlink:href="#t"/><use transform="matrix(0.013020833333333334,0,0,0.013020833333333334,100.61197916666667,0)" xlink:href="#z"/><use transform="matrix(0.013020833333333334,0,0,0.013020833333333334,107.94270833333334,0)" xlink:href="#r"/><use transform="matrix(0.013020833333333334,0,0,0.013020833333333334,120.546875,0)" xlink:href="#s"/><use transform="matrix(0.013020833333333334,0,0,0.013020833333333334,134.47916666666669,0)" xlink:href="#s"/></g><path fill="#e7ad52" d="M777-672c57 0 100 48 100 105 0 58-42 105-100 104-73-2-320 16-393 16-130 0-195-37-195-111 0-50 47-104 98-104 25 0 103 5 128 5 66 0 296-15 362-15" id="A"/><path fill="#e7ad52" d="M152-932c0-55 49-106 104-104 51 2 134 68 177 92 76 43 154 81 227 127 182 114 172 292 6 423-70 56-145 104-215 158-47 36-80 57-101 57-55 0-106-55-106-109 0-46 52-104 158-176s159-121 159-147c0-31-46-65-139-104-180-75-270-148-270-217" id="B"/><g id="c"><use transform="matrix(0.013020833333333334,0,0,0.013020833333333334,0,0)" xlink:href="#A"/><use transform="matrix(0.013020833333333334,0,0,0.013020833333333334,13.958333333333334,0)" xlink:href="#A"/><use transform="matrix(0.013020833333333334,0,0,0.013020833333333334,27.916666666666668,0)" xlink:href="#B"/></g><path fill="#e7ad52" d="M609-1364c323 0 519 229 519 557 0 183-51 357-152 522C860-95 716 0 544 0 271 0 97-283 97-570c0-191 38-362 113-512 95-188 228-282 399-282zm319 550c0-231-116-347-349-347-81 0-151 81-210 243-48 132-72 248-72 348 0 161 47 272 142 333 35 23 69 34 100 34 113 0 208-76 287-229 68-131 102-258 102-382" id="C"/><path fill="#e7ad52" d="M497-1365c50 0 101 53 99 102C621-1286 247-19 246-72c-25 48-57 72-94 72C103 0 48-41 48-92c0-33 18-110 53-231 48-167 138-465 271-894 5-16 12-40 26-72 22-51 56-76 99-76" id="D"/><g id="d"><use transform="matrix(0.013020833333333334,0,0,0.013020833333333334,0,0)" xlink:href="#t"/><use transform="matrix(0.013020833333333334,0,0,0.013020833333333334,14.4921875,0)" xlink:href="#u"/><use transform="matrix(0.013020833333333334,0,0,0.013020833333333334,27.799479166666668,0)" xlink:href="#v"/><use transform="matrix(0.013020833333333334,0,0,0.013020833333333334,41.70572916666667,0)" xlink:href="#w"/><use transform="matrix(0.013020833333333334,0,0,0.013020833333333334,60.79427083333335,0)" xlink:href="#x"/><use transform="matrix(0.013020833333333334,0,0,0.013020833333333334,74.63541666666667,0)" xlink:href="#y"/><use transform="matrix(0.013020833333333334,0,0,0.013020833333333334,86.5625,0)" xlink:href="#t"/><use transform="matrix(0.013020833333333334,0,0,0.013020833333333334,100.61197916666667,0)" xlink:href="#z"/><use transform="matrix(0.013020833333333334,0,0,0.013020833333333334,107.94270833333334,0)" xlink:href="#r"/><use transform="matrix(0.013020833333333334,0,0,0.013020833333333334,120.546875,0)" xlink:href="#C"/><use transform="matrix(0.013020833333333334,0,0,0.013020833333333334,136.43229166666669,0)" xlink:href="#w"/><use transform="matrix(0.013020833333333334,0,0,0.013020833333333334,155.52083333333334,0)" xlink:href="#D"/><use transform="matrix(0.013020833333333334,0,0,0.013020833333333334,163.9453125,0)" xlink:href="#r"/><use transform="matrix(0.013020833333333334,0,0,0.013020833333333334,176.54947916666666,0)" xlink:href="#s"/><use transform="matrix(0.013020833333333334,0,0,0.013020833333333334,190.48177083333331,0)" xlink:href="#s"/><use transform="matrix(0.013020833333333334,0,0,0.013020833333333334,204.41406249999997,0)" xlink:href="#D"/><use transform="matrix(0.013020833333333334,0,0,0.013020833333333334,212.83854166666663,0)" xlink:href="#t"/><use transform="matrix(0.013020833333333334,0,0,0.013020833333333334,227.33072916666663,0)" xlink:href="#u"/><use transform="matrix(0.013020833333333334,0,0,0.013020833333333334,240.6380208333333,0)" xlink:href="#v"/><use transform="matrix(0.013020833333333334,0,0,0.013020833333333334,254.5442708333333,0)" xlink:href="#w"/><use transform="matrix(0.013020833333333334,0,0,0.013020833333333334,273.63281249999994,0)" xlink:href="#x"/><use transform="matrix(0.013020833333333334,0,0,0.013020833333333334,287.47395833333326,0)" xlink:href="#y"/><use transform="matrix(0.013020833333333334,0,0,0.013020833333333334,299.4010416666666,0)" xlink:href="#t"/><use transform="matrix(0.013020833333333334,0,0,0.013020833333333334,313.45052083333326,0)" xlink:href="#z"/><use transform="matrix(0.013020833333333334,0,0,0.013020833333333334,320.78124999999994,0)" xlink:href="#r"/><use transform="matrix(0.013020833333333334,0,0,0.013020833333333334,333.38541666666663,0)" xlink:href="#s"/><use transform="matrix(0.013020833333333334,0,0,0.013020833333333334,347.3177083333333,0)" xlink:href="#s"/></g><path fill="#e7ad52" d="M270-1365c53 0 101 46 100 99-5 357-80 777-80 1073C290-64 254 0 183 0 132 0 82-50 82-101c0-298 47-662 55-976 2-76 19-138 34-189 19-66 52-99 99-99" id="E"/><path fill="#e7ad52" d="M621-594c163 0 326 124 326 282S736 5 573 0C387-6 235-158 176-307c-32-81-50-172-50-277 0-291 84-515 251-672 123-114 255-148 401-60 53 32 90 76 121 123 44 67-17 153-85 152-24 0-53-21-88-61s-68-60-100-60c-180 0-298 367-298 568 0 189 80 393 249 393 76 0 150-57 167-118-25-60-81-80-164-74-50 4-95-50-95-100 0-67 45-101 136-101" id="F"/><g id="e"><use transform="matrix(0.013020833333333334,0,0,0.013020833333333334,0,0)" xlink:href="#E"/><use transform="matrix(0.013020833333333334,0,0,0.013020833333333334,5.794270833333334,0)" xlink:href="#w"/><use transform="matrix(0.013020833333333334,0,0,0.013020833333333334,24.8828125,0)" xlink:href="#F"/></g><path fill="#e7ad52" d="M925-1365c50 0 101 48 101 99 0 165-53 833-94 1164C923-33 882 0 831 0c-53 0-101-49-101-102 0-145 29-345 45-490-111 9-252 35-425 78-6 58-9 145-9 260 0 35-10 86-22 153C307-33 270 0 220 0c-53 0-103-48-102-101 6-372 65-764 56-1090-3-108 18-171 108-174 55-2 99 41 99 97v544c167-44 304-66 413-66 7-75 10-182 10-321 8-35 11-88 22-155s48-99 99-99" id="G"/><path fill="#e7ad52" d="M108-101c0-144 39-657 39-763 0-78 7-179 29-235 46-116 122-195 235-232 69-23 183-34 342-34 78 0 117 33 117 99 0 83-48 100-162 100-195-1-308 48-343 145-25 70-17 205-22 302 195-81 317-121 367-121 54 0 101 56 101 110 0 37-23 69-72 88-119 47-231 77-408 144-1 97 0 317-24 397C287-35 257 0 208 0c-50 0-100-50-100-101" id="H"/><g id="f"><use transform="matrix(0.013020833333333334,0,0,0.013020833333333334,0,0)" xlink:href="#G"/><use transform="matrix(0.013020833333333334,0,0,0.013020833333333334,14.869791666666668,0)" xlink:href="#t"/><use transform="matrix(0.013020833333333334,0,0,0.013020833333333334,29.361979166666668,0)" xlink:href="#y"/><use transform="matrix(0.013020833333333334,0,0,0.013020833333333334,41.2890625,0)" xlink:href="#y"/><use transform="matrix(0.013020833333333334,0,0,0.013020833333333334,53.216145833333336,0)" xlink:href="#C"/><use transform="matrix(0.013020833333333334,0,0,0.013020833333333334,66.484375,0)" xlink:href="#z"/><use transform="matrix(0.013020833333333334,0,0,0.013020833333333334,73.81510416666667,0)" xlink:href="#F"/><use transform="matrix(0.013020833333333334,0,0,0.013020833333333334,87.8125,0)" xlink:href="#E"/><use transform="matrix(0.013020833333333334,0,0,0.013020833333333334,93.60677083333333,0)" xlink:href="#H"/></g><g id="g"><use transform="matrix(0.013020833333333334,0,0,0.013020833333333334,0,0)" xlink:href="#t"/><use transform="matrix(0.013020833333333334,0,0,0.013020833333333334,14.4921875,0)" xlink:href="#u"/><use transform="matrix(0.013020833333333334,0,0,0.013020833333333334,27.799479166666668,0)" xlink:href="#v"/><use transform="matrix(0.013020833333333334,0,0,0.013020833333333334,41.70572916666667,0)" xlink:href="#w"/><use transform="matrix(0.013020833333333334,0,0,0.013020833333333334,60.79427083333335,0)" xlink:href="#x"/><use transform="matrix(0.013020833333333334,0,0,0.013020833333333334,74.63541666666667,0)" xlink:href="#y"/><use transform="matrix(0.013020833333333334,0,0,0.013020833333333334,86.5625,0)" xlink:href="#t"/><use transform="matrix(0.013020833333333334,0,0,0.013020833333333334,100.61197916666667,0)" xlink:href="#z"/><use transform="matrix(0.013020833333333334,0,0,0.013020833333333334,107.94270833333334,0)" xlink:href="#r"/><use transform="matrix(0.013020833333333334,0,0,0.013020833333333334,120.546875,0)" xlink:href="#C"/><use transform="matrix(0.013020833333333334,0,0,0.013020833333333334,136.43229166666669,0)" xlink:href="#w"/><use transform="matrix(0.013020833333333334,0,0,0.013020833333333334,155.52083333333334,0)" xlink:href="#D"/><use transform="matrix(0.013020833333333334,0,0,0.013020833333333334,163.9453125,0)" xlink:href="#E"/><use transform="matrix(0.013020833333333334,0,0,0.013020833333333334,169.73958333333334,0)" xlink:href="#w"/><use transform="matrix(0.013020833333333334,0,0,0.013020833333333334,188.828125,0)" xlink:href="#F"/><use transform="matrix(0.013020833333333334,0,0,0.013020833333333334,202.82552083333334,0)" xlink:href="#D"/><use transform="matrix(0.013020833333333334,0,0,0.013020833333333334,211.25,0)" xlink:href="#G"/><use transform="matrix(0.013020833333333334,0,0,0.013020833333333334,226.11979166666669,0)" xlink:href="#t"/><use transform="matrix(0.013020833333333334,0,0,0.013020833333333334,240.61197916666669,0)" xlink:href="#y"/><use transform="matrix(0.013020833333333334,0,0,0.013020833333333334,252.5390625,0)" xlink:href="#y"/><use transform="matrix(0.013020833333333334,0,0,0.013020833333333334,264.4661458333333,0)" xlink:href="#C"/><use transform="matrix(0.013020833333333334,0,0,0.013020833333333334,277.734375,0)" xlink:href="#z"/><use transform="matrix(0.013020833333333334,0,0,0.013020833333333334,285.0651041666667,0)" xlink:href="#F"/><use transform="matrix(0.013020833333333334,0,0,0.013020833333333334,299.0625,0)" xlink:href="#E"/><use transform="matrix(0.013020833333333334,0,0,0.013020833333333334,304.8567708333333,0)" xlink:href="#H"/></g><path fill="#e7ad52" d="M393-1106c-85 0-123-115-69-169 75-41 289-90 328-90 67 0 116 76 148 227 21 100 33 204 33 312 0 359-41 594-120 707C607 32 419 27 252-68c-82-47-144-100-184-161-19-29-29-54-29-75-2-51 53-99 104-94 70 6 117 81 165 118 43 33 92 80 158 80 65 0 111-88 140-264 32-197 40-527-17-686-74 29-139 44-196 44" id="I"/><g id="h"><use transform="matrix(0.013020833333333334,0,0,0.013020833333333334,0,0)" xlink:href="#I"/><use transform="matrix(0.013020833333333334,0,0,0.013020833333333334,12.330729166666668,0)" xlink:href="#s"/></g><path fill="#e7ad52" d="M829-1263c0-55 42-106 96-102 141 10 133 224 150 372 25 219 36 341 36 365 0 117-18 227-55 328C983-97 875 5 732 5 532 5 402-187 343-570c-16 123-24 243-24 360C319-70 282 0 207 0c-53 0-99-44-99-97 0-315 85-1025 186-1197 27-46 56-71 93-71 53 0 88 33 105 99 5 21 8 92 8 213 0 153 26 313 55 481 43 253 101 379 172 379 116 0 183-303 183-438 0-120-81-513-81-632" id="J"/><g id="i"><use transform="matrix(0.013020833333333334,0,0,0.013020833333333334,0,0)" xlink:href="#w"/><use transform="matrix(0.013020833333333334,0,0,0.013020833333333334,19.088541666666668,0)" xlink:href="#v"/><use transform="matrix(0.013020833333333334,0,0,0.013020833333333334,32.99479166666667,0)" xlink:href="#E"/><use transform="matrix(0.013020833333333334,0,0,0.013020833333333334,38.78906250000001,0)" xlink:href="#J"/><use transform="matrix(0.013020833333333334,0,0,0.013020833333333334,54.7265625,0)" xlink:href="#z"/><use transform="matrix(0.013020833333333334,0,0,0.013020833333333334,62.05729166666667,0)" xlink:href="#I"/><use transform="matrix(0.013020833333333334,0,0,0.013020833333333334,74.38802083333334,0)" xlink:href="#s"/></g><g id="j"><use transform="matrix(0.013020833333333334,0,0,0.013020833333333334,0,0)" xlink:href="#t"/><use transform="matrix(0.013020833333333334,0,0,0.013020833333333334,14.4921875,0)" xlink:href="#u"/><use transform="matrix(0.013020833333333334,0,0,0.013020833333333334,27.799479166666668,0)" xlink:href="#v"/><use transform="matrix(0.013020833333333334,0,0,0.013020833333333334,41.70572916666667,0)" xlink:href="#w"/><use transform="matrix(0.013020833333333334,0,0,0.013020833333333334,60.79427083333335,0)" xlink:href="#x"/><use transform="matrix(0.013020833333333334,0,0,0.013020833333333334,74.63541666666667,0)" xlink:href="#y"/><use transform="matrix(0.013020833333333334,0,0,0.013020833333333334,86.5625,0)" xlink:href="#t"/><use transform="matrix(0.013020833333333334,0,0,0.013020833333333334,100.61197916666667,0)" xlink:href="#z"/><use transform="matrix(0.013020833333333334,0,0,0.013020833333333334,107.94270833333334,0)" xlink:href="#r"/><use transform="matrix(0.013020833333333334,0,0,0.013020833333333334,120.546875,0)" xlink:href="#C"/><use transform="matrix(0.013020833333333334,0,0,0.013020833333333334,136.43229166666669,0)" xlink:href="#w"/><use transform="matrix(0.013020833333333334,0,0,0.013020833333333334,155.52083333333334,0)" xlink:href="#D"/><use transform="matrix(0.013020833333333334,0,0,0.013020833333333334,163.9453125,0)" xlink:href="#I"/><use transform="matrix(0.013020833333333334,0,0,0.013020833333333334,176.27604166666666,0)" xlink:href="#s"/><use transform="matrix(0.013020833333333334,0,0,0.013020833333333334,190.20833333333331,0)" xlink:href="#D"/><use transform="matrix(0.013020833333333334,0,0,0.013020833333333334,198.63281249999997,0)" xlink:href="#w"/><use transform="matrix(0.013020833333333334,0,0,0.013020833333333334,217.72135416666663,0)" xlink:href="#v"/><use transform="matrix(0.013020833333333334,0,0,0.013020833333333334,231.62760416666663,0)" xlink:href="#E"/><use transform="matrix(0.013020833333333334,0,0,0.013020833333333334,237.42187499999997,0)" xlink:href="#J"/><use transform="matrix(0.013020833333333334,0,0,0.013020833333333334,253.35937499999997,0)" xlink:href="#z"/><use transform="matrix(0.013020833333333334,0,0,0.013020833333333334,260.69010416666663,0)" xlink:href="#I"/><use transform="matrix(0.013020833333333334,0,0,0.013020833333333334,273.0208333333333,0)" xlink:href="#s"/></g><path fill="#e7ad52" d="M1319-1365c51 0 104 50 101 100-10 151-188 568-251 746-42 119-107 332-145 435-41 112-162 111-205 2-9-23-20-69-34-138-17-86-44-213-77-384-29 121-72 278-128 471-24 85-42 143-123 143-41 0-71-22-90-66-8-19-18-59-29-120-39-219-218-896-246-1087-8-52 44-102 97-102 45 0 77 25 99 73 7 15 12 53 23 113 33 173 101 434 160 701 72-277 121-491 147-642 10-57 21-94 27-114 29-93 161-81 184 7 6 22 11 66 11 133 0 150 43 362 100 635l239-724c8-25 20-62 43-109 25-50 60-73 97-73" id="K"/><path fill="#e7ad52" d="M111-254c0-80 75-479 73-483 3-23 17-167 40-434-41-20-62-51-62-94 0-67 48-100 145-100 431 0 647 127 647 380 0 161-86 280-258 359 120 81 180 177 180 290 0 173-116 256-272 302C530-12 459 0 391 0 204 0 111-85 111-254zm642-722c0-105-210-177-326-186-9 140-24 282-43 426 246-59 369-139 369-240zm-77 638c-27-89-136-153-326-193-27 162-48 229-34 323 82 18 157 3 237-24 75-26 116-61 123-106" id="L"/><path fill="#e7ad52" d="M46-1227c0-128 188-119 328-120 79-1 391-35 488-35 99 0 148 35 148 105 0 65-48 98-145 98-76 0-153 3-232 8 1 179-14 796-13 976C622-79 604-4 510 0c-53 2-99-44-99-97v-270c21-312 24-505 22-785-143 13-240 20-291 20-64 0-96-32-96-95" id="M"/><g id="k"><use transform="matrix(0.013020833333333334,0,0,0.013020833333333334,0,0)" xlink:href="#K"/><use transform="matrix(0.013020833333333334,0,0,0.013020833333333334,19.466145833333336,0)" xlink:href="#t"/><use transform="matrix(0.013020833333333334,0,0,0.013020833333333334,33.958333333333336,0)" xlink:href="#L"/><use transform="matrix(0.013020833333333334,0,0,0.013020833333333334,47.473958333333336,0)" xlink:href="#s"/><use transform="matrix(0.013020833333333334,0,0,0.013020833333333334,61.40625,0)" xlink:href="#E"/><use transform="matrix(0.013020833333333334,0,0,0.013020833333333334,67.20052083333333,0)" xlink:href="#M"/><use transform="matrix(0.013020833333333334,0,0,0.013020833333333334,80.9765625,0)" xlink:href="#t"/></g><path fill="#e7ad52" d="M295-1038c-53 2-99-46-99-99 0-31 18-59 51-87 37-32 224-141 280-141 69 0 104 33 104 99v735c-33 116-21 386-54 459-21 48-54 72-99 72-64 1-108-57-94-125 18-88 24-194 24-317 1 31 2-75 2-317v-328c-50 33-88 49-115 49" id="N"/><g id="l"><use transform="matrix(0.013020833333333334,0,0,0.013020833333333334,0,0)" xlink:href="#x"/><use transform="matrix(0.013020833333333334,0,0,0.013020833333333334,13.841145833333334,0)" xlink:href="#v"/><use transform="matrix(0.013020833333333334,0,0,0.013020833333333334,27.434895833333336,0)" xlink:href="#F"/><use transform="matrix(0.013020833333333334,0,0,0.013020833333333334,41.08072916666667,0)" xlink:href="#t"/><use transform="matrix(0.013020833333333334,0,0,0.013020833333333334,55.57291666666667,0)" xlink:href="#N"/><use transform="matrix(0.013020833333333334,0,0,0.013020833333333334,66.51041666666667,0)" xlink:href="#z"/><use transform="matrix(0.013020833333333334,0,0,0.013020833333333334,73.84114583333334,0)" xlink:href="#G"/><use transform="matrix(0.013020833333333334,0,0,0.013020833333333334,88.71093750000001,0)" xlink:href="#M"/><use transform="matrix(0.013020833333333334,0,0,0.013020833333333334,102.48697916666669,0)" xlink:href="#w"/><use transform="matrix(0.013020833333333334,0,0,0.013020833333333334,121.57552083333336,0)" xlink:href="#y"/></g><g id="m"><use transform="matrix(0.013020833333333334,0,0,0.013020833333333334,0,0)" xlink:href="#t"/><use transform="matrix(0.013020833333333334,0,0,0.013020833333333334,14.4921875,0)" xlink:href="#u"/><use transform="matrix(0.013020833333333334,0,0,0.013020833333333334,27.799479166666668,0)" xlink:href="#v"/><use transform="matrix(0.013020833333333334,0,0,0.013020833333333334,41.70572916666667,0)" xlink:href="#w"/><use transform="matrix(0.013020833333333334,0,0,0.013020833333333334,60.79427083333335,0)" xlink:href="#x"/><use transform="matrix(0.013020833333333334,0,0,0.013020833333333334,74.63541666666667,0)" xlink:href="#y"/><use transform="matrix(0.013020833333333334,0,0,0.013020833333333334,86.5625,0)" xlink:href="#t"/><use transform="matrix(0.013020833333333334,0,0,0.013020833333333334,100.61197916666667,0)" xlink:href="#z"/><use transform="matrix(0.013020833333333334,0,0,0.013020833333333334,107.94270833333334,0)" xlink:href="#r"/><use transform="matrix(0.013020833333333334,0,0,0.013020833333333334,120.546875,0)" xlink:href="#C"/><use transform="matrix(0.013020833333333334,0,0,0.013020833333333334,136.43229166666669,0)" xlink:href="#w"/><use transform="matrix(0.013020833333333334,0,0,0.013020833333333334,155.52083333333334,0)" xlink:href="#D"/><use transform="matrix(0.013020833333333334,0,0,0.013020833333333334,163.9453125,0)" xlink:href="#K"/><use transform="matrix(0.013020833333333334,0,0,0.013020833333333334,183.41145833333334,0)" xlink:href="#t"/><use transform="matrix(0.013020833333333334,0,0,0.013020833333333334,197.90364583333334,0)" xlink:href="#L"/><use transform="matrix(0.013020833333333334,0,0,0.013020833333333334,211.41927083333334,0)" xlink:href="#s"/><use transform="matrix(0.013020833333333334,0,0,0.013020833333333334,225.3515625,0)" xlink:href="#E"/><use transform="matrix(0.013020833333333334,0,0,0.013020833333333334,231.14583333333334,0)" xlink:href="#M"/><use transform="matrix(0.013020833333333334,0,0,0.013020833333333334,244.921875,0)" xlink:href="#t"/><use transform="matrix(0.013020833333333334,0,0,0.013020833333333334,259.4140625,0)" xlink:href="#D"/><use transform="matrix(0.013020833333333334,0,0,0.013020833333333334,267.8385416666667,0)" xlink:href="#x"/><use transform="matrix(0.013020833333333334,0,0,0.013020833333333334,281.6796875,0)" xlink:href="#v"/><use transform="matrix(0.013020833333333334,0,0,0.013020833333333334,295.2734375,0)" xlink:href="#F"/><use transform="matrix(0.013020833333333334,0,0,0.013020833333333334,308.9192708333333,0)" xlink:href="#t"/><use transform="matrix(0.013020833333333334,0,0,0.013020833333333334,323.4114583333333,0)" xlink:href="#N"/><use transform="matrix(0.013020833333333334,0,0,0.013020833333333334,334.3489583333333,0)" xlink:href="#z"/><use transform="matrix(0.013020833333333334,0,0,0.013020833333333334,341.6796875,0)" xlink:href="#G"/><use transform="matrix(0.013020833333333334,0,0,0.013020833333333334,356.5494791666667,0)" xlink:href="#M"/><use transform="matrix(0.013020833333333334,0,0,0.013020833333333334,370.32552083333337,0)" xlink:href="#w"/><use transform="matrix(0.013020833333333334,0,0,0.013020833333333334,389.41406250000006,0)" xlink:href="#y"/></g><path fill="#e7ad52" d="M722-1365c155 0 277 78 276 225 0 91-50 195-151 314-48 56-136 140-262 254-171 154-256 259-256 316 0 37 32 55 96 55 103 0 398-64 478-64 48 0 94 55 94 103 0 50-33 87-101 99C773-42 564-1 425 0 221 0 119-76 119-227c0-93 56-204 169-333 46-52 140-144 284-277s216-227 216-283c0-29-23-44-69-44-62 0-148 26-258 77-11 52-41 78-92 78-58 0-103-42-103-100 0-156 283-256 456-256" id="O"/><g id="n"><use transform="matrix(0.013020833333333334,0,0,0.013020833333333334,0,0)" xlink:href="#x"/><use transform="matrix(0.013020833333333334,0,0,0.013020833333333334,13.841145833333334,0)" xlink:href="#v"/><use transform="matrix(0.013020833333333334,0,0,0.013020833333333334,27.434895833333336,0)" xlink:href="#F"/><use transform="matrix(0.013020833333333334,0,0,0.013020833333333334,41.08072916666667,0)" xlink:href="#t"/><use transform="matrix(0.013020833333333334,0,0,0.013020833333333334,55.57291666666667,0)" xlink:href="#O"/><use transform="matrix(0.013020833333333334,0,0,0.013020833333333334,70.88541666666667,0)" xlink:href="#z"/><use transform="matrix(0.013020833333333334,0,0,0.013020833333333334,78.21614583333334,0)" xlink:href="#G"/><use transform="matrix(0.013020833333333334,0,0,0.013020833333333334,93.08593750000001,0)" xlink:href="#M"/><use transform="matrix(0.013020833333333334,0,0,0.013020833333333334,106.8619791666667,0)" xlink:href="#w"/><use transform="matrix(0.013020833333333334,0,0,0.013020833333333334,125.95052083333336,0)" xlink:href="#y"/></g><g id="o"><use transform="matrix(0.013020833333333334,0,0,0.013020833333333334,0,0)" xlink:href="#t"/><use transform="matrix(0.013020833333333334,0,0,0.013020833333333334,14.4921875,0)" xlink:href="#u"/><use transform="matrix(0.013020833333333334,0,0,0.013020833333333334,27.799479166666668,0)" xlink:href="#v"/><use transform="matrix(0.013020833333333334,0,0,0.013020833333333334,41.70572916666667,0)" xlink:href="#w"/><use transform="matrix(0.013020833333333334,0,0,0.013020833333333334,60.79427083333335,0)" xlink:href="#x"/><use transform="matrix(0.013020833333333334,0,0,0.013020833333333334,74.63541666666667,0)" xlink:href="#y"/><use transform="matrix(0.013020833333333334,0,0,0.013020833333333334,86.5625,0)" xlink:href="#t"/><use transform="matrix(0.013020833333333334,0,0,0.013020833333333334,100.61197916666667,0)" xlink:href="#z"/><use transform="matrix(0.013020833333333334,0,0,0.013020833333333334,107.94270833333334,0)" xlink:href="#r"/><use transform="matrix(0.013020833333333334,0,0,0.013020833333333334,120.546875,0)" xlink:href="#C"/><use transform="matrix(0.013020833333333334,0,0,0.013020833333333334,136.43229166666669,0)" xlink:href="#w"/><use transform="matrix(0.013020833333333334,0,0,0.013020833333333334,155.52083333333334,0)" xlink:href="#D"/><use transform="matrix(0.013020833333333334,0,0,0.013020833333333334,163.9453125,0)" xlink:href="#K"/><use transform="matrix(0.013020833333333334,0,0,0.013020833333333334,183.41145833333334,0)" xlink:href="#t"/><use transform="matrix(0.013020833333333334,0,0,0.013020833333333334,197.90364583333334,0)" xlink:href="#L"/><use transform="matrix(0.013020833333333334,0,0,0.013020833333333334,211.41927083333334,0)" xlink:href="#s"/><use transform="matrix(0.013020833333333334,0,0,0.013020833333333334,225.3515625,0)" xlink:href="#E"/><use transform="matrix(0.013020833333333334,0,0,0.013020833333333334,231.14583333333334,0)" xlink:href="#M"/><use transform="matrix(0.013020833333333334,0,0,0.013020833333333334,244.921875,0)" xlink:href="#t"/><use transform="matrix(0.013020833333333334,0,0,0.013020833333333334,259.4140625,0)" xlink:href="#D"/><use transform="matrix(0.013020833333333334,0,0,0.013020833333333334,267.8385416666667,0)" xlink:href="#x"/><use transform="matrix(0.013020833333333334,0,0,0.013020833333333334,281.6796875,0)" xlink:href="#v"/><use transform="matrix(0.013020833333333334,0,0,0.013020833333333334,295.2734375,0)" xlink:href="#F"/><use transform="matrix(0.013020833333333334,0,0,0.013020833333333334,308.9192708333333,0)" xlink:href="#t"/><use transform="matrix(0.013020833333333334,0,0,0.013020833333333334,323.4114583333333,0)" xlink:href="#O"/><use transform="matrix(0.013020833333333334,0,0,0.013020833333333334,338.7239583333333,0)" xlink:href="#z"/><use transform="matrix(0.013020833333333334,0,0,0.013020833333333334,346.0546875,0)" xlink:href="#G"/><use transform="matrix(0.013020833333333334,0,0,0.013020833333333334,360.9244791666667,0)" xlink:href="#M"/><use transform="matrix(0.013020833333333334,0,0,0.013020833333333334,374.70052083333337,0)" xlink:href="#w"/><use transform="matrix(0.013020833333333334,0,0,0.013020833333333334,393.78906250000006,0)" xlink:href="#y"/></g><path fill="#e7ad52" d="M387-1365c369 0 678 217 678 573 0 172-83 346-249 522C647-90 478 0 307 0 194 0 137-80 137-239c0-257 30-558 68-915-53-11-80-43-80-95 0-56 32-93 97-108 26-6 81-8 165-8zm21 204c-15 76-47 491-72 917 0 13 1 27 2 41 116-22 231-92 346-210 120-123 180-241 180-355-1-196-67-277-209-343-74-35-157-50-247-50" id="P"/><g id="p"><use transform="matrix(0.013020833333333334,0,0,0.013020833333333334,0,0)" xlink:href="#E"/><use transform="matrix(0.013020833333333334,0,0,0.013020833333333334,5.794270833333334,0)" xlink:href="#J"/><use transform="matrix(0.013020833333333334,0,0,0.013020833333333334,21.731770833333336,0)" xlink:href="#P"/><use transform="matrix(0.013020833333333334,0,0,0.013020833333333334,36.484375,0)" xlink:href="#t"/><use transform="matrix(0.013020833333333334,0,0,0.013020833333333334,50.9765625,0)" xlink:href="#u"/><use transform="matrix(0.013020833333333334,0,0,0.013020833333333334,64.28385416666667,0)" xlink:href="#z"/><use transform="matrix(0.013020833333333334,0,0,0.013020833333333334,71.61458333333334,0)" xlink:href="#G"/><use transform="matrix(0.013020833333333334,0,0,0.013020833333333334,86.48437500000001,0)" xlink:href="#M"/><use transform="matrix(0.013020833333333334,0,0,0.013020833333333334,100.26041666666669,0)" xlink:href="#w"/><use transform="matrix(0.013020833333333334,0,0,0.013020833333333334,119.34895833333336,0)" xlink:href="#y"/></g><g id="q"><use transform="matrix(0.013020833333333334,0,0,0.013020833333333334,0,0)" xlink:href="#t"/><use transform="matrix(0.013020833333333334,0,0,0.013020833333333334,14.4921875,0)" xlink:href="#u"/><use transform="matrix(0.013020833333333334,0,0,0.013020833333333334,27.799479166666668,0)" xlink:href="#v"/><use transform="matrix(0.013020833333333334,0,0,0.013020833333333334,41.70572916666667,0)" xlink:href="#w"/><use transform="matrix(0.013020833333333334,0,0,0.013020833333333334,60.79427083333335,0)" xlink:href="#x"/><use transform="matrix(0.013020833333333334,0,0,0.013020833333333334,74.63541666666667,0)" xlink:href="#y"/><use transform="matrix(0.013020833333333334,0,0,0.013020833333333334,86.5625,0)" xlink:href="#t"/><use transform="matrix(0.013020833333333334,0,0,0.013020833333333334,100.61197916666667,0)" xlink:href="#z"/><use transform="matrix(0.013020833333333334,0,0,0.013020833333333334,107.94270833333334,0)" xlink:href="#r"/><use transform="matrix(0.013020833333333334,0,0,0.013020833333333334,120.546875,0)" xlink:href="#C"/><use transform="matrix(0.013020833333333334,0,0,0.013020833333333334,136.43229166666669,0)" xlink:href="#w"/></g></defs></g></svg>