<svg xmlns="http://www.w3.org/2000/svg" xmlns:xlink="http://www.w3.org/1999/xlink" xmlns:lucid="lucid" width="940" height="660"><g transform="translate(-100 0)" lucid:page-tab-id="-Asv2aqMzg40"><path d="M620 580h160v60H620z" stroke="#e7ad52" stroke-width="2" fill="none"/><use xlink:href="#a" transform="matrix(1,0,0,1,625,585) translate(38.19140625 30.10205078125)"/><path d="M360 500h160v60H360z" stroke="#e7ad52" stroke-width="2" fill="none"/><use xlink:href="#b" transform="matrix(1,0,0,1,365,505) translate(29.08154296875 30.10205078125)"/><path d="M580 400h160v60H580z" stroke="#e7ad52" stroke-width="2" fill="none"/><use xlink:href="#c" transform="matrix(1,0,0,1,585,405) translate(12.46142578125 30.10205078125)"/><path d="M860 400h160v60H860z" stroke="#e7ad52" stroke-width="2" fill="none"/><use xlink:href="#d" transform="matrix(1,0,0,1,865,405) translate(32.0478515625 30.10205078125)"/><path d="M260 360h160v60H260z" stroke="#e7ad52" stroke-width="2" fill="none"/><use xlink:href="#e" transform="matrix(1,0,0,1,265,365) translate(24.55078125 30.10205078125)"/><path d="M720 240h160v60H720z" stroke="#e7ad52" stroke-width="2" fill="none"/><use xlink:href="#f" transform="matrix(1,0,0,1,725,245) translate(9.275390625 30.10205078125)"/><use xlink:href="#g" transform="matrix(1,0,0,1,725,245) translate(115.46484375 30.10205078125)"/><path d="M460 240h160v60H460z" stroke="#e7ad52" stroke-width="2" fill="none"/><use xlink:href="#h" transform="matrix(1,0,0,1,465,245) translate(24.76611328125 20.8076171875)"/><use xlink:href="#i" transform="matrix(1,0,0,1,465,245) translate(29.8681640625 39.396484375)"/><path d="M120 240h160v60H120z" stroke="#e7ad52" stroke-width="2" fill="none"/><use xlink:href="#j" transform="matrix(1,0,0,1,125,245) translate(50.63671875 30.10205078125)"/><path d="M280 120h160v60H280z" stroke="#e7ad52" stroke-width="2" fill="none"/><use xlink:href="#k" transform="matrix(1,0,0,1,285,125) translate(3.6416015625 20.8076171875)"/><use xlink:href="#l" transform="matrix(1,0,0,1,285,125) translate(108.57421875 20.8076171875)"/><use xlink:href="#m" transform="matrix(1,0,0,1,285,125) translate(60.1025390625 39.396484375)"/><path d="M460 20h160v60H460z" stroke="#e7ad52" stroke-width="2" fill="none"/><use xlink:href="#k" transform="matrix(1,0,0,1,465,25) translate(3.6416015625 30.10205078125)"/><use xlink:href="#n" transform="matrix(1,0,0,1,465,25) translate(108.57421875 30.10205078125)"/><path d="M660 460l.1 5.33.3 4.76.46 4.32.6 3.97.7 3.7.8 3.48.94 3.34 1.05 3.24 1.2 3.2 1.35 3.23 1.58 3.34 1.92 3.66 2.53 4.4 5.24 8.15 7.7 11.86 2.53 4.4 1.92 3.66 1.58 3.35 1.36 3.24 1.2 3.2 1.04 3.24.93 3.34.82 3.5.7 3.7.6 3.96.44 4.33.3 4.77.1 5.33" stroke="#e7ad52" stroke-width="2" fill="none"/><path d="M659 460.06V460h1.03zM700 580l-5.52-13.95 9.25-.58z" fill="#e7ad52"/><path d="M701.03 580h-2.1l-5.9-14.86 12-.75zm-5.12-13.04l3.9 9.8 2.62-10.2z" fill="#e7ad52"/><path d="M940 460l-.02.94-.06.9-.1.92-.12.9-.17.88-.2.9-.26.88-.3.9-.33.9-.38.9-.44.94-.5.95-.56.98-.63 1-.72 1.03-.8 1.08-.92 1.1-1.05 1.18-1.2 1.23-1.4 1.3-1.6 1.38-1.88 1.5-2.22 1.6-2.65 1.75-3.2 1.94-3.93 2.15-4.93 2.45-6.38 2.83-8.57 3.38-12.34 4.28-20.68 6.2-103.58 27.68-12.34 4.28-8.57 3.38-6.38 2.83-4.93 2.45-3.93 2.15-3.2 1.94-2.65 1.75-2.22 1.6-1.88 1.5-1.6 1.4-1.4 1.3-1.2 1.22-1.05 1.17-.92 1.12-.8 1.07-.73 1.02-.63 1-.56.97-.5.94-.44.93-.38.9-.34.9-.3.9-.24.9-.2.9-.18.88-.13.9-.1.9-.05.9-.02.95" stroke="#e7ad52" stroke-width="2" fill="none"/><path d="M940.95 460.33L940 460h1.06zM709.03 568.03L700 580l.27-15z" fill="#e7ad52"/><path d="M710.66 567.53l-9.4 12.47H699l.3-16.4zm-9.6 9.4l6.35-8.4-6.15-2.13z" fill="#e7ad52"/><path d="M520 530l2.28.06 2.15.16 2.05.26 1.98.34 1.9.44 1.86.53 1.82.6 1.8.7 1.8.82 1.8.92 1.8 1.05 1.84 1.2 1.9 1.36 1.97 1.58 2.1 1.84 2.22 2.2 2.47 2.67 2.82 3.4 3.5 4.64 5.57 8.27 14.3 22.14 3.5 4.66 2.83 3.4 2.47 2.66 2.23 2.2 2.1 1.84 1.96 1.58 1.9 1.37 1.84 1.2 1.8 1.06 1.8.92 1.8.8 1.8.72 1.82.6 1.86.54 1.9.44 1.98.34 2.05.26 2.15.16 2.28.06" stroke="#e7ad52" stroke-width="2" fill="none"/><path d="M520.18 529.02l-.18 1v-1.04zM620 610l-14.86 2.03 1.64-9.12z" fill="#e7ad52"/><path d="M620 608.87V611l-16.1 2.2 2.14-11.83zm-13.63 1.98l10.45-1.42-9.3-5z" fill="#e7ad52"/><path d="M340 420l.03 1.18.08 1.14.15 1.1.2 1.1.24 1.05.3 1.05.34 1.05.4 1.05.5 1.05.54 1.07.63 1.1.73 1.1.83 1.15.95 1.18 1.12 1.25 1.3 1.32 1.52 1.4 1.83 1.53 2.22 1.67 2.75 1.87 3.57 2.16 4.86 2.62 7.5 3.57 42.34 18.03 4.86 2.62 3.57 2.16 2.76 1.87 2.23 1.67 1.83 1.52 1.52 1.4 1.3 1.33 1.1 1.25.96 1.2.83 1.14.72 1.1.62 1.1.55 1.07.48 1.05.4 1.05.36 1.05.3 1.05.25 1.06.2 1.08.14 1.1.07 1.14.03 1.18" stroke="#e7ad52" stroke-width="2" fill="none"/><path d="M339.05 420.33l-.1-.33H340zM440 500l-9-12 8.76-3z" fill="#e7ad52"/><path d="M441 500h-2.25l-9.4-12.5 11.4-3.9zm-8.38-11.5l6.33 8.44-.17-10.55z" fill="#e7ad52"/><path d="M540 300l-.12 6.04-.36 5.6-.54 5.23-.73 4.93-.9 4.68-1.04 4.48-1.2 4.3-1.36 4.2-1.52 4.1-1.7 4.03-1.9 4-2.1 4.06-2.4 4.13-2.7 4.26-3.15 4.52-3.74 4.93-4.7 5.68-6.68 7.4-32.97 34.24-4.7 5.67-3.75 4.92-3.14 4.52-2.73 4.27-2.38 4.14-2.13 4.05-1.9 4-1.7 4.05-1.5 4.1-1.37 4.18-1.2 4.3-1.06 4.5-.9 4.67-.72 4.93-.54 5.23-.36 5.6L440 500" stroke="#e7ad52" stroke-width="2" fill="none"/><path d="M541 300.06l-1.05-.06H541zM445.4 486l-5.4 14-3.84-14.5z" fill="#e7ad52"/><path d="M446.84 485.1l-5.77 14.9h-2.1l-4.13-15.57zm-6.66 11.67l3.8-9.84-6.5-.36z" fill="#e7ad52"/><path d="M540 300l.03 1.3.08 1.24.13 1.2.18 1.2.23 1.17.27 1.16.32 1.14.37 1.14.4 1.13.5 1.13.52 1.14.6 1.15.68 1.16.76 1.2.84 1.2.96 1.27 1.07 1.3 1.22 1.35 1.4 1.42 1.6 1.5 1.83 1.6 2.17 1.7 2.58 1.87 3.13 2.08 3.9 2.36 5.14 2.83 7.38 3.65 15.8 6.94 27.64 11.9 7.38 3.65 5.13 2.82 3.9 2.35 3.14 2.08 2.58 1.87 2.17 1.7 1.84 1.6 1.6 1.5 1.4 1.42 1.2 1.35 1.08 1.3.96 1.26.84 1.22.76 1.2.68 1.16.6 1.16.53 1.14.5 1.13.4 1.13.38 1.14.32 1.14.27 1.15.22 1.16.17 1.2.12 1.2.07 1.25.03 1.3" stroke="#e7ad52" stroke-width="2" fill="none"/><path d="M539.03 300.26l-.06-.26H540zM660 400l-8.1-12.62 8.96-2.36z" fill="#e7ad52"/><path d="M661 400h-2.2l-8.5-13.24 11.63-3.05zm-7.52-12l5.7 8.87.6-10.53z" fill="#e7ad52"/><path d="M540 300v.4l.03.38.04.4.06.37.07.4.1.38.1.4.14.4.15.4.17.43.2.43.23.43.26.45.3.48.35.5.4.5.46.56.52.58.6.6.7.67.83.7.98.78 1.16.84 1.4.92 1.7 1.03 2.1 1.15 2.65 1.32 3.4 1.5 4.48 1.78 6.1 2.1 8.63 2.6 13 3.3 21.4 4.52 43.46 7.2L867.3 368.3l21.4 4.5 13 3.32 8.63 2.6 6.1 2.1 4.48 1.77 3.4 1.5 2.66 1.33 2.1 1.15 1.7 1.03 1.4.93 1.16.85.97.77.82.7.7.67.6.6.52.58.46.55.4.52.34.5.3.47.26.45.23.44.2.44.18.42.16.4.13.4.1.4.1.4.07.4.06.37.04.4.02.38v.4" stroke="#e7ad52" stroke-width="2" fill="none"/><path d="M539.18 300.58l-.4-.58H540zM940 400l-12-9 7.6-5.34z" fill="#e7ad52"/><path d="M941.05 400h-2.7l-12.04-9.04 9.84-6.9zm-11.34-8.98l8.44 6.33-3.1-10.08z" fill="#e7ad52"/><path d="M800 300l-.02 1.1-.07 1.1-.1 1.04-.15 1.04-.2 1.02-.24 1-.27 1-.32 1.02-.37 1-.42 1-.47 1.03-.54 1.03-.62 1.05-.68 1.08-.77 1.1-.86 1.15-.98 1.18-1.12 1.23-1.26 1.3-1.45 1.35-1.67 1.45-1.96 1.55-2.3 1.68-2.78 1.84-3.4 2.05-4.27 2.34-5.62 2.8-7.96 3.52-14.3 5.62-43.94 16.34-7.96 3.53-5.6 2.8-4.28 2.33-3.4 2.05-2.77 1.84-2.3 1.68-1.97 1.55-1.67 1.44-1.45 1.35-1.26 1.3-1.1 1.22-1 1.18-.85 1.14-.77 1.1-.68 1.07-.6 1.05-.55 1.03-.48 1.02-.43 1-.38 1-.33 1.02-.28 1-.25 1-.2 1.02-.15 1.04-.1 1.05-.08 1.1-.02 1.1" stroke="#e7ad52" stroke-width="2" fill="none"/><path d="M800.96 300.3l-.96-.3h1.05zM668.56 387.68L660 400l-.3-15z" fill="#e7ad52"/><path d="M670.17 387.13L661.22 400H659l-.34-16.35zm-9.23 9.77l6.02-8.66-6.24-1.88z" fill="#e7ad52"/><path d="M800 300l.02 1.1.07 1.1.1 1.04.15 1.04.2 1.02.24 1 .27 1 .32 1.02.37 1 .42 1 .47 1.03.54 1.03.62 1.05.68 1.08.77 1.1.86 1.15.98 1.18 1.12 1.23 1.26 1.3 1.45 1.35 1.67 1.45 1.96 1.55 2.3 1.68 2.78 1.84 3.4 2.05 4.27 2.34 5.62 2.8 7.96 3.52 14.3 5.62 43.94 16.34 7.96 3.53 5.6 2.8 4.28 2.33 3.4 2.05 2.77 1.84 2.3 1.68 1.97 1.55 1.67 1.44 1.45 1.35 1.26 1.3 1.1 1.22 1 1.18.85 1.14.77 1.1.68 1.07.6 1.05.55 1.03.48 1.02.43 1 .38 1 .33 1.02.28 1 .25 1 .2 1.02.15 1.04.1 1.05.08 1.1.02 1.1" stroke="#e7ad52" stroke-width="2" fill="none"/><path d="M799.04 300.3l-.1-.3H800zM940 400l-8.56-12.32 8.87-2.68z" fill="#e7ad52"/><path d="M941 400h-2.22l-8.95-12.87 11.5-3.48zm-7.96-11.76l6.02 8.66.22-10.54z" fill="#e7ad52"/><path d="M360 180v.35l-.03.35-.04.34-.05.34-.06.35-.08.34-.1.34-.1.36-.14.35-.15.37-.18.37-.2.37-.2.4-.27.4-.3.4-.3.44-.4.46-.42.47-.5.5-.56.54-.66.58-.78.62-.93.67-1.1.73-1.34.8-1.63.9-2.06 1.03-2.62 1.17-3.46 1.37-4.75 1.64-6.88 2.08-11.16 2.84-27.62 5.72-49.46 9.84-11.15 2.84-6.87 2.07-4.75 1.63-3.46 1.37-2.63 1.17-2.07 1.02-1.64.9-1.35.8-1.1.73-.93.67-.78.62-.66.57-.57.53-.48.5-.43.47-.4.46-.3.43-.3.4-.26.4-.22.4-.2.36-.17.37-.15.36-.13.34-.1.35-.1.33-.1.34-.05.35-.05.34-.04.34-.02.35v.35" stroke="#e7ad52" stroke-width="2" fill="none"/><path d="M360.78 180.62L360 180h1.28zM212.5 231.7L200 240l5.24-14.06z" fill="#e7ad52"/><path d="M214.2 231.78L201.8 240h-2.87l5.85-15.7zm-12.2 5.7l8.8-5.85-5.1-4.05z" fill="#e7ad52"/><path d="M360 180v.3l.03.32.03.3.04.3.06.32.07.3.1.32.1.3.1.33.15.3.15.34.18.34.2.35.24.37.27.37.3.4.35.4.4.44.44.48.5.5.63.5.7.58.87.62 1.02.68 1.24.75 1.53.85 1.9.94 2.44 1.08 3.22 1.27 4.38 1.52 6.26 1.88 9.74 2.48 18.18 3.8 86.54 15.74 9.74 2.48 6.26 1.88 4.38 1.52 3.22 1.27 2.44 1.1 1.9.93 1.54.84 1.24.74 1.02.68.86.62.7.57.63.53.5.5.46.46.4.42.34.4.3.4.26.38.23.37.2.35.17.34.15.33.14.3.12.33.1.3.1.32.06.3.06.32.04.3.03.3.02.32v.3" stroke="#e7ad52" stroke-width="2" fill="none"/><path d="M359.24 180.65l-.56-.65H360zM540 240l-12.8-7.8 7.02-6.04z" fill="#e7ad52"/><path d="M541.08 240h-3l-12.6-7.66 9.13-7.84zm-12.2-7.94l9 5.5-4.05-9.75z" fill="#e7ad52"/><path d="M540 80v.28l-.03.14-.02.13-.02.14-.04.13-.05.14-.04.15-.05.15-.06.15-.08.15-.1.16-.08.16-.1.16-.13.18-.14.2-.16.2-.2.2-.2.22-.27.24-.3.26-.35.28-.43.3-.5.35-.64.37-.76.43-.98.48-1.26.56-1.66.66-2.27.78-3.2.97-4.82 1.23-7.85 1.65-14.94 2.48-111.46 14.27-7.85 1.65-4.8 1.23-3.22.97-2.27.78-1.66.66-1.26.56-.98.48-.77.43-.64.38-.5.35-.44.3-.35.3-.3.25-.26.24-.2.22-.2.2-.16.2-.15.2-.13.18-.1.17-.1.17-.1.16-.06.15-.05.15-.06.15-.05.15-.04.14-.03.14-.02.15-.02.13-.02.14v.28" stroke="#e7ad52" stroke-width="2" fill="none"/><path d="M540.56 80.83L540 80h1.77zM374.4 115.78L360 120l9.17-11.87z" fill="#e7ad52"/><path d="M376 116.36L363.56 120h-4.82l10.48-13.57zm-13.33 1.8l10.12-2.95-3.68-5.37z" fill="#e7ad52"/><defs><path fill="#e5e5e5" d="M188 0C127 1 82-61 96-128c102-498 136-682 239-1056 16-58 29-97 39-118 39-81 152-87 186 3 8 21 18 60 27 118 29 181 79 412 149 693 44-195 133-594 228-824 15-37 48-53 86-53 50 0 89 31 100 97 19 117 18 225 53 381 45 201 158 605 162 785 1 54-41 102-95 102-46 0-83-20-96-65-38-130-44-258-87-432-40-161-61-264-70-309-35 138-86 345-147 622-13 58-23 96-30 117-29 83-132 87-176 19-11-18-25-49-39-97-63-219-122-453-173-703-35 145-85 365-140 660-11 60-19 101-29 123-20 43-51 65-95 65" id="o"/><path fill="#e5e5e5" d="M609-1364c323 0 519 229 519 557 0 183-51 357-152 522C860-95 716 0 544 0 271 0 97-283 97-570c0-191 38-362 113-512 95-188 228-282 399-282zm319 550c0-231-116-347-349-347-81 0-151 81-210 243-48 132-72 248-72 348 0 161 47 272 142 333 35 23 69 34 100 34 113 0 208-76 287-229 68-131 102-258 102-382" id="p"/><path fill="#e5e5e5" d="M829-1263c0-55 42-106 96-102 141 10 133 224 150 372 25 219 36 341 36 365 0 117-18 227-55 328C983-97 875 5 732 5 532 5 402-187 343-570c-16 123-24 243-24 360C319-70 282 0 207 0c-53 0-99-44-99-97 0-315 85-1025 186-1197 27-46 56-71 93-71 53 0 88 33 105 99 5 21 8 92 8 213 0 153 26 313 55 481 43 253 101 379 172 379 116 0 183-303 183-438 0-120-81-513-81-632" id="q"/><path fill="#e5e5e5" d="M621-594c163 0 326 124 326 282S736 5 573 0C387-6 235-158 176-307c-32-81-50-172-50-277 0-291 84-515 251-672 123-114 255-148 401-60 53 32 90 76 121 123 44 67-17 153-85 152-24 0-53-21-88-61s-68-60-100-60c-180 0-298 367-298 568 0 189 80 393 249 393 76 0 150-57 167-118-25-60-81-80-164-74-50 4-95-50-95-100 0-67 45-101 136-101" id="r"/><path fill="#e5e5e5" d="M387-1365c369 0 678 217 678 573 0 172-83 346-249 522C647-90 478 0 307 0 194 0 137-80 137-239c0-257 30-558 68-915-53-11-80-43-80-95 0-56 32-93 97-108 26-6 81-8 165-8zm21 204c-15 76-47 491-72 917 0 13 1 27 2 41 116-22 231-92 346-210 120-123 180-241 180-355-1-196-67-277-209-343-74-35-157-50-247-50" id="s"/><path fill="#e5e5e5" d="M111-254c0-80 75-479 73-483 3-23 17-167 40-434-41-20-62-51-62-94 0-67 48-100 145-100 431 0 647 127 647 380 0 161-86 280-258 359 120 81 180 177 180 290 0 173-116 256-272 302C530-12 459 0 391 0 204 0 111-85 111-254zm642-722c0-105-210-177-326-186-9 140-24 282-43 426 246-59 369-139 369-240zm-77 638c-27-89-136-153-326-193-27 162-48 229-34 323 82 18 157 3 237-24 75-26 116-61 123-106" id="t"/><g id="a"><use transform="matrix(0.0087890625,0,0,0.0087890625,0,0)" xlink:href="#o"/><use transform="matrix(0.0087890625,0,0,0.0087890625,12.884765625,0)" xlink:href="#p"/><use transform="matrix(0.0087890625,0,0,0.0087890625,23.607421875,0)" xlink:href="#q"/><use transform="matrix(0.0087890625,0,0,0.0087890625,34.365234375,0)" xlink:href="#r"/><use transform="matrix(0.0087890625,0,0,0.0087890625,43.8134765625,0)" xlink:href="#p"/><use transform="matrix(0.0087890625,0,0,0.0087890625,54.5361328125,0)" xlink:href="#s"/><use transform="matrix(0.0087890625,0,0,0.0087890625,64.494140625,0)" xlink:href="#t"/></g><path fill="#e5e5e5" d="M777-672c57 0 100 48 100 105 0 58-42 105-100 104-73-2-320 16-393 16-130 0-195-37-195-111 0-50 47-104 98-104 25 0 103 5 128 5 66 0 296-15 362-15" id="u"/><path fill="#e5e5e5" d="M270-1365c53 0 101 46 100 99-5 357-80 777-80 1073C290-64 254 0 183 0 132 0 82-50 82-101c0-298 47-662 55-976 2-76 19-138 34-189 19-66 52-99 99-99" id="v"/><path fill="#e5e5e5" d="M46-1227c0-128 188-119 328-120 79-1 391-35 488-35 99 0 148 35 148 105 0 65-48 98-145 98-76 0-153 3-232 8 1 179-14 796-13 976C622-79 604-4 510 0c-53 2-99-44-99-97v-270c21-312 24-505 22-785-143 13-240 20-291 20-64 0-96-32-96-95" id="w"/><g id="b"><use transform="matrix(0.0087890625,0,0,0.0087890625,0,0)" xlink:href="#o"/><use transform="matrix(0.0087890625,0,0,0.0087890625,12.884765625,0)" xlink:href="#p"/><use transform="matrix(0.0087890625,0,0,0.0087890625,23.607421875,0)" xlink:href="#q"/><use transform="matrix(0.0087890625,0,0,0.0087890625,34.365234375,0)" xlink:href="#r"/><use transform="matrix(0.0087890625,0,0,0.0087890625,43.8134765625,0)" xlink:href="#p"/><use transform="matrix(0.0087890625,0,0,0.0087890625,54.5361328125,0)" xlink:href="#u"/><use transform="matrix(0.0087890625,0,0,0.0087890625,63.9580078125,0)" xlink:href="#v"/><use transform="matrix(0.0087890625,0,0,0.0087890625,67.869140625,0)" xlink:href="#q"/><use transform="matrix(0.0087890625,0,0,0.0087890625,78.626953125,0)" xlink:href="#v"/><use transform="matrix(0.0087890625,0,0,0.0087890625,82.5380859375,0)" xlink:href="#w"/></g><path fill="#e5e5e5" d="M922-654c-9 182 20 369 29 555 5 90-140 139-183 58-2-3-13-31-31-85-54-160-191-263-414-306-19 75-30 243-58 360-12 50-51 72-98 72-55 0-99-53-99-108 1-366 195-896 360-1117 69-92 141-140 222-140 182 0 273 207 273 621 0 19 1 49-1 90zM724-476v-400c-20-103-13-145-35-225-11-40-25-60-40-60-32 0-83 65-154 195-56 103-99 215-130 336 137 27 256 79 359 154" id="x"/><path fill="#e5e5e5" d="M807-1260c0-54 40-105 96-105 43 0 76 24 99 73 18 39 27 131 27 277 0 274-20 485-61 631C895-128 757 0 555 0 385 0 262-90 189-270c-51-126-76-289-76-488 0-289 18-467 53-534 26-49 59-73 99-73 52 0 105 52 99 104-14 128-48 300-48 513 0 128 14 239 41 332 41 144 108 216 201 216 105 0 179-98 225-293 29-124 45-265 45-422 0-66-21-279-21-345" id="y"/><path fill="#e5e5e5" d="M925-1365c50 0 101 48 101 99 0 165-53 833-94 1164C923-33 882 0 831 0c-53 0-101-49-101-102 0-145 29-345 45-490-111 9-252 35-425 78-6 58-9 145-9 260 0 35-10 86-22 153C307-33 270 0 220 0c-53 0-103-48-102-101 6-372 65-764 56-1090-3-108 18-171 108-174 55-2 99 41 99 97v544c167-44 304-66 413-66 7-75 10-182 10-321 8-35 11-88 22-155s48-99 99-99" id="z"/><path fill="#e5e5e5" d="M369 0C201 0 119-119 119-294c0-119 26-272 77-457 80-290 99-377 125-524 7-13 27-26 60-41 71-33 211-49 419-49 129 0 193 36 193 107 0 50-48 105-99 101-142-10-258-9-397 20-11 59-34 158-69 297 146-57 246-85 301-85 53 0 100 43 100 96 0 43-23 80-73 99-127 49-178 54-389 129-29 119-44 224-44 314 0 58 10 87 30 87 66 0 151-30 256-90s173-91 205-91c50 0 101 49 101 99 0 30-19 57-51 87C794-129 500 0 369 0" id="A"/><path fill="#e5e5e5" d="M773-362c52-3 103 50 103 101 0 27-17 56-48 89C762-102 548 0 418 0 210 0 81-204 84-422c3-221 73-486 152-640 103-201 220-303 358-303 167 0 251 128 251 385 0 123-35 185-106 185-48 0-101-46-99-94 2-77 27-278-39-278-46 0-94 47-150 138-89 144-168 415-168 602 0 146 56 219 169 219 46 0 106-26 180-77s122-77 141-77" id="B"/><g id="c"><use transform="matrix(0.0087890625,0,0,0.0087890625,0,0)" xlink:href="#x"/><use transform="matrix(0.0087890625,0,0,0.0087890625,9.38671875,0)" xlink:href="#y"/><use transform="matrix(0.0087890625,0,0,0.0087890625,19.40625,0)" xlink:href="#w"/><use transform="matrix(0.0087890625,0,0,0.0087890625,28.705078125,0)" xlink:href="#z"/><use transform="matrix(0.0087890625,0,0,0.0087890625,38.7421875,0)" xlink:href="#A"/><use transform="matrix(0.0087890625,0,0,0.0087890625,48.5244140625,0)" xlink:href="#q"/><use transform="matrix(0.0087890625,0,0,0.0087890625,59.2822265625,0)" xlink:href="#w"/><use transform="matrix(0.0087890625,0,0,0.0087890625,68.5810546875,0)" xlink:href="#v"/><use transform="matrix(0.0087890625,0,0,0.0087890625,72.4921875,0)" xlink:href="#B"/><use transform="matrix(0.0087890625,0,0,0.0087890625,81,0)" xlink:href="#x"/><use transform="matrix(0.0087890625,0,0,0.0087890625,90.38671875,0)" xlink:href="#w"/><use transform="matrix(0.0087890625,0,0,0.0087890625,99.685546875,0)" xlink:href="#v"/><use transform="matrix(0.0087890625,0,0,0.0087890625,103.5966796875,0)" xlink:href="#p"/><use transform="matrix(0.0087890625,0,0,0.0087890625,114.3193359375,0)" xlink:href="#q"/></g><path fill="#e5e5e5" d="M759-451c68-46 151 19 151 87 0 27-17 54-48 86C767-182 491 0 329 0 186 0 114-109 114-326c0-169 46-507 46-695 0-139-8-341 120-344 53-2 103 46 101 99-4-2-27 472-40 636-16 198-27 312-27 343 0 57 11 86 32 86 61 0 169-62 325-185 19-16 49-38 88-65" id="C"/><g id="d"><use transform="matrix(0.0087890625,0,0,0.0087890625,0,0)" xlink:href="#B"/><use transform="matrix(0.0087890625,0,0,0.0087890625,8.5078125,0)" xlink:href="#z"/><use transform="matrix(0.0087890625,0,0,0.0087890625,18.544921875,0)" xlink:href="#x"/><use transform="matrix(0.0087890625,0,0,0.0087890625,27.931640625,0)" xlink:href="#q"/><use transform="matrix(0.0087890625,0,0,0.0087890625,38.689453125,0)" xlink:href="#r"/><use transform="matrix(0.0087890625,0,0,0.0087890625,47.900390625,0)" xlink:href="#A"/><use transform="matrix(0.0087890625,0,0,0.0087890625,57.6826171875,0)" xlink:href="#C"/><use transform="matrix(0.0087890625,0,0,0.0087890625,65.7333984375,0)" xlink:href="#p"/><use transform="matrix(0.0087890625,0,0,0.0087890625,76.4560546875,0)" xlink:href="#r"/></g><path fill="#e5e5e5" d="M432-1365c342 0 623 232 623 568 0 219-132 374-395 466 145 90 217 167 217 230 0 52-52 98-104 96-17 0-39-10-66-29-90-65-203-166-304-203v78C403-53 368 0 299 0c-53 0-99-44-99-97v-374c17-145 25-361 25-650-2 5-10 7-24 7-53 2-99-46-99-99 0-112 194-152 330-152zm257 786c221-128 209-317 21-469-89-71-178-111-268-119-1 97-2 329-2 698 90-27 172-66 249-110" id="D"/><g id="e"><use transform="matrix(0.0087890625,0,0,0.0087890625,0,0)" xlink:href="#x"/><use transform="matrix(0.0087890625,0,0,0.0087890625,9.38671875,0)" xlink:href="#s"/><use transform="matrix(0.0087890625,0,0,0.0087890625,19.3447265625,0)" xlink:href="#u"/><use transform="matrix(0.0087890625,0,0,0.0087890625,28.7666015625,0)" xlink:href="#s"/><use transform="matrix(0.0087890625,0,0,0.0087890625,38.724609375,0)" xlink:href="#v"/><use transform="matrix(0.0087890625,0,0,0.0087890625,42.6357421875,0)" xlink:href="#D"/><use transform="matrix(0.0087890625,0,0,0.0087890625,52.611328125,0)" xlink:href="#A"/><use transform="matrix(0.0087890625,0,0,0.0087890625,62.3935546875,0)" xlink:href="#B"/><use transform="matrix(0.0087890625,0,0,0.0087890625,70.9013671875,0)" xlink:href="#w"/><use transform="matrix(0.0087890625,0,0,0.0087890625,80.2001953125,0)" xlink:href="#p"/><use transform="matrix(0.0087890625,0,0,0.0087890625,90.9228515625,0)" xlink:href="#D"/></g><g id="f"><use transform="matrix(0.0087890625,0,0,0.0087890625,0,0)" xlink:href="#x"/><use transform="matrix(0.0087890625,0,0,0.0087890625,9.38671875,0)" xlink:href="#s"/><use transform="matrix(0.0087890625,0,0,0.0087890625,19.3447265625,0)" xlink:href="#u"/><use transform="matrix(0.0087890625,0,0,0.0087890625,28.7666015625,0)" xlink:href="#s"/><use transform="matrix(0.0087890625,0,0,0.0087890625,38.724609375,0)" xlink:href="#v"/><use transform="matrix(0.0087890625,0,0,0.0087890625,42.6357421875,0)" xlink:href="#D"/><use transform="matrix(0.0087890625,0,0,0.0087890625,52.611328125,0)" xlink:href="#A"/><use transform="matrix(0.0087890625,0,0,0.0087890625,62.3935546875,0)" xlink:href="#B"/><use transform="matrix(0.0087890625,0,0,0.0087890625,70.9013671875,0)" xlink:href="#w"/><use transform="matrix(0.0087890625,0,0,0.0087890625,80.2001953125,0)" xlink:href="#p"/><use transform="matrix(0.0087890625,0,0,0.0087890625,90.9228515625,0)" xlink:href="#D"/></g><path fill="#e5e5e5" d="M920-744c0 218 15 427 27 645 5 89-139 139-182 58-3-3-13-32-31-85-53-161-192-263-415-306-18 75-30 243-58 360-12 50-50 72-97 72-56 0-99-53-99-108 1-367 194-896 360-1117 69-92 141-140 222-140 182 0 273 207 273 621zM720-476v-400c-19-103-12-145-34-225-11-40-25-60-41-60-32 0-83 65-153 195-56 103-99 215-130 336 137 27 256 79 358 154" id="E"/><path fill="#e5e5e5" d="M488-1365c273 0 550 113 550 360 0 140-81 265-244 374-130 87-276 146-439 180-8 56-16 299-32 372-12 53-47 79-94 79-53 0-99-48-99-101 0-200 54-864 49-1044-37-23-56-56-56-99 0-39 25-69 73-90s145-31 292-31zm348 355c0-132-280-161-454-151-1 136-1 303-1 501 100-31 192-72 276-122 119-70 179-146 179-228" id="F"/><path fill="#e5e5e5" d="M203-1149c-53 2-102-44-102-97 0-81 83-121 249-121 26 1 80 3 114 2 148 0 222 37 222 111 0 53-48 102-101 100-20 0-52-3-97-8-28 489-22 541-22 947 76-15 142 28 142 94 0 49-23 87-72 99-75 18-199 39-326 61-50 9-91-53-91-102 0-61 53-101 159-120-24-480-18-487 7-976-34 7-61 10-82 10" id="G"/><g id="g"><use transform="matrix(0.0087890625,0,0,0.0087890625,0,0)" xlink:href="#E"/><use transform="matrix(0.0087890625,0,0,0.0087890625,9.28125,0)" xlink:href="#F"/><use transform="matrix(0.0087890625,0,0,0.0087890625,18.59765625,0)" xlink:href="#G"/></g><path fill="#e5e5e5" d="M379-1365c368 0 677 218 677 573 0 172-83 346-249 522C639-90 470 0 299 0 185 0 128-80 128-239c0-257 31-558 68-915-53-11-80-43-80-95 0-56 32-93 97-108 26-6 82-8 166-8zm20 204c-15 77-48 489-71 917 0 13 0 27 1 41 116-22 232-92 347-210 119-123 179-241 179-355-1-195-66-277-208-343-75-35-158-50-248-50" id="H"/><g id="h"><use transform="matrix(0.0087890625,0,0,0.0087890625,0,0)" xlink:href="#E"/><use transform="matrix(0.0087890625,0,0,0.0087890625,9.0703125,0)" xlink:href="#s"/><use transform="matrix(0.0087890625,0,0,0.0087890625,19.0283203125,0)" xlink:href="#u"/><use transform="matrix(0.0087890625,0,0,0.0087890625,28.4501953125,0)" xlink:href="#H"/><use transform="matrix(0.0087890625,0,0,0.0087890625,38.2939453125,0)" xlink:href="#v"/><use transform="matrix(0.0087890625,0,0,0.0087890625,42.205078125,0)" xlink:href="#D"/><use transform="matrix(0.0087890625,0,0,0.0087890625,52.1806640625,0)" xlink:href="#A"/><use transform="matrix(0.0087890625,0,0,0.0087890625,61.962890625,0)" xlink:href="#B"/><use transform="matrix(0.0087890625,0,0,0.0087890625,70.470703125,0)" xlink:href="#w"/><use transform="matrix(0.0087890625,0,0,0.0087890625,79.76953125,0)" xlink:href="#p"/><use transform="matrix(0.0087890625,0,0,0.0087890625,90.4921875,0)" xlink:href="#D"/></g><g id="i"><use transform="matrix(0.0087890625,0,0,0.0087890625,0,0)" xlink:href="#x"/><use transform="matrix(0.0087890625,0,0,0.0087890625,9.38671875,0)" xlink:href="#C"/><use transform="matrix(0.0087890625,0,0,0.0087890625,17.4375,0)" xlink:href="#C"/><use transform="matrix(0.0087890625,0,0,0.0087890625,25.48828125,0)" xlink:href="#u"/><use transform="matrix(0.0087890625,0,0,0.0087890625,34.91015625,0)" xlink:href="#v"/><use transform="matrix(0.0087890625,0,0,0.0087890625,38.8212890625,0)" xlink:href="#q"/><use transform="matrix(0.0087890625,0,0,0.0087890625,49.5791015625,0)" xlink:href="#u"/><use transform="matrix(0.0087890625,0,0,0.0087890625,59.0009765625,0)" xlink:href="#p"/><use transform="matrix(0.0087890625,0,0,0.0087890625,69.7236328125,0)" xlink:href="#q"/><use transform="matrix(0.0087890625,0,0,0.0087890625,80.4814453125,0)" xlink:href="#A"/></g><path fill="#e5e5e5" d="M492-1365c272 0 549 114 549 360 0 140-81 265-244 374-130 87-276 146-439 180-7 56-15 301-32 372-12 53-46 79-94 79-53 0-99-48-99-101 0-201 55-864 50-1044-38-23-57-56-57-99 0-39 24-69 72-90s147-31 294-31zm348 355c0-132-280-161-454-151-1 136-2 303-2 501 100-31 192-72 276-122 120-70 180-146 180-228" id="I"/><path fill="#e5e5e5" d="M172-1273c0-51 55-92 106-92 37 0 64 24 92 68 37 59 126 327 147 375 45-73 86-148 133-220 69-105 130-155 174-155 52 0 105 52 103 104-20 75-241 385-311 490 18 36 85 160 200 372 65 118 97 196 97 234 1 55-42 97-97 97-43 0-105-70-183-212-15-28-60-122-136-281-43 69-136 292-221 411-25 35-56 50-87 50-84 0-113-73-88-151 12-39 108-216 290-529-146-314-219-501-219-561" id="J"/><path fill="#e5e5e5" d="M534 0c-54 1-104-40-104-96 0-45 18-79 58-93 38-13 78-19 114-33 139-52 207-229 207-522-71 158-178 237-321 237-171 0-289-87-355-261-43-114-65-273-65-478 0-79 34-119 101-119 58 0 96 44 106 134 10 91 12 183 22 275 13 113 52 188 113 226 57 35 92 27 153-4 115-60 203-251 231-413 5-26 9-65 25-113s51-71 94-71c48 0 84 32 102 97 48 177 15 638-17 760-49 186-136 325-271 414C667-20 603 0 534 0" id="K"/><g id="j"><use transform="matrix(0.0087890625,0,0,0.0087890625,0,0)" xlink:href="#I"/><use transform="matrix(0.0087890625,0,0,0.0087890625,9.3427734375,0)" xlink:href="#D"/><use transform="matrix(0.0087890625,0,0,0.0087890625,19.318359375,0)" xlink:href="#p"/><use transform="matrix(0.0087890625,0,0,0.0087890625,29.6806640625,0)" xlink:href="#J"/><use transform="matrix(0.0087890625,0,0,0.0087890625,38.6630859375,0)" xlink:href="#K"/></g><g id="k"><use transform="matrix(0.0087890625,0,0,0.0087890625,0,0)" xlink:href="#G"/><use transform="matrix(0.0087890625,0,0,0.0087890625,6.662109375,0)" xlink:href="#q"/><use transform="matrix(0.0087890625,0,0,0.0087890625,17.419921875,0)" xlink:href="#w"/><use transform="matrix(0.0087890625,0,0,0.0087890625,26.71875,0)" xlink:href="#A"/><use transform="matrix(0.0087890625,0,0,0.0087890625,36.2900390625,0)" xlink:href="#r"/><use transform="matrix(0.0087890625,0,0,0.0087890625,45.73828125,0)" xlink:href="#D"/><use transform="matrix(0.0087890625,0,0,0.0087890625,55.564453125,0)" xlink:href="#x"/><use transform="matrix(0.0087890625,0,0,0.0087890625,64.951171875,0)" xlink:href="#w"/><use transform="matrix(0.0087890625,0,0,0.0087890625,74.25,0)" xlink:href="#v"/><use transform="matrix(0.0087890625,0,0,0.0087890625,78.1611328125,0)" xlink:href="#p"/><use transform="matrix(0.0087890625,0,0,0.0087890625,88.8837890625,0)" xlink:href="#q"/></g><path fill="#e5e5e5" d="M196-1063c0-251 371-378 608-255 71 37 119 87 150 151 35 73-14 152-87 150-26 0-63-25-111-73s-102-72-162-72c-72 0-200 37-200 99 0 43 47 111 142 203 145 142 234 232 266 271 95 116 142 225 142 328C944-95 791 0 613 0 494 0 170-60 118-111c-29-29-48-55-48-87-1-69 67-120 140-92h-2c162 59 305 89 429 89 69 0 104-25 104-75 0-69-47-151-142-245-86-86-177-167-261-254-98-100-142-199-142-288" id="L"/><g id="l"><use transform="matrix(0.0087890625,0,0,0.0087890625,0,0)" xlink:href="#w"/><use transform="matrix(0.0087890625,0,0,0.0087890625,9.298828125,0)" xlink:href="#A"/><use transform="matrix(0.0087890625,0,0,0.0087890625,19.0810546875,0)" xlink:href="#L"/><use transform="matrix(0.0087890625,0,0,0.0087890625,28.4853515625,0)" xlink:href="#w"/></g><path fill="#e5e5e5" d="M925-1365c52 0 103 46 101 97 0 23-38 113-113 270-125 261-227 519-304 774-21 71-38 117-49 139-29 57-63 85-104 85-109-1-156-321-181-456-30-165-184-659-203-805-7-52 44-104 97-104 40 0 72 25 99 73 46 84 66 250 92 370 23 106 68 262 121 471 71-167 173-418 306-754 20-51 35-86 46-104 25-37 55-56 92-56" id="M"/><g id="m"><use transform="matrix(0.0087890625,0,0,0.0087890625,0,0)" xlink:href="#A"/><use transform="matrix(0.0087890625,0,0,0.0087890625,9.7822265625,0)" xlink:href="#q"/><use transform="matrix(0.0087890625,0,0,0.0087890625,20.390625,0)" xlink:href="#M"/></g><g id="n"><use transform="matrix(0.0087890625,0,0,0.0087890625,0,0)" xlink:href="#w"/><use transform="matrix(0.0087890625,0,0,0.0087890625,9.298828125,0)" xlink:href="#A"/><use transform="matrix(0.0087890625,0,0,0.0087890625,19.0810546875,0)" xlink:href="#L"/><use transform="matrix(0.0087890625,0,0,0.0087890625,28.4853515625,0)" xlink:href="#w"/></g></defs></g></svg>