<svg xmlns="http://www.w3.org/2000/svg" xmlns:xlink="http://www.w3.org/1999/xlink" xmlns:lucid="lucid" width="739" height="424"><g transform="translate(-100 -52)" lucid:page-tab-id="SbsvrFWIsTyf"><path d="M282.44 98h95.44v74H120.44V72h154zm-162 0h162" stroke="#e7ad52" stroke-width="2" fill="none"/><use xlink:href="#a" transform="matrix(1,0,0,1,128.4401913875597,72) translate(0 18.10205078125)"/><path d="M139.44 114h220v40h-220z" stroke="#e7ad52" stroke-width="2" fill="none"/><use xlink:href="#b" transform="matrix(1,0,0,1,144.4401913875597,119) translate(79.8984375 20.10205078125)"/><path d="M724 190h95v174H561.56V164H716zm-162.44 0H724" stroke="#e7ad52" stroke-width="2" fill="none"/><use xlink:href="#c" transform="matrix(1,0,0,1,569.5598086124403,164) translate(0 18.10205078125)"/><use xlink:href="#d" transform="matrix(1,0,0,1,569.5598086124403,164) translate(62.9736328125 18.10205078125)"/><path d="M580.56 306h220v40h-220z" stroke="#e7ad52" stroke-width="2" fill="none"/><use xlink:href="#e" transform="matrix(1,0,0,1,585.5598086124403,311) translate(92.3701171875 20.10205078125)"/><path d="M580.56 256h220v40h-220z" stroke="#e7ad52" stroke-width="2" fill="none"/><use xlink:href="#f" transform="matrix(1,0,0,1,585.5598086124403,261) translate(52.41064453125 20.10205078125)"/><use xlink:href="#g" transform="matrix(1,0,0,1,585.5598086124403,261) translate(89.72021484375 20.10205078125)"/><path d="M580.56 206h220v40h-220z" stroke="#e7ad52" stroke-width="2" fill="none"/><use xlink:href="#h" transform="matrix(1,0,0,1,585.5598086124403,211) translate(34.37109375 20.10205078125)"/><use xlink:href="#i" transform="matrix(1,0,0,1,585.5598086124403,211) translate(89.865234375 20.10205078125)"/><path d="M282 240h95.44v74H120V214h154zm-162 0h162" stroke="#e7ad52" stroke-width="2" fill="none"/><use xlink:href="#a" transform="matrix(1,0,0,1,128,214) translate(0 18.10205078125)"/><path d="M139 256h220v40H139z" stroke="#e7ad52" stroke-width="2" fill="none"/><use xlink:href="#j" transform="matrix(1,0,0,1,144,261) translate(52.7490234375 20.10205078125)"/><use xlink:href="#k" transform="matrix(1,0,0,1,144,261) translate(89.8125 20.10205078125)"/><path d="M283.16 382h95v74H120.72V356h154.44zm-162.44 0h162.44" stroke="#e7ad52" stroke-width="2" fill="none"/><g><use xlink:href="#a" transform="matrix(1,0,0,1,128.72009569377985,356) translate(0 18.10205078125)"/></g><path d="M139.72 398h220v40h-220z" stroke="#e7ad52" stroke-width="2" fill="none"/><g><use xlink:href="#e" transform="matrix(1,0,0,1,144.72009569377985,403) translate(92.3701171875 20.10205078125)"/></g><defs><path fill="#ccc" d="M920-744c0 218 15 427 27 645 5 89-139 139-182 58-3-3-13-32-31-85-53-161-192-263-415-306-18 75-30 243-58 360-12 50-50 72-97 72-56 0-99-53-99-108 1-367 194-896 360-1117 69-92 141-140 222-140 182 0 273 207 273 621zM720-476v-400c-19-103-12-145-34-225-11-40-25-60-41-60-32 0-83 65-153 195-56 103-99 215-130 336 137 27 256 79 358 154" id="l"/><path fill="#ccc" d="M387-1365c369 0 678 217 678 573 0 172-83 346-249 522C647-90 478 0 307 0 194 0 137-80 137-239c0-257 30-558 68-915-53-11-80-43-80-95 0-56 32-93 97-108 26-6 81-8 165-8zm21 204c-15 76-47 491-72 917 0 13 1 27 2 41 116-22 231-92 346-210 120-123 180-241 180-355-1-196-67-277-209-343-74-35-157-50-247-50" id="m"/><path fill="#ccc" d="M777-672c57 0 100 48 100 105 0 58-42 105-100 104-73-2-320 16-393 16-130 0-195-37-195-111 0-50 47-104 98-104 25 0 103 5 128 5 66 0 296-15 362-15" id="n"/><path fill="#ccc" d="M379-1365c368 0 677 218 677 573 0 172-83 346-249 522C639-90 470 0 299 0 185 0 128-80 128-239c0-257 31-558 68-915-53-11-80-43-80-95 0-56 32-93 97-108 26-6 82-8 166-8zm20 204c-15 77-48 489-71 917 0 13 0 27 1 41 116-22 232-92 347-210 119-123 179-241 179-355-1-195-66-277-208-343-75-35-158-50-248-50" id="o"/><path fill="#ccc" d="M270-1365c53 0 101 46 100 99-5 357-80 777-80 1073C290-64 254 0 183 0 132 0 82-50 82-101c0-298 47-662 55-976 2-76 19-138 34-189 19-66 52-99 99-99" id="p"/><path fill="#ccc" d="M432-1365c342 0 623 232 623 568 0 219-132 374-395 466 145 90 217 167 217 230 0 52-52 98-104 96-17 0-39-10-66-29-90-65-203-166-304-203v78C403-53 368 0 299 0c-53 0-99-44-99-97v-374c17-145 25-361 25-650-2 5-10 7-24 7-53 2-99-46-99-99 0-112 194-152 330-152zm257 786c221-128 209-317 21-469-89-71-178-111-268-119-1 97-2 329-2 698 90-27 172-66 249-110" id="q"/><path fill="#ccc" d="M369 0C201 0 119-119 119-294c0-119 26-272 77-457 80-290 99-377 125-524 7-13 27-26 60-41 71-33 211-49 419-49 129 0 193 36 193 107 0 50-48 105-99 101-142-10-258-9-397 20-11 59-34 158-69 297 146-57 246-85 301-85 53 0 100 43 100 96 0 43-23 80-73 99-127 49-178 54-389 129-29 119-44 224-44 314 0 58 10 87 30 87 66 0 151-30 256-90s173-91 205-91c50 0 101 49 101 99 0 30-19 57-51 87C794-129 500 0 369 0" id="r"/><path fill="#ccc" d="M773-362c52-3 103 50 103 101 0 27-17 56-48 89C762-102 548 0 418 0 210 0 81-204 84-422c3-221 73-486 152-640 103-201 220-303 358-303 167 0 251 128 251 385 0 123-35 185-106 185-48 0-101-46-99-94 2-77 27-278-39-278-46 0-94 47-150 138-89 144-168 415-168 602 0 146 56 219 169 219 46 0 106-26 180-77s122-77 141-77" id="s"/><path fill="#ccc" d="M46-1227c0-128 188-119 328-120 79-1 391-35 488-35 99 0 148 35 148 105 0 65-48 98-145 98-76 0-153 3-232 8 1 179-14 796-13 976C622-79 604-4 510 0c-53 2-99-44-99-97v-270c21-312 24-505 22-785-143 13-240 20-291 20-64 0-96-32-96-95" id="t"/><path fill="#ccc" d="M609-1364c323 0 519 229 519 557 0 183-51 357-152 522C860-95 716 0 544 0 271 0 97-283 97-570c0-191 38-362 113-512 95-188 228-282 399-282zm319 550c0-231-116-347-349-347-81 0-151 81-210 243-48 132-72 248-72 348 0 161 47 272 142 333 35 23 69 34 100 34 113 0 208-76 287-229 68-131 102-258 102-382" id="u"/><g id="a"><use transform="matrix(0.0087890625,0,0,0.0087890625,0,0)" xlink:href="#l"/><use transform="matrix(0.0087890625,0,0,0.0087890625,9.0703125,0)" xlink:href="#m"/><use transform="matrix(0.0087890625,0,0,0.0087890625,19.0283203125,0)" xlink:href="#n"/><use transform="matrix(0.0087890625,0,0,0.0087890625,28.4501953125,0)" xlink:href="#o"/><use transform="matrix(0.0087890625,0,0,0.0087890625,38.2939453125,0)" xlink:href="#p"/><use transform="matrix(0.0087890625,0,0,0.0087890625,42.205078125,0)" xlink:href="#q"/><use transform="matrix(0.0087890625,0,0,0.0087890625,52.1806640625,0)" xlink:href="#r"/><use transform="matrix(0.0087890625,0,0,0.0087890625,61.962890625,0)" xlink:href="#s"/><use transform="matrix(0.0087890625,0,0,0.0087890625,70.470703125,0)" xlink:href="#t"/><use transform="matrix(0.0087890625,0,0,0.0087890625,79.76953125,0)" xlink:href="#u"/><use transform="matrix(0.0087890625,0,0,0.0087890625,90.4921875,0)" xlink:href="#q"/></g><path fill="#ccc" d="M768-362c52-3 102 50 102 101 0 27-17 56-47 89C758-102 542 0 413 0 205 0 76-203 79-422c3-220 72-486 151-640 103-201 221-303 359-303 167 0 251 128 251 385 0 123-35 185-106 185-48 0-101-46-99-94 2-77 27-279-39-278-99 4-207 230-243 339-48 149-75 282-75 401 0 146 56 219 169 219 45 0 105-26 180-77s122-77 141-77" id="v"/><path fill="#ccc" d="M759-451c68-46 151 19 151 87 0 27-17 54-48 86C767-182 491 0 329 0 186 0 114-109 114-326c0-169 46-507 46-695 0-139-8-341 120-344 53-2 103 46 101 99-4-2-27 472-40 636-16 198-27 312-27 343 0 57 11 86 32 86 61 0 169-62 325-185 19-16 49-38 88-65" id="w"/><path fill="#ccc" d="M829-1263c0-55 42-106 96-102 141 10 133 224 150 372 25 219 36 341 36 365 0 117-18 227-55 328C983-97 875 5 732 5 532 5 402-187 343-570c-16 123-24 243-24 360C319-70 282 0 207 0c-53 0-99-44-99-97 0-315 85-1025 186-1197 27-46 56-71 93-71 53 0 88 33 105 99 5 21 8 92 8 213 0 153 26 313 55 481 43 253 101 379 172 379 116 0 183-303 183-438 0-120-81-513-81-632" id="x"/><g id="b"><use transform="matrix(0.0087890625,0,0,0.0087890625,0,0)" xlink:href="#v"/><use transform="matrix(0.0087890625,0,0,0.0087890625,8.40234375,0)" xlink:href="#w"/><use transform="matrix(0.0087890625,0,0,0.0087890625,16.453125,0)" xlink:href="#p"/><use transform="matrix(0.0087890625,0,0,0.0087890625,20.3642578125,0)" xlink:href="#r"/><use transform="matrix(0.0087890625,0,0,0.0087890625,30.146484375,0)" xlink:href="#x"/><use transform="matrix(0.0087890625,0,0,0.0087890625,40.904296875,0)" xlink:href="#t"/></g><path fill="#ccc" d="M925-1365c50 0 101 48 101 99 0 165-53 833-94 1164C923-33 882 0 831 0c-53 0-101-49-101-102 0-145 29-345 45-490-111 9-252 35-425 78-6 58-9 145-9 260 0 35-10 86-22 153C307-33 270 0 220 0c-53 0-103-48-102-101 6-372 65-764 56-1090-3-108 18-171 108-174 55-2 99 41 99 97v544c167-44 304-66 413-66 7-75 10-182 10-321 8-35 11-88 22-155s48-99 99-99" id="y"/><path fill="#ccc" d="M922-654c-9 182 20 369 29 555 5 90-140 139-183 58-2-3-13-31-31-85-54-160-191-263-414-306-19 75-30 243-58 360-12 50-51 72-98 72-55 0-99-53-99-108 1-366 195-896 360-1117 69-92 141-140 222-140 182 0 273 207 273 621 0 19 1 49-1 90zM724-476v-400c-20-103-13-145-35-225-11-40-25-60-40-60-32 0-83 65-154 195-56 103-99 215-130 336 137 27 256 79 359 154" id="z"/><path fill="#ccc" d="M621-594c163 0 326 124 326 282S736 5 573 0C387-6 235-158 176-307c-32-81-50-172-50-277 0-291 84-515 251-672 123-114 255-148 401-60 53 32 90 76 121 123 44 67-17 153-85 152-24 0-53-21-88-61s-68-60-100-60c-180 0-298 367-298 568 0 189 80 393 249 393 76 0 150-57 167-118-25-60-81-80-164-74-50 4-95-50-95-100 0-67 45-101 136-101" id="A"/><g id="c"><use transform="matrix(0.0087890625,0,0,0.0087890625,0,0)" xlink:href="#s"/><use transform="matrix(0.0087890625,0,0,0.0087890625,8.5078125,0)" xlink:href="#y"/><use transform="matrix(0.0087890625,0,0,0.0087890625,18.544921875,0)" xlink:href="#z"/><use transform="matrix(0.0087890625,0,0,0.0087890625,27.931640625,0)" xlink:href="#x"/><use transform="matrix(0.0087890625,0,0,0.0087890625,38.689453125,0)" xlink:href="#A"/><use transform="matrix(0.0087890625,0,0,0.0087890625,47.900390625,0)" xlink:href="#r"/></g><g id="d"><use transform="matrix(0.0087890625,0,0,0.0087890625,0,0)" xlink:href="#w"/><use transform="matrix(0.0087890625,0,0,0.0087890625,8.05078125,0)" xlink:href="#u"/><use transform="matrix(0.0087890625,0,0,0.0087890625,18.7734375,0)" xlink:href="#A"/></g><path fill="#ccc" d="M488-1365c273 0 550 113 550 360 0 140-81 265-244 374-130 87-276 146-439 180-8 56-16 299-32 372-12 53-47 79-94 79-53 0-99-48-99-101 0-200 54-864 49-1044-37-23-56-56-56-99 0-39 25-69 73-90s145-31 292-31zm348 355c0-132-280-161-454-151-1 136-1 303-1 501 100-31 192-72 276-122 119-70 179-146 179-228" id="B"/><path fill="#ccc" d="M203-1149c-53 2-102-44-102-97 0-81 83-121 249-121 26 1 80 3 114 2 148 0 222 37 222 111 0 53-48 102-101 100-20 0-52-3-97-8-28 489-22 541-22 947 76-15 142 28 142 94 0 49-23 87-72 99-75 18-199 39-326 61-50 9-91-53-91-102 0-61 53-101 159-120-24-480-18-487 7-976-34 7-61 10-82 10" id="C"/><g id="e"><use transform="matrix(0.0087890625,0,0,0.0087890625,0,0)" xlink:href="#l"/><use transform="matrix(0.0087890625,0,0,0.0087890625,9.28125,0)" xlink:href="#B"/><use transform="matrix(0.0087890625,0,0,0.0087890625,18.59765625,0)" xlink:href="#C"/></g><path fill="#ccc" d="M1318-1365c50 0 103 50 100 100-10 151-187 568-251 746-42 119-107 332-145 435-42 112-161 111-205 2-9-23-20-69-34-138-17-86-43-213-76-384-30 121-72 279-128 471-25 85-42 143-123 143-41 0-72-22-91-66-8-19-18-59-29-120-38-220-218-897-246-1087-8-52 45-102 98-102 44 0 77 24 99 73 7 15 11 53 22 113 33 173 101 434 160 701 72-277 121-491 147-642 10-57 20-94 27-114 31-93 161-82 185 7 6 22 10 66 10 133 0 150 44 362 101 635l239-724c8-25 19-62 42-109 25-50 60-73 98-73" id="D"/><path fill="#ccc" d="M111-254c0-80 75-479 73-483 3-23 17-167 40-434-41-20-62-51-62-94 0-67 48-100 145-100 431 0 647 127 647 380 0 161-86 280-258 359 120 81 180 177 180 290 0 173-116 256-272 302C530-12 459 0 391 0 204 0 111-85 111-254zm642-722c0-105-210-177-326-186-9 140-24 282-43 426 246-59 369-139 369-240zm-77 638c-27-89-136-153-326-193-27 162-48 229-34 323 82 18 157 3 237-24 75-26 116-61 123-106" id="E"/><g id="f"><use transform="matrix(0.0087890625,0,0,0.0087890625,0,0)" xlink:href="#D"/><use transform="matrix(0.0087890625,0,0,0.0087890625,13.11328125,0)" xlink:href="#r"/><use transform="matrix(0.0087890625,0,0,0.0087890625,22.8955078125,0)" xlink:href="#E"/></g><path fill="#ccc" d="M922-1365c50 0 100 48 100 99 0 155-55 850-94 1164C919-33 879 0 828 0c-53 0-101-49-101-102 0-145 29-345 44-490-110 9-252 35-425 78-5 58-8 145-8 260 0 35-10 86-22 153C304-33 267 0 217 0c-52 0-104-48-103-101 6-372 66-765 57-1090-3-107 18-171 107-174 56-2 99 41 99 97v544c167-44 305-66 413-66 7-75 10-182 10-321 8-35 12-88 23-155s48-99 99-99" id="F"/><g id="g"><use transform="matrix(0.0087890625,0,0,0.0087890625,0,0)" xlink:href="#F"/><use transform="matrix(0.0087890625,0,0,0.0087890625,9.9580078125,0)" xlink:href="#z"/><use transform="matrix(0.0087890625,0,0,0.0087890625,19.3447265625,0)" xlink:href="#x"/><use transform="matrix(0.0087890625,0,0,0.0087890625,30.1025390625,0)" xlink:href="#m"/><use transform="matrix(0.0087890625,0,0,0.0087890625,40.060546875,0)" xlink:href="#w"/><use transform="matrix(0.0087890625,0,0,0.0087890625,48.111328125,0)" xlink:href="#r"/><use transform="matrix(0.0087890625,0,0,0.0087890625,57.8935546875,0)" xlink:href="#q"/></g><g id="h"><use transform="matrix(0.0087890625,0,0,0.0087890625,0,0)" xlink:href="#v"/><use transform="matrix(0.0087890625,0,0,0.0087890625,8.40234375,0)" xlink:href="#w"/><use transform="matrix(0.0087890625,0,0,0.0087890625,16.453125,0)" xlink:href="#p"/><use transform="matrix(0.0087890625,0,0,0.0087890625,20.3642578125,0)" xlink:href="#r"/><use transform="matrix(0.0087890625,0,0,0.0087890625,30.146484375,0)" xlink:href="#x"/><use transform="matrix(0.0087890625,0,0,0.0087890625,40.904296875,0)" xlink:href="#t"/></g><path fill="#ccc" d="M430-1365c53 0 103 46 101 99 6 2-144 293-135 283-45 115-67 263-67 445 0 89 34 260 81 437C412-48 357 0 305 0 176 0 126-356 126-531c0-295 57-536 171-723 45-74 89-111 133-111" id="G"/><path fill="#ccc" d="M608-1364c322 0 518 229 518 557 0 183-50 357-151 522C858-95 714 0 543 0 269 0 96-283 96-570c0-191 37-362 112-512 94-188 228-282 400-282zm319 550c0-231-117-347-350-347-81 0-151 81-210 243-48 132-72 248-72 348 0 161 47 272 142 333 35 23 69 34 101 34 113 0 207-77 286-229 68-131 103-258 103-382" id="H"/><path fill="#ccc" d="M46-1227c0-128 188-119 328-120 79-1 391-35 488-35 99 0 148 35 148 105 0 65-48 98-145 98-76 0-153 3-232 8 1 179-14 796-13 976C622-79 604-4 510 0c-53 2-99-44-99-97v-270c21-312 24-505 22-785-143 13-240 20-291 20-64 0-96-32-96-95" id="I"/><path fill="#ccc" d="M828-1263c0-55 41-106 95-102 140 10 133 224 150 372 25 219 36 341 36 365 0 117-18 227-54 328C982-97 873 5 730 5 530 5 400-187 341-570c-16 123-24 243-24 360C317-70 280 0 205 0c-53 0-99-44-99-97 0-314 85-1024 186-1197 27-46 56-71 94-71 52 0 87 33 104 99 5 21 8 92 8 213 0 153 26 313 55 481 43 253 101 379 172 379 116 0 183-303 183-438 0-120-80-513-80-632" id="J"/><path fill="#ccc" d="M758-451c66-46 150 20 150 87 0 27-17 54-48 86C767-182 488 0 328 0 185 0 113-109 113-326c0-170 46-508 46-695 0-141-8-341 119-344 53-2 103 46 101 99-3-2-26 472-39 636-16 198-28 312-28 343 0 57 11 86 33 86 60 0 168-62 324-185 19-16 49-38 89-65" id="K"/><path fill="#ccc" d="M218-1263c0-53 53-102 105-102 66 0 117 71 145 216 71 369 11 792-142 1038C281-38 239 0 196 0 144 0 87-46 92-99c2-26 67-122 87-155 105-188 159-578 72-860-24-76-33-126-33-149" id="L"/><g id="i"><use transform="matrix(0.0087890625,0,0,0.0087890625,0,0)" xlink:href="#G"/><use transform="matrix(0.0087890625,0,0,0.0087890625,5.51953125,0)" xlink:href="#H"/><use transform="matrix(0.0087890625,0,0,0.0087890625,16.2158203125,0)" xlink:href="#B"/><use transform="matrix(0.0087890625,0,0,0.0087890625,25.5322265625,0)" xlink:href="#I"/><use transform="matrix(0.0087890625,0,0,0.0087890625,34.8134765625,0)" xlink:href="#C"/><use transform="matrix(0.0087890625,0,0,0.0087890625,41.4755859375,0)" xlink:href="#H"/><use transform="matrix(0.0087890625,0,0,0.0087890625,52.171875,0)" xlink:href="#J"/><use transform="matrix(0.0087890625,0,0,0.0087890625,62.89453125,0)" xlink:href="#l"/><use transform="matrix(0.0087890625,0,0,0.0087890625,72.17578125,0)" xlink:href="#K"/><use transform="matrix(0.0087890625,0,0,0.0087890625,80.2177734375,0)" xlink:href="#L"/></g><path fill="#ccc" d="M362 0C195 0 113-120 113-294c0-119 25-272 76-457 80-290 99-377 125-524 7-13 27-26 60-41 71-33 211-49 420-49 128 0 192 36 192 107 0 50-48 105-99 101-142-10-258-9-397 20-11 59-33 158-68 297 145-57 245-85 300-85 53 0 101 43 101 96 0 43-23 79-74 99-127 49-178 54-389 129-29 119-44 224-44 314 0 58 10 87 30 87 66 0 151-30 256-90s173-91 205-91c51 0 101 49 101 99 0 30-19 57-51 87C788-129 492 0 362 0" id="M"/><path fill="#ccc" d="M104-254c0-80 75-479 73-483 4-23 17-167 40-434-41-20-62-51-62-94 0-67 48-100 145-100 431 0 647 127 647 380 0 161-86 280-258 359 120 81 180 177 180 290 0 173-116 256-272 302C523-12 452 0 384 0 197 0 104-85 104-254zm642-722c0-105-210-177-326-186-9 140-24 282-43 426 246-59 369-139 369-240zm-77 638c-27-89-136-153-326-193-27 162-48 229-34 323 82 18 157 3 237-24 75-26 116-61 123-106" id="N"/><g id="j"><use transform="matrix(0.0087890625,0,0,0.0087890625,0,0)" xlink:href="#D"/><use transform="matrix(0.0087890625,0,0,0.0087890625,13.11328125,0)" xlink:href="#M"/><use transform="matrix(0.0087890625,0,0,0.0087890625,22.7548828125,0)" xlink:href="#N"/></g><path fill="#ccc" d="M430-1365c342 0 623 231 623 568 0 219-131 374-394 466 145 90 217 167 217 230 0 52-53 98-105 96-17 0-39-10-66-29-90-66-201-166-304-203v78C401-53 366 0 297 0c-53 0-99-44-99-97v-374c17-145 26-361 26-650-3 5-11 7-24 7-53 2-99-46-99-99 0-112 193-152 329-152zm258 786c221-128 209-317 20-469-89-71-178-111-268-119-1 97-1 329-1 698 89-27 172-65 249-110" id="O"/><g id="k"><use transform="matrix(0.0087890625,0,0,0.0087890625,0,0)" xlink:href="#F"/><use transform="matrix(0.0087890625,0,0,0.0087890625,9.9580078125,0)" xlink:href="#l"/><use transform="matrix(0.0087890625,0,0,0.0087890625,19.2392578125,0)" xlink:href="#J"/><use transform="matrix(0.0087890625,0,0,0.0087890625,29.9619140625,0)" xlink:href="#o"/><use transform="matrix(0.0087890625,0,0,0.0087890625,39.8056640625,0)" xlink:href="#K"/><use transform="matrix(0.0087890625,0,0,0.0087890625,47.84765625,0)" xlink:href="#M"/><use transform="matrix(0.0087890625,0,0,0.0087890625,57.4892578125,0)" xlink:href="#O"/></g></defs></g></svg>