<svg xmlns="http://www.w3.org/2000/svg" xmlns:xlink="http://www.w3.org/1999/xlink" xmlns:lucid="lucid" width="891" height="476"><g transform="translate(-21.559808612439895 -20)" lucid:page-tab-id="_Z3uDjfjZ6dZ"><path d="M278.3 65.93h74.26V300h-200V40H272.3zm-125.74 0H278.3" stroke="#e7ad52" stroke-width="2" fill="none"/><use xlink:href="#a" transform="matrix(1,0,0,1,160.5598086124399,40) translate(0 18.10205078125)"/><path d="M171.42 84v80h160V84z" stroke="#e7ad52" stroke-width="2" fill="none"/><path d="M321.42 94h-15v20h15z" stroke="#e7ad52" fill="none"/><path d="M311.42 97.33h-10v3.34h10zm0 10h-10v3.34h10z" stroke="#e7ad52" fill="none"/><use xlink:href="#b" transform="matrix(1,0,0,1,171.42344497607627,84) translate(19.446894531249995 36.896484375)"/><use xlink:href="#c" transform="matrix(1,0,0,1,171.42344497607627,84) translate(45.622187499999995 55.4853515625)"/><path d="M172.56 204v80h160v-80z" stroke="#e7ad52" stroke-width="2" fill="none"/><path d="M322.56 214h-15v20h15z" stroke="#e7ad52" fill="none"/><path d="M312.56 217.33h-10v3.34h10zm0 10h-10v3.34h10z" stroke="#e7ad52" fill="none"/><use xlink:href="#d" transform="matrix(1,0,0,1,172.5598086124399,204) translate(13.066035156249997 36.896484375)"/><use xlink:href="#e" transform="matrix(1,0,0,1,172.5598086124399,204) translate(30.346796875000003 55.4853515625)"/><use xlink:href="#c" transform="matrix(1,0,0,1,172.5598086124399,204) translate(60.897578125 55.4853515625)"/><path d="M632.14 245h-20.72v-2h20.72zm78.28 0h-35.4v-2h35.4z" fill="#e7ad52"/><path fill="#e7ad52"/><path d="M710.42 244l-14.26 4.64v-9.28z" fill="#e7ad52"/><path d="M711.42 243.27v1.46L695.16 250v-12zm-14.26 4L707.2 244l-10.04-3.26z" fill="#e7ad52"/><use xlink:href="#f" transform="matrix(1,0,0,1,632.1416179164172,234.70556640625) translate(0 14.396484375)"/><path d="M377.62 245h-45.06v-2h45.06zm73.8 0h-45.04v-2h45.04z" fill="#e7ad52"/><path fill="#e7ad52"/><path d="M346.83 248.64L332.56 244l14.27-4.64z" fill="#e7ad52"/><path d="M347.83 250l-15.27-4.95v-2.1l15.27-4.96zm-12.03-6l10.03 3.26v-6.52z" fill="#e7ad52"/><use xlink:href="#g" transform="matrix(1,0,0,1,377.6171150755081,234.70556640625) translate(0 14.396484375)"/><path d="M392.28 339.03H450v2h-59.72V311.3h2zm0-46.3h-2V265h-57.72v-2h59.72zM451 341.03h-1v-2h1z" fill="#c92d39"/><path d="M346.83 268.64L332.56 264l14.27-4.64z" fill="#c92d39"/><path d="M347.83 270l-15.27-4.95v-2.1l15.27-4.96zm-12.03-6l10.03 3.26v-6.52z" fill="#c92d39"/><use xlink:href="#h" transform="matrix(1,0,0,1,368.2393769624699,292.72045940625003) translate(0 14.396484375)"/><path d="M451 300v80h160v-80z" stroke="#c92d39" stroke-width="2" fill="none"/><path d="M601 310h-15v20h15z" stroke="#c92d39" fill="none"/><path d="M591 313.33h-10v3.34h10zm0 10h-10v3.34h10z" stroke="#c92d39" fill="none"/><use xlink:href="#i" transform="matrix(1,0,0,1,451,300) translate(9.589960937500004 36.896484375)"/><use xlink:href="#j" transform="matrix(1,0,0,1,451,300) translate(52.682734375 36.896484375)"/><use xlink:href="#k" transform="matrix(1,0,0,1,451,300) translate(60.176875 55.4853515625)"/><path d="M711.42 204v80h160v-80z" stroke="#e7ad52" stroke-width="2" fill="none"/><path d="M861.42 214h-15v20h15z" stroke="#e7ad52" fill="none"/><path d="M851.42 217.33h-10v3.34h10zm0 10h-10v3.34h10z" stroke="#e7ad52" fill="none"/><use xlink:href="#l" transform="matrix(1,0,0,1,711.4234449760761,204) translate(5.124628906250004 45.406484375000005)"/><use xlink:href="#c" transform="matrix(1,0,0,1,711.4234449760761,204) translate(45.622187499999995 63.995351562500005)"/><path d="M752.56 456c0 4.42-26.86 8-60 8s-60-3.58-60-8v-64c0-4.42 26.86-8 60-8s60 3.58 60 8z" stroke="#c92d39" stroke-width="2" fill="none"/><path d="M752.56 392c0 4.42-26.86 8-60 8s-60-3.58-60-8" stroke="#c92d39" stroke-width="2" fill="none"/><use xlink:href="#m" transform="matrix(1,0,0,1,637.5598086124403,405) translate(29.51611328125 32.10205078125)"/><path d="M312.56 456c0 4.42-26.86 8-60 8s-60-3.58-60-8v-64c0-4.42 26.86-8 60-8s60 3.58 60 8z" stroke="#e7ad52" stroke-width="2" fill="none"/><path d="M312.56 392c0 4.42-26.86 8-60 8s-60-3.58-60-8" stroke="#e7ad52" stroke-width="2" fill="none"/><use xlink:href="#n" transform="matrix(1,0,0,1,197.5598086124399,405) translate(18.3232421875 32.10205078125)"/><path d="M451.42 204v80h160v-80z" stroke="#e7ad52" stroke-width="2" fill="none"/><path d="M601.42 214h-15v20h15z" stroke="#e7ad52" fill="none"/><path d="M591.42 217.33h-10v3.34h10zm0 10h-10v3.34h10z" stroke="#e7ad52" fill="none"/><use xlink:href="#d" transform="matrix(1,0,0,1,451.4234449760763,204) translate(13.066035156249997 36.896484375)"/><use xlink:href="#o" transform="matrix(1,0,0,1,451.4234449760763,204) translate(20.973261718750003 55.4853515625)"/><use xlink:href="#p" transform="matrix(1,0,0,1,451.4234449760763,204) translate(42.91955078125 55.4853515625)"/><path d="M722.24 335h-28.9v48h-2v-50h30.9zm69.97 0h-30.88v-2h28.9v-48h2zM792.2 285h-2v-1h2z" fill="#c92d39"/><path d="M692.35 383l-4.64-14.26H697z" fill="#c92d39"/><path d="M693.07 384.02l-.5-.02-.94.03-5.3-16.3h12.03zm-3.98-14.28l3.25 10.03 3.26-10.03z" fill="#c92d39"/><use xlink:href="#q" transform="matrix(1,0,0,1,722.2430145409686,324.7087753132839) translate(0 14.396484375)"/><path d="M253.35 383h-2v-40.2h2zm.2-58.8h-2V284h2z" fill="#e7ad52"/><path fill="#e7ad52"/><path d="M252.35 383l-4.64-14.26H257z" fill="#e7ad52"/><path d="M253.07 384.02l-.5-.02-.94.03-5.3-16.3h12.03zm-3.98-14.28l3.25 10.03 3.26-10.03z" fill="#e7ad52"/><use xlink:href="#r" transform="matrix(1,0,0,1,252.45454545454515,324.5032089070339) translate(0 14.4)"/><use xlink:href="#g" transform="matrix(1,0,0,1,238.08003373579515,324.2087753132839) translate(0 14.396484375)"/><path d="M494.07 125H331.42v-2h162.65zm217.35 0H548.8v-2H711.4z" fill="#e7ad52"/><path fill="#e7ad52"/><path d="M711.42 124l-14.26 4.64v-9.28z" fill="#e7ad52"/><path d="M711.42 122.95v2.1L696.16 130v-12zm-13.26 4.3L708.2 124l-10.04-3.26z" fill="#e7ad52"/><use xlink:href="#s" transform="matrix(1,0,0,1,494.0674879448262,114.70556640625) translate(0 14.396484375)"/><use xlink:href="#t" transform="matrix(1,0,0,1,494.0674879448262,114.70556640625) translate(24.3193359375 14.396484375)"/><path d="M59.18 125H32.56v-2h26.62zm112.24 0H113.9v-2h57.52z" fill="#e7ad52"/><path d="M171.42 124l-14.26 4.64v-9.28z" fill="#e7ad52"/><path d="M171.42 122.95v2.1L156.16 130v-12zm-13.26 4.3L168.2 124l-10.04-3.26z" fill="#e7ad52"/><use xlink:href="#s" transform="matrix(1,0,0,1,59.181124308462614,114.70556640625) translate(0 14.396484375)"/><use xlink:href="#t" transform="matrix(1,0,0,1,59.181124308462614,114.70556640625) translate(24.3193359375 14.396484375)"/><path d="M93.56 423h99v2h-101V303.86h2zm77.86-278H93.56v140.27h-2V143h79.86z" fill="#e7ad52"/><path fill="#e7ad52"/><path d="M192.56 424l-14.27 4.64v-9.28z" fill="#e7ad52"/><path d="M192.56 422.95v2.1L177.3 430v-12zm-13.27 4.3L189.3 424l-10.03-3.26z" fill="#e7ad52"/><use xlink:href="#q" transform="matrix(1,0,0,1,73.0217226749399,285.2737482244318) translate(0 14.396484375)"/><path d="M711.42 84h160v80h-160z" stroke="#e7ad52" stroke-width="2" fill="none"/><use xlink:href="#u" transform="matrix(1,0,0,1,716.4234449760761,89) translate(35.50634765625 40.10205078125)"/><path d="M892.56 456c0 4.42-26.86 8-60 8s-60-3.58-60-8v-64c0-4.42 26.86-8 60-8s60 3.58 60 8z" stroke="#e7ad52" stroke-width="2" fill="none"/><path d="M892.56 392c0 4.42-26.86 8-60 8s-60-3.58-60-8" stroke="#e7ad52" stroke-width="2" fill="none"/><use xlink:href="#v" transform="matrix(1,0,0,1,777.5598086124405,405) translate(18.42431640625 32.10205078125)"/><path d="M791.42 284v50h41.14v50" stroke="#e7ad52" stroke-width="2" fill="none"/><path fill="#e7ad52"/><path d="M832.56 384l-4.64-14.27h9.28z" fill="#e7ad52"/><path d="M833.6 384.04l-1.04-.04-1.04.03-4.97-15.3h12.02zm-4.3-13.3l3.26 10.02 3.26-10.03z" fill="#e7ad52"/><path d="M451 396v80h160v-80z" stroke="#e7ad52" stroke-width="2" fill="none"/><path d="M601 406h-15v20h15z" stroke="#e7ad52" fill="none"/><path d="M591 409.33h-10v3.34h10zm0 10h-10v3.34h10z" stroke="#e7ad52" fill="none"/><g><use xlink:href="#w" transform="matrix(1,0,0,1,451,396) translate(13.026484375000004 36.896484375)"/><use xlink:href="#x" transform="matrix(1,0,0,1,451,396) translate(56.233515625 36.896484375)"/><use xlink:href="#y" transform="matrix(1,0,0,1,451,396) translate(45.767207031249995 55.4853515625)"/></g><path d="M392.78 435H451v2h-60.22V311.3h2zm0-142.28h-2V265h-58.22v-2h60.22z" fill="#e7ad52"/><path fill="#e7ad52"/><path d="M346.83 268.64L332.56 264l14.27-4.64z" fill="#e7ad52"/><path d="M347.83 270l-15.27-4.95v-2.1l15.27-4.96zm-12.03-6l10.03 3.26v-6.52z" fill="#e7ad52"/><defs><path fill="#e5e5e5" d="M920-744c0 218 15 427 27 645 5 89-139 139-182 58-3-3-13-32-31-85-53-161-192-263-415-306-18 75-30 243-58 360-12 50-50 72-97 72-56 0-99-53-99-108 1-367 194-896 360-1117 69-92 141-140 222-140 182 0 273 207 273 621zM720-476v-400c-19-103-12-145-34-225-11-40-25-60-41-60-32 0-83 65-153 195-56 103-99 215-130 336 137 27 256 79 358 154" id="z"/><path fill="#e5e5e5" d="M387-1365c369 0 678 217 678 573 0 172-83 346-249 522C647-90 478 0 307 0 194 0 137-80 137-239c0-257 30-558 68-915-53-11-80-43-80-95 0-56 32-93 97-108 26-6 81-8 165-8zm21 204c-15 76-47 491-72 917 0 13 1 27 2 41 116-22 231-92 346-210 120-123 180-241 180-355-1-196-67-277-209-343-74-35-157-50-247-50" id="A"/><path fill="#e5e5e5" d="M777-672c57 0 100 48 100 105 0 58-42 105-100 104-73-2-320 16-393 16-130 0-195-37-195-111 0-50 47-104 98-104 25 0 103 5 128 5 66 0 296-15 362-15" id="B"/><path fill="#e5e5e5" d="M379-1365c368 0 677 218 677 573 0 172-83 346-249 522C639-90 470 0 299 0 185 0 128-80 128-239c0-257 31-558 68-915-53-11-80-43-80-95 0-56 32-93 97-108 26-6 82-8 166-8zm20 204c-15 77-48 489-71 917 0 13 0 27 1 41 116-22 232-92 347-210 119-123 179-241 179-355-1-195-66-277-208-343-75-35-158-50-248-50" id="C"/><path fill="#e5e5e5" d="M270-1365c53 0 101 46 100 99-5 357-80 777-80 1073C290-64 254 0 183 0 132 0 82-50 82-101c0-298 47-662 55-976 2-76 19-138 34-189 19-66 52-99 99-99" id="D"/><path fill="#e5e5e5" d="M432-1365c342 0 623 232 623 568 0 219-132 374-395 466 145 90 217 167 217 230 0 52-52 98-104 96-17 0-39-10-66-29-90-65-203-166-304-203v78C403-53 368 0 299 0c-53 0-99-44-99-97v-374c17-145 25-361 25-650-2 5-10 7-24 7-53 2-99-46-99-99 0-112 194-152 330-152zm257 786c221-128 209-317 21-469-89-71-178-111-268-119-1 97-2 329-2 698 90-27 172-66 249-110" id="E"/><path fill="#e5e5e5" d="M369 0C201 0 119-119 119-294c0-119 26-272 77-457 80-290 99-377 125-524 7-13 27-26 60-41 71-33 211-49 419-49 129 0 193 36 193 107 0 50-48 105-99 101-142-10-258-9-397 20-11 59-34 158-69 297 146-57 246-85 301-85 53 0 100 43 100 96 0 43-23 80-73 99-127 49-178 54-389 129-29 119-44 224-44 314 0 58 10 87 30 87 66 0 151-30 256-90s173-91 205-91c50 0 101 49 101 99 0 30-19 57-51 87C794-129 500 0 369 0" id="F"/><path fill="#e5e5e5" d="M773-362c52-3 103 50 103 101 0 27-17 56-48 89C762-102 548 0 418 0 210 0 81-204 84-422c3-221 73-486 152-640 103-201 220-303 358-303 167 0 251 128 251 385 0 123-35 185-106 185-48 0-101-46-99-94 2-77 27-278-39-278-46 0-94 47-150 138-89 144-168 415-168 602 0 146 56 219 169 219 46 0 106-26 180-77s122-77 141-77" id="G"/><path fill="#e5e5e5" d="M46-1227c0-128 188-119 328-120 79-1 391-35 488-35 99 0 148 35 148 105 0 65-48 98-145 98-76 0-153 3-232 8 1 179-14 796-13 976C622-79 604-4 510 0c-53 2-99-44-99-97v-270c21-312 24-505 22-785-143 13-240 20-291 20-64 0-96-32-96-95" id="H"/><path fill="#e5e5e5" d="M609-1364c323 0 519 229 519 557 0 183-51 357-152 522C860-95 716 0 544 0 271 0 97-283 97-570c0-191 38-362 113-512 95-188 228-282 399-282zm319 550c0-231-116-347-349-347-81 0-151 81-210 243-48 132-72 248-72 348 0 161 47 272 142 333 35 23 69 34 100 34 113 0 208-76 287-229 68-131 102-258 102-382" id="I"/><g id="a"><use transform="matrix(0.0087890625,0,0,0.0087890625,0,0)" xlink:href="#z"/><use transform="matrix(0.0087890625,0,0,0.0087890625,9.0703125,0)" xlink:href="#A"/><use transform="matrix(0.0087890625,0,0,0.0087890625,19.0283203125,0)" xlink:href="#B"/><use transform="matrix(0.0087890625,0,0,0.0087890625,28.4501953125,0)" xlink:href="#C"/><use transform="matrix(0.0087890625,0,0,0.0087890625,38.2939453125,0)" xlink:href="#D"/><use transform="matrix(0.0087890625,0,0,0.0087890625,42.205078125,0)" xlink:href="#E"/><use transform="matrix(0.0087890625,0,0,0.0087890625,52.1806640625,0)" xlink:href="#F"/><use transform="matrix(0.0087890625,0,0,0.0087890625,61.962890625,0)" xlink:href="#G"/><use transform="matrix(0.0087890625,0,0,0.0087890625,70.470703125,0)" xlink:href="#H"/><use transform="matrix(0.0087890625,0,0,0.0087890625,79.76953125,0)" xlink:href="#I"/><use transform="matrix(0.0087890625,0,0,0.0087890625,90.4921875,0)" xlink:href="#E"/></g><path fill="#e5e5e5" d="M196-1063c0-251 371-378 608-255 71 37 119 87 150 151 35 73-14 152-87 150-26 0-63-25-111-73s-102-72-162-72c-72 0-200 37-200 99 0 43 47 111 142 203 145 142 234 232 266 271 95 116 142 225 142 328C944-95 791 0 613 0 494 0 170-60 118-111c-29-29-48-55-48-87-1-69 67-120 140-92h-2c162 59 305 89 429 89 69 0 104-25 104-75 0-69-47-151-142-245-86-86-177-167-261-254-98-100-142-199-142-288" id="J"/><path fill="#e5e5e5" d="M925-1365c52 0 103 46 101 97 0 23-38 113-113 270-125 261-227 519-304 774-21 71-38 117-49 139-29 57-63 85-104 85-109-1-156-321-181-456-30-165-184-659-203-805-7-52 44-104 97-104 40 0 72 25 99 73 46 84 66 250 92 370 23 106 68 262 121 471 71-167 173-418 306-754 20-51 35-86 46-104 25-37 55-56 92-56" id="K"/><path fill="#e5e5e5" d="M829-1263c0-55 42-106 96-102 141 10 133 224 150 372 25 219 36 341 36 365 0 117-18 227-55 328C983-97 875 5 732 5 532 5 402-187 343-570c-16 123-24 243-24 360C319-70 282 0 207 0c-53 0-99-44-99-97 0-315 85-1025 186-1197 27-46 56-71 93-71 53 0 88 33 105 99 5 21 8 92 8 213 0 153 26 313 55 481 43 253 101 379 172 379 116 0 183-303 183-438 0-120-81-513-81-632" id="L"/><path fill="#e5e5e5" d="M621-594c163 0 326 124 326 282S736 5 573 0C387-6 235-158 176-307c-32-81-50-172-50-277 0-291 84-515 251-672 123-114 255-148 401-60 53 32 90 76 121 123 44 67-17 153-85 152-24 0-53-21-88-61s-68-60-100-60c-180 0-298 367-298 568 0 189 80 393 249 393 76 0 150-57 167-118-25-60-81-80-164-74-50 4-95-50-95-100 0-67 45-101 136-101" id="M"/><g id="b"><use transform="matrix(0.0087890625,0,0,0.0087890625,0,0)" xlink:href="#z"/><use transform="matrix(0.0087890625,0,0,0.0087890625,9.0703125,0)" xlink:href="#A"/><use transform="matrix(0.0087890625,0,0,0.0087890625,19.0283203125,0)" xlink:href="#B"/><use transform="matrix(0.0087890625,0,0,0.0087890625,28.4501953125,0)" xlink:href="#J"/><use transform="matrix(0.0087890625,0,0,0.0087890625,37.8369140625,0)" xlink:href="#F"/><use transform="matrix(0.0087890625,0,0,0.0087890625,47.619140625,0)" xlink:href="#E"/><use transform="matrix(0.0087890625,0,0,0.0087890625,57.5947265625,0)" xlink:href="#K"/><use transform="matrix(0.0087890625,0,0,0.0087890625,66.9990234375,0)" xlink:href="#D"/><use transform="matrix(0.0087890625,0,0,0.0087890625,70.91015625,0)" xlink:href="#L"/><use transform="matrix(0.0087890625,0,0,0.0087890625,81.66796875,0)" xlink:href="#M"/></g><path fill="#e5e5e5" d="M430-1365c53 0 103 46 101 99 6 2-144 293-135 283-45 115-67 263-67 445 0 89 34 260 81 437C412-48 357 0 305 0 176 0 126-356 126-531c0-295 57-536 171-723 45-74 89-111 133-111" id="N"/><path fill="#e5e5e5" d="M614-594c163 0 326 124 326 282C940-155 729 5 567 0 380-5 228-157 169-307c-32-81-50-172-50-277 0-291 84-515 251-672 123-114 254-148 400-60 53 32 92 76 123 123 43 67-18 153-86 152-24 0-53-21-88-61s-68-60-99-60c-180 0-299 367-299 568 0 189 80 393 249 393 77 0 149-57 167-118-25-60-81-80-164-74-50 4-95-50-95-100 0-67 45-101 136-101" id="O"/><path fill="#e5e5e5" d="M759-451c68-46 151 19 151 87 0 27-17 54-48 86C767-182 491 0 329 0 186 0 114-109 114-326c0-169 46-507 46-695 0-139-8-341 120-344 53-2 103 46 101 99-4-2-27 472-40 636-16 198-27 312-27 343 0 57 11 86 32 86 61 0 169-62 325-185 19-16 49-38 88-65" id="P"/><path fill="#e5e5e5" d="M922-654c-9 182 20 369 29 555 5 90-140 139-183 58-2-3-13-31-31-85-54-160-191-263-414-306-19 75-30 243-58 360-12 50-51 72-98 72-55 0-99-53-99-108 1-366 195-896 360-1117 69-92 141-140 222-140 182 0 273 207 273 621 0 19 1 49-1 90zM724-476v-400c-20-103-13-145-35-225-11-40-25-60-40-60-32 0-83 65-154 195-56 103-99 215-130 336 137 27 256 79 359 154" id="Q"/><path fill="#e5e5e5" d="M218-1263c0-53 53-102 105-102 66 0 117 71 145 216 71 369 11 792-142 1038C281-38 239 0 196 0 144 0 87-46 92-99c2-26 67-122 87-155 105-188 159-578 72-860-24-76-33-126-33-149" id="R"/><g id="c"><use transform="matrix(0.0087890625,0,0,0.0087890625,0,0)" xlink:href="#N"/><use transform="matrix(0.0087890625,0,0,0.0087890625,5.51953125,0)" xlink:href="#O"/><use transform="matrix(0.0087890625,0,0,0.0087890625,14.853515625,0)" xlink:href="#I"/><use transform="matrix(0.0087890625,0,0,0.0087890625,25.576171875,0)" xlink:href="#P"/><use transform="matrix(0.0087890625,0,0,0.0087890625,33.626953125,0)" xlink:href="#Q"/><use transform="matrix(0.0087890625,0,0,0.0087890625,43.013671875,0)" xlink:href="#L"/><use transform="matrix(0.0087890625,0,0,0.0087890625,53.771484375,0)" xlink:href="#M"/><use transform="matrix(0.0087890625,0,0,0.0087890625,63.2197265625,0)" xlink:href="#R"/></g><path fill="#e5e5e5" d="M186 0C125 1 80-61 94-128c102-498 136-682 239-1056 16-58 29-97 39-118 39-81 152-87 186 3 8 21 18 60 27 118 29 181 80 412 149 693 44-195 134-593 229-824 15-37 48-53 85-53 50 0 90 31 101 97 20 117 17 225 52 381 45 201 159 605 163 785 2 54-42 102-96 102-45 0-83-20-96-65-37-130-44-258-87-432-40-161-61-264-70-309-35 138-85 345-146 622-13 58-24 96-31 117-30 83-132 87-176 19-11-18-25-49-39-97-63-219-121-453-172-703-35 145-84 365-140 660-11 60-19 102-29 123-19 43-51 65-96 65" id="S"/><path fill="#e5e5e5" d="M188 0C127 1 82-61 96-128c102-498 136-682 239-1056 16-58 29-97 39-118 39-81 152-87 186 3 8 21 18 60 27 118 29 181 79 412 149 693 44-195 133-594 228-824 15-37 48-53 86-53 50 0 89 31 100 97 19 117 18 225 53 381 45 201 158 605 162 785 1 54-41 102-95 102-46 0-83-20-96-65-38-130-44-258-87-432-40-161-61-264-70-309-35 138-86 345-147 622-13 58-23 96-30 117-29 83-132 87-176 19-11-18-25-49-39-97-63-219-122-453-173-703-35 145-85 365-140 660-11 60-19 101-29 123-20 43-51 65-95 65" id="T"/><g id="d"><use transform="matrix(0.0087890625,0,0,0.0087890625,0,0)" xlink:href="#S"/><use transform="matrix(0.0087890625,0,0,0.0087890625,12.8408203125,0)" xlink:href="#Q"/><use transform="matrix(0.0087890625,0,0,0.0087890625,22.2275390625,0)" xlink:href="#L"/><use transform="matrix(0.0087890625,0,0,0.0087890625,32.9853515625,0)" xlink:href="#Q"/><use transform="matrix(0.0087890625,0,0,0.0087890625,42.1611328125,0)" xlink:href="#M"/><use transform="matrix(0.0087890625,0,0,0.0087890625,51.3720703125,0)" xlink:href="#F"/><use transform="matrix(0.0087890625,0,0,0.0087890625,61.154296875,0)" xlink:href="#T"/><use transform="matrix(0.0087890625,0,0,0.0087890625,74.0390625,0)" xlink:href="#F"/><use transform="matrix(0.0087890625,0,0,0.0087890625,83.8212890625,0)" xlink:href="#L"/><use transform="matrix(0.0087890625,0,0,0.0087890625,94.5791015625,0)" xlink:href="#H"/></g><path fill="#e5e5e5" d="M488-1365c273 0 550 113 550 360 0 140-81 265-244 374-130 87-276 146-439 180-8 56-16 299-32 372-12 53-47 79-94 79-53 0-99-48-99-101 0-200 54-864 49-1044-37-23-56-56-56-99 0-39 25-69 73-90s145-31 292-31zm348 355c0-132-280-161-454-151-1 136-1 303-1 501 100-31 192-72 276-122 119-70 179-146 179-228" id="U"/><path fill="#e5e5e5" d="M203-1149c-53 2-102-44-102-97 0-81 83-121 249-121 26 1 80 3 114 2 148 0 222 37 222 111 0 53-48 102-101 100-20 0-52-3-97-8-28 489-22 541-22 947 76-15 142 28 142 94 0 49-23 87-72 99-75 18-199 39-326 61-50 9-91-53-91-102 0-61 53-101 159-120-24-480-18-487 7-976-34 7-61 10-82 10" id="V"/><g id="e"><use transform="matrix(0.0087890625,0,0,0.0087890625,0,0)" xlink:href="#z"/><use transform="matrix(0.0087890625,0,0,0.0087890625,9.28125,0)" xlink:href="#U"/><use transform="matrix(0.0087890625,0,0,0.0087890625,18.59765625,0)" xlink:href="#V"/></g><path fill="#e5e5e5" d="M758-451c66-46 150 20 150 87 0 27-17 54-48 86C767-182 488 0 328 0 185 0 113-109 113-326c0-170 46-508 46-695 0-141-8-341 119-344 53-2 103 46 101 99-3-2-26 472-39 636-16 198-28 312-28 343 0 57 11 86 33 86 60 0 168-62 324-185 19-16 49-38 89-65" id="W"/><g id="f"><use transform="matrix(0.0087890625,0,0,0.0087890625,0,0)" xlink:href="#W"/><use transform="matrix(0.0087890625,0,0,0.0087890625,8.0419921875,0)" xlink:href="#I"/><use transform="matrix(0.0087890625,0,0,0.0087890625,18.7646484375,0)" xlink:href="#M"/><use transform="matrix(0.0087890625,0,0,0.0087890625,28.212890625,0)" xlink:href="#D"/><use transform="matrix(0.0087890625,0,0,0.0087890625,32.1240234375,0)" xlink:href="#L"/></g><path fill="#e5e5e5" d="M430-1365c342 0 623 231 623 568 0 219-131 374-394 466 145 90 217 167 217 230 0 52-53 98-105 96-17 0-39-10-66-29-90-66-201-166-304-203v78C401-53 366 0 297 0c-53 0-99-44-99-97v-374c17-145 26-361 26-650-3 5-11 7-24 7-53 2-99-46-99-99 0-112 193-152 329-152zm258 786c221-128 209-317 20-469-89-71-178-111-268-119-1 97-1 329-1 698 89-27 172-65 249-110" id="X"/><path fill="#e5e5e5" d="M497-1365c50 0 101 53 99 102C621-1286 247-19 246-72c-25 48-57 72-94 72C103 0 48-41 48-92c0-33 18-110 53-231 48-167 138-465 271-894 5-16 12-40 26-72 22-51 56-76 99-76" id="Y"/><path fill="#e5e5e5" d="M1318-1365c50 0 103 50 100 100-10 151-187 568-251 746-42 119-107 332-145 435-42 112-161 111-205 2-9-23-20-69-34-138-17-86-43-213-76-384-30 121-72 279-128 471-25 85-42 143-123 143-41 0-72-22-91-66-8-19-18-59-29-120-38-220-218-897-246-1087-8-52 45-102 98-102 44 0 77 24 99 73 7 15 11 53 22 113 33 173 101 434 160 701 72-277 121-491 147-642 10-57 20-94 27-114 31-93 161-82 185 7 6 22 10 66 10 133 0 150 44 362 101 635l239-724c8-25 19-62 42-109 25-50 60-73 98-73" id="Z"/><g id="g"><use transform="matrix(0.0087890625,0,0,0.0087890625,0,0)" xlink:href="#X"/><use transform="matrix(0.0087890625,0,0,0.0087890625,9.94921875,0)" xlink:href="#Y"/><use transform="matrix(0.0087890625,0,0,0.0087890625,15.6357421875,0)" xlink:href="#Z"/></g><g id="h"><use transform="matrix(0.0087890625,0,0,0.0087890625,0,0)" xlink:href="#Z"/><use transform="matrix(0.0087890625,0,0,0.0087890625,13.11328125,0)" xlink:href="#E"/><use transform="matrix(0.0087890625,0,0,0.0087890625,23.0888671875,0)" xlink:href="#D"/><use transform="matrix(0.0087890625,0,0,0.0087890625,27,0)" xlink:href="#H"/><use transform="matrix(0.0087890625,0,0,0.0087890625,36.298828125,0)" xlink:href="#F"/></g><path fill="#c92d39" d="M430-1365c342 0 623 231 623 568 0 219-131 374-394 466 145 90 217 167 217 230 0 52-53 98-105 96-17 0-39-10-66-29-90-66-201-166-304-203v78C401-53 366 0 297 0c-53 0-99-44-99-97v-374c17-145 26-361 26-650-3 5-11 7-24 7-53 2-99-46-99-99 0-112 193-152 329-152zm258 786c221-128 209-317 20-469-89-71-178-111-268-119-1 97-1 329-1 698 89-27 172-65 249-110" id="aa"/><path fill="#c92d39" d="M807-1260c0-54 40-105 96-105 43 0 76 24 99 73 18 39 27 131 27 277 0 274-20 485-61 631C895-128 757 0 555 0 385 0 262-90 189-270c-51-126-76-289-76-488 0-289 18-467 53-534 26-49 59-73 99-73 52 0 105 52 99 104-14 128-48 300-48 513 0 128 14 239 41 332 41 144 108 216 201 216 105 0 179-98 225-293 29-124 45-265 45-422 0-66-21-279-21-345" id="ab"/><path fill="#c92d39" d="M759-451c68-46 151 19 151 87 0 27-17 54-48 86C767-182 491 0 329 0 186 0 114-109 114-326c0-169 46-507 46-695 0-139-8-341 120-344 53-2 103 46 101 99-4-2-27 472-40 636-16 198-27 312-27 343 0 57 11 86 32 86 61 0 169-62 325-185 19-16 49-38 88-65" id="ac"/><path fill="#c92d39" d="M369 0C201 0 119-119 119-294c0-119 26-272 77-457 80-290 99-377 125-524 7-13 27-26 60-41 71-33 211-49 419-49 129 0 193 36 193 107 0 50-48 105-99 101-142-10-258-9-397 20-11 59-34 158-69 297 146-57 246-85 301-85 53 0 100 43 100 96 0 43-23 80-73 99-127 49-178 54-389 129-29 119-44 224-44 314 0 58 10 87 30 87 66 0 151-30 256-90s173-91 205-91c50 0 101 49 101 99 0 30-19 57-51 87C794-129 500 0 369 0" id="ad"/><g id="i"><use transform="matrix(0.0087890625,0,0,0.0087890625,0,0)" xlink:href="#aa"/><use transform="matrix(0.0087890625,0,0,0.0087890625,9.94921875,0)" xlink:href="#ab"/><use transform="matrix(0.0087890625,0,0,0.0087890625,19.96875,0)" xlink:href="#ac"/><use transform="matrix(0.0087890625,0,0,0.0087890625,28.01953125,0)" xlink:href="#ad"/></g><path fill="#c92d39" d="M806-1260c0-54 39-105 95-105 43 0 76 24 99 73 18 39 27 131 27 277 0 274-20 484-61 631C894-128 756 0 553 0 384 0 262-90 188-270c-51-126-77-289-77-488 0-289 18-467 53-534 26-49 59-73 99-73 53 0 105 52 99 104-14 128-48 300-48 513 0 128 14 239 41 332 41 144 108 216 201 216 105 0 180-98 226-293 29-124 44-265 44-422 0-66-20-279-20-345" id="ae"/><path fill="#c92d39" d="M492-1365c272 0 549 114 549 360 0 140-81 265-244 374-130 87-276 146-439 180-7 56-15 301-32 372-12 53-46 79-94 79-53 0-99-48-99-101 0-201 55-864 50-1044-38-23-57-56-57-99 0-39 24-69 72-90s147-31 294-31zm348 355c0-132-280-161-454-151-1 136-2 303-2 501 100-31 192-72 276-122 120-70 180-146 180-228" id="af"/><path fill="#c92d39" d="M387-1365c369 0 678 217 678 573 0 172-83 346-249 522C647-90 478 0 307 0 194 0 137-80 137-239c0-257 30-558 68-915-53-11-80-43-80-95 0-56 32-93 97-108 26-6 81-8 165-8zm21 204c-15 76-47 491-72 917 0 13 1 27 2 41 116-22 231-92 346-210 120-123 180-241 180-355-1-196-67-277-209-343-74-35-157-50-247-50" id="ag"/><path fill="#c92d39" d="M922-654c-9 182 20 369 29 555 5 90-140 139-183 58-2-3-13-31-31-85-54-160-191-263-414-306-19 75-30 243-58 360-12 50-51 72-98 72-55 0-99-53-99-108 1-366 195-896 360-1117 69-92 141-140 222-140 182 0 273 207 273 621 0 19 1 49-1 90zM724-476v-400c-20-103-13-145-35-225-11-40-25-60-40-60-32 0-83 65-154 195-56 103-99 215-130 336 137 27 256 79 359 154" id="ah"/><path fill="#c92d39" d="M46-1227c0-128 188-119 328-120 79-1 391-35 488-35 99 0 148 35 148 105 0 65-48 98-145 98-76 0-153 3-232 8 1 179-14 796-13 976C622-79 604-4 510 0c-53 2-99-44-99-97v-270c21-312 24-505 22-785-143 13-240 20-291 20-64 0-96-32-96-95" id="ai"/><path fill="#c92d39" d="M432-1365c342 0 623 232 623 568 0 219-132 374-395 466 145 90 217 167 217 230 0 52-52 98-104 96-17 0-39-10-66-29-90-65-203-166-304-203v78C403-53 368 0 299 0c-53 0-99-44-99-97v-374c17-145 25-361 25-650-2 5-10 7-24 7-53 2-99-46-99-99 0-112 194-152 330-152zm257 786c221-128 209-317 21-469-89-71-178-111-268-119-1 97-2 329-2 698 90-27 172-66 249-110" id="aj"/><g id="j"><use transform="matrix(0.0087890625,0,0,0.0087890625,0,0)" xlink:href="#ae"/><use transform="matrix(0.0087890625,0,0,0.0087890625,9.9931640625,0)" xlink:href="#af"/><use transform="matrix(0.0087890625,0,0,0.0087890625,19.3359375,0)" xlink:href="#ag"/><use transform="matrix(0.0087890625,0,0,0.0087890625,29.2939453125,0)" xlink:href="#ah"/><use transform="matrix(0.0087890625,0,0,0.0087890625,38.6806640625,0)" xlink:href="#ai"/><use transform="matrix(0.0087890625,0,0,0.0087890625,47.9794921875,0)" xlink:href="#ad"/><use transform="matrix(0.0087890625,0,0,0.0087890625,57.76171875,0)" xlink:href="#aj"/></g><path fill="#c92d39" d="M430-1365c53 0 103 46 101 99 6 2-144 293-135 283-45 115-67 263-67 445 0 89 34 260 81 437C412-48 357 0 305 0 176 0 126-356 126-531c0-295 57-536 171-723 45-74 89-111 133-111" id="ak"/><path fill="#c92d39" d="M488-1365c273 0 550 113 550 360 0 140-81 265-244 374-130 87-276 146-439 180-8 56-16 299-32 372-12 53-47 79-94 79-53 0-99-48-99-101 0-200 54-864 49-1044-37-23-56-56-56-99 0-39 25-69 73-90s145-31 292-31zm348 355c0-132-280-161-454-151-1 136-1 303-1 501 100-31 192-72 276-122 119-70 179-146 179-228" id="al"/><path fill="#c92d39" d="M922-1365c50 0 100 48 100 99 0 155-55 850-94 1164C919-33 879 0 828 0c-53 0-101-49-101-102 0-145 29-345 44-490-110 9-252 35-425 78-5 58-8 145-8 260 0 35-10 86-22 153C304-33 267 0 217 0c-52 0-104-48-103-101 6-372 66-765 57-1090-3-107 18-171 107-174 56-2 99 41 99 97v544c167-44 305-66 413-66 7-75 10-182 10-321 8-35 12-88 23-155s48-99 99-99" id="am"/><path fill="#c92d39" d="M218-1263c0-53 53-102 105-102 66 0 117 71 145 216 71 369 11 792-142 1038C281-38 239 0 196 0 144 0 87-46 92-99c2-26 67-122 87-155 105-188 159-578 72-860-24-76-33-126-33-149" id="an"/><g id="k"><use transform="matrix(0.0087890625,0,0,0.0087890625,0,0)" xlink:href="#ak"/><use transform="matrix(0.0087890625,0,0,0.0087890625,5.51953125,0)" xlink:href="#al"/><use transform="matrix(0.0087890625,0,0,0.0087890625,14.8359375,0)" xlink:href="#am"/><use transform="matrix(0.0087890625,0,0,0.0087890625,24.7939453125,0)" xlink:href="#al"/><use transform="matrix(0.0087890625,0,0,0.0087890625,34.1103515625,0)" xlink:href="#an"/></g><path fill="#e5e5e5" d="M807-1260c0-54 40-105 96-105 43 0 76 24 99 73 18 39 27 131 27 277 0 274-20 485-61 631C895-128 757 0 555 0 385 0 262-90 189-270c-51-126-76-289-76-488 0-289 18-467 53-534 26-49 59-73 99-73 52 0 105 52 99 104-14 128-48 300-48 513 0 128 14 239 41 332 41 144 108 216 201 216 105 0 179-98 225-293 29-124 45-265 45-422 0-66-21-279-21-345" id="ao"/><path fill="#e5e5e5" d="M925-1365c50 0 101 48 101 99 0 165-53 833-94 1164C923-33 882 0 831 0c-53 0-101-49-101-102 0-145 29-345 45-490-111 9-252 35-425 78-6 58-9 145-9 260 0 35-10 86-22 153C307-33 270 0 220 0c-53 0-103-48-102-101 6-372 65-764 56-1090-3-108 18-171 108-174 55-2 99 41 99 97v544c167-44 304-66 413-66 7-75 10-182 10-321 8-35 11-88 22-155s48-99 99-99" id="ap"/><g id="l"><use transform="matrix(0.0087890625,0,0,0.0087890625,0,0)" xlink:href="#z"/><use transform="matrix(0.0087890625,0,0,0.0087890625,9.0703125,0)" xlink:href="#ao"/><use transform="matrix(0.0087890625,0,0,0.0087890625,19.08984375,0)" xlink:href="#H"/><use transform="matrix(0.0087890625,0,0,0.0087890625,28.388671875,0)" xlink:href="#ap"/><use transform="matrix(0.0087890625,0,0,0.0087890625,38.42578125,0)" xlink:href="#F"/><use transform="matrix(0.0087890625,0,0,0.0087890625,48.2080078125,0)" xlink:href="#L"/><use transform="matrix(0.0087890625,0,0,0.0087890625,58.9658203125,0)" xlink:href="#H"/><use transform="matrix(0.0087890625,0,0,0.0087890625,68.2646484375,0)" xlink:href="#D"/><use transform="matrix(0.0087890625,0,0,0.0087890625,72.17578125,0)" xlink:href="#G"/><use transform="matrix(0.0087890625,0,0,0.0087890625,80.68359375,0)" xlink:href="#Q"/><use transform="matrix(0.0087890625,0,0,0.0087890625,90.0703125,0)" xlink:href="#H"/><use transform="matrix(0.0087890625,0,0,0.0087890625,99.369140625,0)" xlink:href="#D"/><use transform="matrix(0.0087890625,0,0,0.0087890625,103.2802734375,0)" xlink:href="#I"/><use transform="matrix(0.0087890625,0,0,0.0087890625,114.0029296875,0)" xlink:href="#L"/></g><path fill="#c92d39" d="M186 0C125 1 80-61 94-128c102-498 136-682 239-1056 16-58 29-97 39-118 39-81 152-87 186 3 8 21 18 60 27 118 29 181 80 412 149 693 44-195 134-593 229-824 15-37 48-53 85-53 50 0 90 31 101 97 20 117 17 225 52 381 45 201 159 605 163 785 2 54-42 102-96 102-45 0-83-20-96-65-37-130-44-258-87-432-40-161-61-264-70-309-35 138-85 345-146 622-13 58-24 96-31 117-30 83-132 87-176 19-11-18-25-49-39-97-63-219-121-453-172-703-35 145-84 365-140 660-11 60-19 102-29 123-19 43-51 65-96 65" id="aq"/><path fill="#c92d39" d="M534 0c-54 1-104-40-104-96 0-45 18-79 58-93 38-13 78-19 114-33 139-52 207-229 207-522-71 158-178 237-321 237-171 0-289-87-355-261-43-114-65-273-65-478 0-79 34-119 101-119 58 0 96 44 106 134 10 91 12 183 22 275 13 113 52 188 113 226 57 35 92 27 153-4 115-60 203-251 231-413 5-26 9-65 25-113s51-71 94-71c48 0 84 32 102 97 48 177 15 638-17 760-49 186-136 325-271 414C667-20 603 0 534 0" id="ar"/><path fill="#c92d39" d="M196-1063c0-251 371-378 608-255 71 37 119 87 150 151 35 73-14 152-87 150-26 0-63-25-111-73s-102-72-162-72c-72 0-200 37-200 99 0 43 47 111 142 203 145 142 234 232 266 271 95 116 142 225 142 328C944-95 791 0 613 0 494 0 170-60 118-111c-29-29-48-55-48-87-1-69 67-120 140-92h-2c162 59 305 89 429 89 69 0 104-25 104-75 0-69-47-151-142-245-86-86-177-167-261-254-98-100-142-199-142-288" id="as"/><path fill="#c92d39" d="M582-1365c328 0 553 334 548 674-5 286-154 533-352 633 45 103 67 168 67 196 0 50-51 99-101 99-68 0-121-80-159-239C263 29 70-294 70-614c0-177 41-339 123-487 98-176 228-264 389-264zM712-253c124-77 218-243 218-438-1-192-95-350-215-432-274-186-445 261-445 512 0 181 102 372 242 406-39-95-58-155-58-179 0-50 50-99 101-99 61 0 114 77 157 230" id="at"/><path fill="#c92d39" d="M758-451c66-46 150 20 150 87 0 27-17 54-48 86C767-182 488 0 328 0 185 0 113-109 113-326c0-170 46-508 46-695 0-141-8-341 119-344 53-2 103 46 101 99-3-2-26 472-39 636-16 198-28 312-28 343 0 57 11 86 33 86 60 0 168-62 324-185 19-16 49-38 89-65" id="au"/><g id="m"><use transform="matrix(0.0087890625,0,0,0.0087890625,0,0)" xlink:href="#aq"/><use transform="matrix(0.0087890625,0,0,0.0087890625,12.8408203125,0)" xlink:href="#ar"/><use transform="matrix(0.0087890625,0,0,0.0087890625,22.904296875,0)" xlink:href="#as"/><use transform="matrix(0.0087890625,0,0,0.0087890625,32.291015625,0)" xlink:href="#at"/><use transform="matrix(0.0087890625,0,0,0.0087890625,42.92578125,0)" xlink:href="#au"/></g><path fill="#e5e5e5" d="M104-254c0-80 75-479 73-483 4-23 17-167 40-434-41-20-62-51-62-94 0-67 48-100 145-100 431 0 647 127 647 380 0 161-86 280-258 359 120 81 180 177 180 290 0 173-116 256-272 302C523-12 452 0 384 0 197 0 104-85 104-254zm642-722c0-105-210-177-326-186-9 140-24 282-43 426 246-59 369-139 369-240zm-77 638c-27-89-136-153-326-193-27 162-48 229-34 323 82 18 157 3 237-24 75-26 116-61 123-106" id="av"/><g id="n"><use transform="matrix(0.0087890625,0,0,0.0087890625,0,0)" xlink:href="#S"/><use transform="matrix(0.0087890625,0,0,0.0087890625,12.8408203125,0)" xlink:href="#I"/><use transform="matrix(0.0087890625,0,0,0.0087890625,23.5634765625,0)" xlink:href="#L"/><use transform="matrix(0.0087890625,0,0,0.0087890625,34.3212890625,0)" xlink:href="#M"/><use transform="matrix(0.0087890625,0,0,0.0087890625,43.76953125,0)" xlink:href="#I"/><use transform="matrix(0.0087890625,0,0,0.0087890625,54.4921875,0)" xlink:href="#C"/><use transform="matrix(0.0087890625,0,0,0.0087890625,64.3359375,0)" xlink:href="#av"/></g><path fill="#e5e5e5" d="M806-1260c0-54 39-105 95-105 43 0 76 24 99 73 18 39 27 131 27 277 0 274-20 484-61 631C894-128 756 0 553 0 384 0 262-90 188-270c-51-126-77-289-77-488 0-289 18-467 53-534 26-49 59-73 99-73 53 0 105 52 99 104-14 128-48 300-48 513 0 128 14 239 41 332 41 144 108 216 201 216 105 0 180-98 226-293 29-124 44-265 44-422 0-66-20-279-20-345" id="aw"/><g id="o"><use transform="matrix(0.0087890625,0,0,0.0087890625,0,0)" xlink:href="#aw"/><use transform="matrix(0.0087890625,0,0,0.0087890625,9.9931640625,0)" xlink:href="#V"/></g><path fill="#e5e5e5" d="M649-1365c133-5 180 359 180 539 0 359-40 595-119 707C604 32 415 28 248-68c-82-47-143-100-183-161-19-29-29-54-29-75-2-51 53-99 104-94 70 6 118 81 166 118 43 33 91 80 157 80 65 0 110-88 139-264 33-197 41-527-17-686-74 29-139 44-196 44-85 0-124-116-68-169 75-41 288-96 328-90" id="ax"/><path fill="#e5e5e5" d="M196-1063c0-251 371-378 608-255 71 37 119 87 150 151 35 73-14 152-87 150-26 0-63-25-111-73s-102-72-162-72c-72 0-200 37-200 99 0 43 47 111 142 203 145 142 234 232 266 271 95 116 142 225 142 328C944-95 791 0 613 0 494 0 170-60 118-111c-29-29-48-55-48-87-1-69 67-120 140-92h-2c162 59 305 89 429 89 69 0 104-25 104-75 0-69-47-151-142-245-86-86-177-167-261-254-98-100-142-199-142-288" id="ay"/><path fill="#e5e5e5" d="M492-1365c272 0 549 114 549 360 0 140-81 265-244 374-130 87-276 146-439 180-7 56-15 301-32 372-12 53-46 79-94 79-53 0-99-48-99-101 0-201 55-864 50-1044-38-23-57-56-57-99 0-39 24-69 72-90s147-31 294-31zm348 355c0-132-280-161-454-151-1 136-2 303-2 501 100-31 192-72 276-122 120-70 180-146 180-228" id="az"/><g id="p"><use transform="matrix(0.0087890625,0,0,0.0087890625,0,0)" xlink:href="#N"/><use transform="matrix(0.0087890625,0,0,0.0087890625,5.51953125,0)" xlink:href="#ax"/><use transform="matrix(0.0087890625,0,0,0.0087890625,13.78125,0)" xlink:href="#Q"/><use transform="matrix(0.0087890625,0,0,0.0087890625,22.74609375,0)" xlink:href="#K"/><use transform="matrix(0.0087890625,0,0,0.0087890625,30.744140625,0)" xlink:href="#Q"/><use transform="matrix(0.0087890625,0,0,0.0087890625,40.130859375,0)" xlink:href="#ay"/><use transform="matrix(0.0087890625,0,0,0.0087890625,49.53515625,0)" xlink:href="#G"/><use transform="matrix(0.0087890625,0,0,0.0087890625,58.04296875,0)" xlink:href="#E"/><use transform="matrix(0.0087890625,0,0,0.0087890625,68.0185546875,0)" xlink:href="#D"/><use transform="matrix(0.0087890625,0,0,0.0087890625,71.9296875,0)" xlink:href="#az"/><use transform="matrix(0.0087890625,0,0,0.0087890625,81.2724609375,0)" xlink:href="#H"/><use transform="matrix(0.0087890625,0,0,0.0087890625,90.5712890625,0)" xlink:href="#R"/></g><g id="q"><use transform="matrix(0.0087890625,0,0,0.0087890625,0,0)" xlink:href="#X"/><use transform="matrix(0.0087890625,0,0,0.0087890625,9.94921875,0)" xlink:href="#F"/><use transform="matrix(0.0087890625,0,0,0.0087890625,19.7314453125,0)" xlink:href="#Q"/><use transform="matrix(0.0087890625,0,0,0.0087890625,29.1181640625,0)" xlink:href="#A"/></g><g id="s"><use transform="matrix(0.0087890625,0,0,0.0087890625,0,0)" xlink:href="#z"/><use transform="matrix(0.0087890625,0,0,0.0087890625,9.0703125,0)" xlink:href="#A"/></g><path fill="#e5e5e5" d="M584-1365c326 0 553 334 548 674-5 286-156 533-352 633 45 103 67 168 67 196 0 50-51 99-101 99-69 0-122-80-159-239C265 29 72-294 72-614c0-177 41-339 123-487 97-176 227-264 389-264zM713-253c124-77 219-244 219-438 0-191-91-355-215-432-167-102-280-19-367 169-89 192-115 401-19 587 45 85 106 139 183 162-39-95-58-155-58-179 0-50 50-99 100-99 62 0 114 77 157 230" id="aA"/><g id="t"><use transform="matrix(0.0087890625,0,0,0.0087890625,0,0)" xlink:href="#X"/><use transform="matrix(0.0087890625,0,0,0.0087890625,9.94921875,0)" xlink:href="#F"/><use transform="matrix(0.0087890625,0,0,0.0087890625,19.7314453125,0)" xlink:href="#aA"/></g><path fill="#e5e5e5" d="M819-1377c51-2 99 48 99 100 0 45-37 111-112 198-69 79-142 155-210 234-77 90-113 163-113 215 0 67 40 139 121 214 9 8 85 66 227 174 81 61 121 110 121 146 0 52-54 107-105 105-17 0-40-10-67-29-196-143-322-233-435-405-11 59-17 288-43 364-14 42-49 61-95 61-56 0-96-49-96-104 0-132 56-634 60-717 3-65 6-162 6-293 7-35 10-86 21-152 11-67 48-99 99-99 53 0 101 46 101 99 0 47-7 172-21 377 82-84 176-223 268-326 95-107 151-162 174-162" id="aB"/><path fill="#e5e5e5" d="M534 0c-54 1-104-40-104-96 0-45 18-79 58-93 38-13 78-19 114-33 139-52 207-229 207-522-71 158-178 237-321 237-171 0-289-87-355-261-43-114-65-273-65-478 0-79 34-119 101-119 58 0 96 44 106 134 10 91 12 183 22 275 13 113 52 188 113 226 57 35 92 27 153-4 115-60 203-251 231-413 5-26 9-65 25-113s51-71 94-71c48 0 84 32 102 97 48 177 15 638-17 760-49 186-136 325-271 414C667-20 603 0 534 0" id="aC"/><g id="u"><use transform="matrix(0.0087890625,0,0,0.0087890625,0,0)" xlink:href="#J"/><use transform="matrix(0.0087890625,0,0,0.0087890625,9.38671875,0)" xlink:href="#H"/><use transform="matrix(0.0087890625,0,0,0.0087890625,18.685546875,0)" xlink:href="#D"/><use transform="matrix(0.0087890625,0,0,0.0087890625,22.5966796875,0)" xlink:href="#G"/><use transform="matrix(0.0087890625,0,0,0.0087890625,31.1044921875,0)" xlink:href="#aB"/><use transform="matrix(0.0087890625,0,0,0.0087890625,40.4912109375,0)" xlink:href="#aC"/><use transform="matrix(0.0087890625,0,0,0.0087890625,50.5546875,0)" xlink:href="#z"/><use transform="matrix(0.0087890625,0,0,0.0087890625,59.625,0)" xlink:href="#A"/><use transform="matrix(0.0087890625,0,0,0.0087890625,69.5830078125,0)" xlink:href="#ay"/></g><path fill="#7ab648" d="M186 0C125 1 80-61 94-128c102-498 136-682 239-1056 16-58 29-97 39-118 39-81 152-87 186 3 8 21 18 60 27 118 29 181 80 412 149 693 44-195 134-593 229-824 15-37 48-53 85-53 50 0 90 31 101 97 20 117 17 225 52 381 45 201 159 605 163 785 2 54-42 102-96 102-45 0-83-20-96-65-37-130-44-258-87-432-40-161-61-264-70-309-35 138-85 345-146 622-13 58-24 96-31 117-30 83-132 87-176 19-11-18-25-49-39-97-63-219-121-453-172-703-35 145-84 365-140 660-11 60-19 102-29 123-19 43-51 65-96 65" id="aD"/><path fill="#7ab648" d="M608-1364c322 0 518 229 518 557 0 183-50 357-151 522C858-95 714 0 543 0 269 0 96-283 96-570c0-191 37-362 112-512 94-188 228-282 400-282zm319 550c0-231-117-347-350-347-81 0-151 81-210 243-48 132-72 248-72 348 0 161 47 272 142 333 35 23 69 34 101 34 113 0 207-77 286-229 68-131 103-258 103-382" id="aE"/><path fill="#7ab648" d="M828-1263c0-55 41-106 95-102 140 10 133 224 150 372 25 219 36 341 36 365 0 117-18 227-54 328C982-97 873 5 730 5 530 5 400-187 341-570c-16 123-24 243-24 360C317-70 280 0 205 0c-53 0-99-44-99-97 0-314 85-1024 186-1197 27-46 56-71 94-71 52 0 87 33 104 99 5 21 8 92 8 213 0 153 26 313 55 481 43 253 101 379 172 379 116 0 183-303 183-438 0-120-80-513-80-632" id="aF"/><path fill="#7ab648" d="M614-594c163 0 326 124 326 282C940-155 729 5 567 0 380-5 228-157 169-307c-32-81-50-172-50-277 0-291 84-515 251-672 123-114 254-148 400-60 53 32 92 76 123 123 43 67-18 153-86 152-24 0-53-21-88-61s-68-60-99-60c-180 0-299 367-299 568 0 189 80 393 249 393 77 0 149-57 167-118-25-60-81-80-164-74-50 4-95-50-95-100 0-67 45-101 136-101" id="aG"/><path fill="#7ab648" d="M379-1365c368 0 677 218 677 573 0 172-83 346-249 522C639-90 470 0 299 0 185 0 128-80 128-239c0-257 31-558 68-915-53-11-80-43-80-95 0-56 32-93 97-108 26-6 82-8 166-8zm20 204c-15 77-48 489-71 917 0 13 0 27 1 41 116-22 232-92 347-210 119-123 179-241 179-355-1-195-66-277-208-343-75-35-158-50-248-50" id="aH"/><path fill="#7ab648" d="M104-254c0-80 75-479 73-483 4-23 17-167 40-434-41-20-62-51-62-94 0-67 48-100 145-100 431 0 647 127 647 380 0 161-86 280-258 359 120 81 180 177 180 290 0 173-116 256-272 302C523-12 452 0 384 0 197 0 104-85 104-254zm642-722c0-105-210-177-326-186-9 140-24 282-43 426 246-59 369-139 369-240zm-77 638c-27-89-136-153-326-193-27 162-48 229-34 323 82 18 157 3 237-24 75-26 116-61 123-106" id="aI"/><g id="v"><use transform="matrix(0.0087890625,0,0,0.0087890625,0,0)" xlink:href="#aD"/><use transform="matrix(0.0087890625,0,0,0.0087890625,12.8408203125,0)" xlink:href="#aE"/><use transform="matrix(0.0087890625,0,0,0.0087890625,23.537109375,0)" xlink:href="#aF"/><use transform="matrix(0.0087890625,0,0,0.0087890625,34.259765625,0)" xlink:href="#aG"/><use transform="matrix(0.0087890625,0,0,0.0087890625,43.59375,0)" xlink:href="#aE"/><use transform="matrix(0.0087890625,0,0,0.0087890625,54.2900390625,0)" xlink:href="#aH"/><use transform="matrix(0.0087890625,0,0,0.0087890625,64.1337890625,0)" xlink:href="#aI"/></g><path fill="#7ab648" d="M922-654c-9 182 20 369 29 555 5 90-140 139-183 58-2-3-13-31-31-85-54-160-191-263-414-306-19 75-30 243-58 360-12 50-51 72-98 72-55 0-99-53-99-108 1-366 195-896 360-1117 69-92 141-140 222-140 182 0 273 207 273 621 0 19 1 49-1 90zM724-476v-400c-20-103-13-145-35-225-11-40-25-60-40-60-32 0-83 65-154 195-56 103-99 215-130 336 137 27 256 79 359 154" id="aJ"/><path fill="#7ab648" d="M46-1227c0-128 188-119 328-120 79-1 391-35 488-35 99 0 148 35 148 105 0 65-48 98-145 98-76 0-153 3-232 8 1 179-14 796-13 976C622-79 604-4 510 0c-53 2-99-44-99-97v-270c21-312 24-505 22-785-143 13-240 20-291 20-64 0-96-32-96-95" id="aK"/><g id="w"><use transform="matrix(0.0087890625,0,0,0.0087890625,0,0)" xlink:href="#aH"/><use transform="matrix(0.0087890625,0,0,0.0087890625,9.84375,0)" xlink:href="#aJ"/><use transform="matrix(0.0087890625,0,0,0.0087890625,19.23046875,0)" xlink:href="#aK"/><use transform="matrix(0.0087890625,0,0,0.0087890625,28.529296875,0)" xlink:href="#aJ"/></g><path fill="#7ab648" d="M196-1063c0-251 371-378 608-255 71 37 119 87 150 151 35 73-14 152-87 150-26 0-63-25-111-73s-102-72-162-72c-72 0-200 37-200 99 0 43 47 111 142 203 145 142 234 232 266 271 95 116 142 225 142 328C944-95 791 0 613 0 494 0 170-60 118-111c-29-29-48-55-48-87-1-69 67-120 140-92h-2c162 59 305 89 429 89 69 0 104-25 104-75 0-69-47-151-142-245-86-86-177-167-261-254-98-100-142-199-142-288" id="aL"/><path fill="#7ab648" d="M369 0C201 0 119-119 119-294c0-119 26-272 77-457 80-290 99-377 125-524 7-13 27-26 60-41 71-33 211-49 419-49 129 0 193 36 193 107 0 50-48 105-99 101-142-10-258-9-397 20-11 59-34 158-69 297 146-57 246-85 301-85 53 0 100 43 100 96 0 43-23 80-73 99-127 49-178 54-389 129-29 119-44 224-44 314 0 58 10 87 30 87 66 0 151-30 256-90s173-91 205-91c50 0 101 49 101 99 0 30-19 57-51 87C794-129 500 0 369 0" id="aM"/><path fill="#7ab648" d="M432-1365c342 0 623 232 623 568 0 219-132 374-395 466 145 90 217 167 217 230 0 52-52 98-104 96-17 0-39-10-66-29-90-65-203-166-304-203v78C403-53 368 0 299 0c-53 0-99-44-99-97v-374c17-145 25-361 25-650-2 5-10 7-24 7-53 2-99-46-99-99 0-112 194-152 330-152zm257 786c221-128 209-317 21-469-89-71-178-111-268-119-1 97-2 329-2 698 90-27 172-66 249-110" id="aN"/><path fill="#7ab648" d="M925-1365c52 0 103 46 101 97 0 23-38 113-113 270-125 261-227 519-304 774-21 71-38 117-49 139-29 57-63 85-104 85-109-1-156-321-181-456-30-165-184-659-203-805-7-52 44-104 97-104 40 0 72 25 99 73 46 84 66 250 92 370 23 106 68 262 121 471 71-167 173-418 306-754 20-51 35-86 46-104 25-37 55-56 92-56" id="aO"/><path fill="#7ab648" d="M270-1365c53 0 101 46 100 99-5 357-80 777-80 1073C290-64 254 0 183 0 132 0 82-50 82-101c0-298 47-662 55-976 2-76 19-138 34-189 19-66 52-99 99-99" id="aP"/><path fill="#7ab648" d="M773-362c52-3 103 50 103 101 0 27-17 56-48 89C762-102 548 0 418 0 210 0 81-204 84-422c3-221 73-486 152-640 103-201 220-303 358-303 167 0 251 128 251 385 0 123-35 185-106 185-48 0-101-46-99-94 2-77 27-278-39-278-46 0-94 47-150 138-89 144-168 415-168 602 0 146 56 219 169 219 46 0 106-26 180-77s122-77 141-77" id="aQ"/><g id="x"><use transform="matrix(0.0087890625,0,0,0.0087890625,0,0)" xlink:href="#aL"/><use transform="matrix(0.0087890625,0,0,0.0087890625,9.38671875,0)" xlink:href="#aM"/><use transform="matrix(0.0087890625,0,0,0.0087890625,19.1689453125,0)" xlink:href="#aN"/><use transform="matrix(0.0087890625,0,0,0.0087890625,29.14453125,0)" xlink:href="#aO"/><use transform="matrix(0.0087890625,0,0,0.0087890625,38.548828125,0)" xlink:href="#aP"/><use transform="matrix(0.0087890625,0,0,0.0087890625,42.4599609375,0)" xlink:href="#aQ"/><use transform="matrix(0.0087890625,0,0,0.0087890625,50.9677734375,0)" xlink:href="#aM"/></g><path fill="#7ab648" d="M430-1365c53 0 103 46 101 99 6 2-144 293-135 283-45 115-67 263-67 445 0 89 34 260 81 437C412-48 357 0 305 0 176 0 126-356 126-531c0-295 57-536 171-723 45-74 89-111 133-111" id="aR"/><path fill="#7ab648" d="M758-451c66-46 150 20 150 87 0 27-17 54-48 86C767-182 488 0 328 0 185 0 113-109 113-326c0-170 46-508 46-695 0-141-8-341 119-344 53-2 103 46 101 99-3-2-26 472-39 636-16 198-28 312-28 343 0 57 11 86 33 86 60 0 168-62 324-185 19-16 49-38 89-65" id="aS"/><path fill="#7ab648" d="M920-744c0 218 15 427 27 645 5 89-139 139-182 58-3-3-13-32-31-85-53-161-192-263-415-306-18 75-30 243-58 360-12 50-50 72-97 72-56 0-99-53-99-108 1-367 194-896 360-1117 69-92 141-140 222-140 182 0 273 207 273 621zM720-476v-400c-19-103-12-145-34-225-11-40-25-60-41-60-32 0-83 65-153 195-56 103-99 215-130 336 137 27 256 79 358 154" id="aT"/><path fill="#7ab648" d="M218-1263c0-53 53-102 105-102 66 0 117 71 145 216 71 369 11 792-142 1038C281-38 239 0 196 0 144 0 87-46 92-99c2-26 67-122 87-155 105-188 159-578 72-860-24-76-33-126-33-149" id="aU"/><g id="y"><use transform="matrix(0.0087890625,0,0,0.0087890625,0,0)" xlink:href="#aR"/><use transform="matrix(0.0087890625,0,0,0.0087890625,5.51953125,0)" xlink:href="#aG"/><use transform="matrix(0.0087890625,0,0,0.0087890625,14.853515625,0)" xlink:href="#aE"/><use transform="matrix(0.0087890625,0,0,0.0087890625,25.5498046875,0)" xlink:href="#aS"/><use transform="matrix(0.0087890625,0,0,0.0087890625,33.591796875,0)" xlink:href="#aT"/><use transform="matrix(0.0087890625,0,0,0.0087890625,42.873046875,0)" xlink:href="#aF"/><use transform="matrix(0.0087890625,0,0,0.0087890625,53.595703125,0)" xlink:href="#aG"/><use transform="matrix(0.0087890625,0,0,0.0087890625,62.9296875,0)" xlink:href="#aU"/></g></defs></g></svg>