<svg xmlns="http://www.w3.org/2000/svg" xmlns:xlink="http://www.w3.org/1999/xlink" xmlns:lucid="lucid" width="875.17" height="363"><g transform="translate(-24.976076555023894 -80)" lucid:page-tab-id="MSrvCo~hl1sf"><path d="M301.85 100h280v60h-280z" stroke="#e7ad52" stroke-width="2" fill="none"/><use xlink:href="#a" transform="matrix(1,0,0,1,306.8480861244019,105) translate(32.55029296875 30.10205078125)"/><path d="M44.98 240h280v60h-280z" stroke="#e7ad52" stroke-width="2" fill="none"/><use xlink:href="#b" transform="matrix(1,0,0,1,49.976076555023894,245) translate(46.97314453125 20.8076171875)"/><use xlink:href="#c" transform="matrix(1,0,0,1,49.976076555023894,245) translate(73.1689453125 39.396484375)"/><use xlink:href="#d" transform="matrix(1,0,0,1,49.976076555023894,245) translate(139.1923828125 39.396484375)"/><path d="M344.4 240h117.45v60H344.4z" stroke="#e7ad52" stroke-width="2" fill="none"/><use xlink:href="#e" transform="matrix(1,0,0,1,349.40789473684214,245) translate(23.82275390625 20.8076171875)"/><use xlink:href="#f" transform="matrix(1,0,0,1,349.40789473684214,245) translate(26.9384765625 39.396484375)"/><path d="M481.28 240h80v60h-80z" stroke="#e7ad52" stroke-width="2" fill="none"/><use xlink:href="#g" transform="matrix(1,0,0,1,486.27990430622015,245) translate(19.29833984375 20.8076171875)"/><use xlink:href="#h" transform="matrix(1,0,0,1,486.27990430622015,245) translate(10.5048828125 39.396484375)"/><path d="M580.7 237.12h140v65.76h-140z" stroke="#e7ad52" stroke-width="2" fill="none"/><use xlink:href="#i" transform="matrix(1,0,0,1,585.7117224880383,242.11669921875) translate(30.7490234375 23.8076171875)"/><use xlink:href="#c" transform="matrix(1,0,0,1,585.7117224880383,242.11669921875) translate(3.1689453125 42.396484375)"/><use xlink:href="#d" transform="matrix(1,0,0,1,585.7117224880383,242.11669921875) translate(69.1923828125 42.396484375)"/><path d="M740.14 237h140v65.77h-140z" stroke="#e7ad52" stroke-width="2" fill="none"/><use xlink:href="#j" transform="matrix(1,0,0,1,745.1435406698565,242) translate(37.01123046875 23.8076171875)"/><use xlink:href="#k" transform="matrix(1,0,0,1,745.1435406698565,242) translate(23.6650390625 42.396484375)"/><use xlink:href="#d" transform="matrix(1,0,0,1,745.1435406698565,242) translate(48.6962890625 42.396484375)"/><path d="M463.4 363h117.45v60H463.4z" stroke="#e7ad52" stroke-width="2" fill="none"/><use xlink:href="#l" transform="matrix(1,0,0,1,468.4078947368423,368) translate(20.32470703125 20.8076171875)"/><use xlink:href="#m" transform="matrix(1,0,0,1,468.4078947368423,368) translate(39.44091796875 39.396484375)"/><path d="M85.55 357.12h198.6v65.76H85.54z" stroke="#e7ad52" stroke-width="2" fill="none"/><use xlink:href="#n" transform="matrix(1,0,0,1,90.55203349282296,362.11669921875) translate(26.91650390625 23.8076171875)"/><use xlink:href="#c" transform="matrix(1,0,0,1,90.55203349282296,362.11669921875) translate(32.6689453125 42.396484375)"/><use xlink:href="#d" transform="matrix(1,0,0,1,90.55203349282296,362.11669921875) translate(98.6923828125 42.396484375)"/><path d="M441.85 160v.4l-.03.38-.04.38-.06.38-.07.38-.1.4-.1.38-.13.4-.15.4-.17.4-.2.4-.22.44-.25.44-.3.46-.33.47-.37.5-.44.53-.5.55-.57.6-.67.6-.78.68-.9.72-1.1.8-1.3.85-1.58.96-1.95 1.06-2.44 1.2-3.12 1.4-4.1 1.62-5.6 1.94-7.96 2.4-12.2 3.1-21.6 4.54-139.8 24.22-12.22 3.1-7.96 2.4-5.6 1.94-4.1 1.62-3.13 1.4-2.43 1.2-1.95 1.07-1.58.97-1.3.86-1.1.8-.9.7-.78.68-.66.63-.57.6-.5.54-.43.52-.38.5-.33.46-.3.46-.26.44-.22.43-.2.4-.17.4-.15.4-.12.4-.1.4-.1.38-.07.38-.05.38-.04.38-.02.4v.38" stroke="#e7ad52" stroke-width="2" fill="none"/><path d="M442.66 160.58l-.8-.58h1.22zM197.06 231.1l-12.08 8.9 4.55-14.3z" fill="#e7ad52"/><path d="M198.76 231.1l-12.1 8.9h-2.73l5.06-15.9zm-11.9 6.27l8.5-6.25-5.3-3.8z" fill="#e7ad52"/><path d="M441.85 160l-.1 3.65-.32 3.26-.47 3-.6 2.76-.77 2.6-.9 2.52-1.06 2.46-1.25 2.46-1.5 2.54-1.86 2.74-2.46 3.2-4.1 4.64-12.08 13-2.46 3.2-1.86 2.74-1.5 2.54-1.24 2.46-1.06 2.46-.9 2.5-.75 2.62-.62 2.77-.45 3-.3 3.25-.12 3.65" stroke="#e7ad52" stroke-width="2" fill="none"/><path d="M442.84 160.14l-1-.14h1.02zM409.74 226.53l-6.6 13.47-2.58-14.78z" fill="#e7ad52"/><path d="M411.24 225.74l-7 14.26h-2.13l-2.76-15.96zm-7.65 11.06l4.63-9.47-6.45-.92z" fill="#e7ad52"/><path d="M441.85 160l.06 1.82.17 1.73.26 1.65.36 1.6.45 1.57.56 1.55.7 1.54.8 1.55.93 1.6 1.12 1.62 1.33 1.7 1.6 1.8 1.97 1.94 2.48 2.15 3.22 2.47 4.52 3.02 7.56 4.35 30.4 16.06 4.5 3.03 3.24 2.46 2.47 2.14 1.97 1.94 1.62 1.8 1.33 1.7 1.12 1.63.94 1.6.8 1.54.68 1.54.56 1.55.46 1.56.36 1.6.27 1.65.16 1.73.05 1.82" stroke="#e7ad52" stroke-width="2" fill="none"/><path d="M440.9 160.28l-.1-.28h1.05zM520.85 239l-8.38-12.44 8.92-2.55z" fill="#e7ad52"/><path d="M521.8 240h-1.48l-9.45-14.03 11.57-3.3zm-7.73-12.86l5.9 8.75.37-10.55z" fill="#e7ad52"/><path d="M441.85 160v.45l.04.43.03.44.06.43.08.44.1.42.12.44.14.44.17.44.2.46.22.46.25.48.28.5.32.5.37.52.42.55.47.58.55.6.62.65.73.68.84.73 1 .8 1.17.84 1.4.93 1.7 1.03 2.1 1.15 2.6 1.3 3.36 1.48 4.4 1.74 6.04 2.1 8.73 2.62 14.04 3.57 32.12 6.67 71.63 14.06 14.04 3.57 8.72 2.62 6.03 2.1 4.4 1.73 3.36 1.5 2.62 1.3 2.1 1.13 1.7 1.03 1.4.95 1.18.85 1 .78.83.73.73.7.62.63.55.6.47.58.42.56.37.52.3.5.3.5.24.47.22.47.2.45.16.45.14.44.12.44.1.43.08.43.07.44.04.43.03.44v.45" stroke="#e7ad52" stroke-width="2" fill="none"/><path d="M441 160.55l-.35-.55h1.2zM650.7 237.12l-11.68-9.4 7.75-5.08z" fill="#e7ad52"/><path d="M651.75 237.12h-2.64l-11.78-9.48 10.06-6.6zm-11.03-9.3l8.22 6.6-2.77-10.2z" fill="#e7ad52"/><path d="M441.85 160v.25l.02.25.03.25.03.25.05.26.06.25.07.27.1.26.1.27.1.27.14.28.16.3.17.3.2.3.23.33.26.35.3.36.34.37.4.4.47.45.56.48.65.5.78.58.94.62 1.15.7 1.43.8 1.8.88 2.34 1.03 3.08 1.23 4.2 1.45 5.95 1.8 8.92 2.27 14.48 3.04 27.1 4.5 95.86 11.38 119.24 13.82 27.1 4.5 14.48 3.05 8.93 2.28 5.95 1.8 4.2 1.44 3.07 1.22 2.33 1.02 1.8.9 1.44.78 1.15.7.93.62.78.57.67.5.55.48.47.44.4.4.33.4.3.35.27.35.22.33.2.3.18.3.15.3.13.28.1.27.1.27.1.26.07.26.06.24.06.26.04.25.02.25.02.25v.25" stroke="#e7ad52" stroke-width="2" fill="none"/><path d="M441.13 160.7l-.67-.7h1.4zM810.14 237l-13.24-7.04 6.67-6.44z" fill="#e7ad52"/><path d="M811.26 237H808l-12.8-6.8 8.66-8.36zm-12.68-7.28l9.32 4.95-4.63-9.48z" fill="#e7ad52"/><path d="M184.98 300v56.12" stroke="#e7ad52" stroke-width="2" fill="none"/><path d="M185.98 300h-2 2zM184.98 356.12l-4.64-14.27h9.27z" fill="#e7ad52"/><path d="M185.7 357.12h-1.45l-5.3-16.27H191zm-3.98-14.27l3.26 10.03 3.25-10.03z" fill="#e7ad52"/><path d="M521.28 300l.85 63" stroke="#e7ad52" stroke-width="2" fill="none"/><path d="M520.28 300h1.07zM522.13 363l-4.83-14.2 9.27-.13z" fill="#e7ad52"/><path d="M523.17 363h-2.1l-5.16-15.18 12.03-.17zm-4.48-13.22l3.38 9.98 3.13-10.07z" fill="#e7ad52"/><defs><path fill="#e5e5e5" d="M922-654c-9 182 20 369 29 555 5 90-140 139-183 58-2-3-13-31-31-85-54-160-191-263-414-306-19 75-30 243-58 360-12 50-51 72-98 72-55 0-99-53-99-108 1-366 195-896 360-1117 69-92 141-140 222-140 182 0 273 207 273 621 0 19 1 49-1 90zM724-476v-400c-20-103-13-145-35-225-11-40-25-60-40-60-32 0-83 65-154 195-56 103-99 215-130 336 137 27 256 79 359 154" id="o"/><path fill="#e5e5e5" d="M387-1365c369 0 678 217 678 573 0 172-83 346-249 522C647-90 478 0 307 0 194 0 137-80 137-239c0-257 30-558 68-915-53-11-80-43-80-95 0-56 32-93 97-108 26-6 81-8 165-8zm21 204c-15 76-47 491-72 917 0 13 1 27 2 41 116-22 231-92 346-210 120-123 180-241 180-355-1-196-67-277-209-343-74-35-157-50-247-50" id="p"/><path fill="#e5e5e5" d="M777-672c57 0 100 48 100 105 0 58-42 105-100 104-73-2-320 16-393 16-130 0-195-37-195-111 0-50 47-104 98-104 25 0 103 5 128 5 66 0 296-15 362-15" id="q"/><path fill="#e5e5e5" d="M270-1365c53 0 101 46 100 99-5 357-80 777-80 1073C290-64 254 0 183 0 132 0 82-50 82-101c0-298 47-662 55-976 2-76 19-138 34-189 19-66 52-99 99-99" id="r"/><path fill="#e5e5e5" d="M432-1365c342 0 623 232 623 568 0 219-132 374-395 466 145 90 217 167 217 230 0 52-52 98-104 96-17 0-39-10-66-29-90-65-203-166-304-203v78C403-53 368 0 299 0c-53 0-99-44-99-97v-374c17-145 25-361 25-650-2 5-10 7-24 7-53 2-99-46-99-99 0-112 194-152 330-152zm257 786c221-128 209-317 21-469-89-71-178-111-268-119-1 97-2 329-2 698 90-27 172-66 249-110" id="s"/><path fill="#e5e5e5" d="M369 0C201 0 119-119 119-294c0-119 26-272 77-457 80-290 99-377 125-524 7-13 27-26 60-41 71-33 211-49 419-49 129 0 193 36 193 107 0 50-48 105-99 101-142-10-258-9-397 20-11 59-34 158-69 297 146-57 246-85 301-85 53 0 100 43 100 96 0 43-23 80-73 99-127 49-178 54-389 129-29 119-44 224-44 314 0 58 10 87 30 87 66 0 151-30 256-90s173-91 205-91c50 0 101 49 101 99 0 30-19 57-51 87C794-129 500 0 369 0" id="t"/><path fill="#e5e5e5" d="M773-362c52-3 103 50 103 101 0 27-17 56-48 89C762-102 548 0 418 0 210 0 81-204 84-422c3-221 73-486 152-640 103-201 220-303 358-303 167 0 251 128 251 385 0 123-35 185-106 185-48 0-101-46-99-94 2-77 27-278-39-278-46 0-94 47-150 138-89 144-168 415-168 602 0 146 56 219 169 219 46 0 106-26 180-77s122-77 141-77" id="u"/><path fill="#e5e5e5" d="M46-1227c0-128 188-119 328-120 79-1 391-35 488-35 99 0 148 35 148 105 0 65-48 98-145 98-76 0-153 3-232 8 1 179-14 796-13 976C622-79 604-4 510 0c-53 2-99-44-99-97v-270c21-312 24-505 22-785-143 13-240 20-291 20-64 0-96-32-96-95" id="v"/><path fill="#e5e5e5" d="M609-1364c323 0 519 229 519 557 0 183-51 357-152 522C860-95 716 0 544 0 271 0 97-283 97-570c0-191 38-362 113-512 95-188 228-282 399-282zm319 550c0-231-116-347-349-347-81 0-151 81-210 243-48 132-72 248-72 348 0 161 47 272 142 333 35 23 69 34 100 34 113 0 208-76 287-229 68-131 102-258 102-382" id="w"/><path fill="#e5e5e5" d="M925-1365c50 0 101 48 101 99 0 165-53 833-94 1164C923-33 882 0 831 0c-53 0-101-49-101-102 0-145 29-345 45-490-111 9-252 35-425 78-6 58-9 145-9 260 0 35-10 86-22 153C307-33 270 0 220 0c-53 0-103-48-102-101 6-372 65-764 56-1090-3-108 18-171 108-174 55-2 99 41 99 97v544c167-44 304-66 413-66 7-75 10-182 10-321 8-35 11-88 22-155s48-99 99-99" id="x"/><path fill="#e5e5e5" d="M829-1263c0-55 42-106 96-102 141 10 133 224 150 372 25 219 36 341 36 365 0 117-18 227-55 328C983-97 875 5 732 5 532 5 402-187 343-570c-16 123-24 243-24 360C319-70 282 0 207 0c-53 0-99-44-99-97 0-315 85-1025 186-1197 27-46 56-71 93-71 53 0 88 33 105 99 5 21 8 92 8 213 0 153 26 313 55 481 43 253 101 379 172 379 116 0 183-303 183-438 0-120-81-513-81-632" id="y"/><path fill="#e5e5e5" d="M621-594c163 0 326 124 326 282S736 5 573 0C387-6 235-158 176-307c-32-81-50-172-50-277 0-291 84-515 251-672 123-114 255-148 401-60 53 32 90 76 121 123 44 67-17 153-85 152-24 0-53-21-88-61s-68-60-100-60c-180 0-298 367-298 568 0 189 80 393 249 393 76 0 150-57 167-118-25-60-81-80-164-74-50 4-95-50-95-100 0-67 45-101 136-101" id="z"/><path fill="#e5e5e5" d="M759-451c68-46 151 19 151 87 0 27-17 54-48 86C767-182 491 0 329 0 186 0 114-109 114-326c0-169 46-507 46-695 0-139-8-341 120-344 53-2 103 46 101 99-4-2-27 472-40 636-16 198-27 312-27 343 0 57 11 86 32 86 61 0 169-62 325-185 19-16 49-38 88-65" id="A"/><g id="a"><use transform="matrix(0.0087890625,0,0,0.0087890625,0,0)" xlink:href="#o"/><use transform="matrix(0.0087890625,0,0,0.0087890625,9.38671875,0)" xlink:href="#p"/><use transform="matrix(0.0087890625,0,0,0.0087890625,19.3447265625,0)" xlink:href="#q"/><use transform="matrix(0.0087890625,0,0,0.0087890625,28.7666015625,0)" xlink:href="#p"/><use transform="matrix(0.0087890625,0,0,0.0087890625,38.724609375,0)" xlink:href="#r"/><use transform="matrix(0.0087890625,0,0,0.0087890625,42.6357421875,0)" xlink:href="#s"/><use transform="matrix(0.0087890625,0,0,0.0087890625,52.611328125,0)" xlink:href="#t"/><use transform="matrix(0.0087890625,0,0,0.0087890625,62.3935546875,0)" xlink:href="#u"/><use transform="matrix(0.0087890625,0,0,0.0087890625,70.9013671875,0)" xlink:href="#v"/><use transform="matrix(0.0087890625,0,0,0.0087890625,80.2001953125,0)" xlink:href="#w"/><use transform="matrix(0.0087890625,0,0,0.0087890625,90.9228515625,0)" xlink:href="#s"/><use transform="matrix(0.0087890625,0,0,0.0087890625,100.1513671875,0)" xlink:href="#q"/><use transform="matrix(0.0087890625,0,0,0.0087890625,109.5732421875,0)" xlink:href="#u"/><use transform="matrix(0.0087890625,0,0,0.0087890625,118.0810546875,0)" xlink:href="#x"/><use transform="matrix(0.0087890625,0,0,0.0087890625,128.1181640625,0)" xlink:href="#o"/><use transform="matrix(0.0087890625,0,0,0.0087890625,137.5048828125,0)" xlink:href="#y"/><use transform="matrix(0.0087890625,0,0,0.0087890625,148.2626953125,0)" xlink:href="#z"/><use transform="matrix(0.0087890625,0,0,0.0087890625,157.4736328125,0)" xlink:href="#t"/><use transform="matrix(0.0087890625,0,0,0.0087890625,167.255859375,0)" xlink:href="#q"/><use transform="matrix(0.0087890625,0,0,0.0087890625,176.677734375,0)" xlink:href="#A"/><use transform="matrix(0.0087890625,0,0,0.0087890625,184.728515625,0)" xlink:href="#w"/><use transform="matrix(0.0087890625,0,0,0.0087890625,195.451171875,0)" xlink:href="#z"/></g><path fill="#e5e5e5" d="M188 0C127 1 82-61 96-128c102-498 136-682 239-1056 16-58 29-97 39-118 39-81 152-87 186 3 8 21 18 60 27 118 29 181 79 412 149 693 44-195 133-594 228-824 15-37 48-53 86-53 50 0 89 31 100 97 19 117 18 225 53 381 45 201 158 605 162 785 1 54-41 102-95 102-46 0-83-20-96-65-38-130-44-258-87-432-40-161-61-264-70-309-35 138-86 345-147 622-13 58-23 96-30 117-29 83-132 87-176 19-11-18-25-49-39-97-63-219-122-453-173-703-35 145-85 365-140 660-11 60-19 101-29 123-20 43-51 65-95 65" id="B"/><g id="b"><use transform="matrix(0.0087890625,0,0,0.0087890625,0,0)" xlink:href="#o"/><use transform="matrix(0.0087890625,0,0,0.0087890625,9.38671875,0)" xlink:href="#p"/><use transform="matrix(0.0087890625,0,0,0.0087890625,19.3447265625,0)" xlink:href="#q"/><use transform="matrix(0.0087890625,0,0,0.0087890625,28.7666015625,0)" xlink:href="#p"/><use transform="matrix(0.0087890625,0,0,0.0087890625,38.724609375,0)" xlink:href="#r"/><use transform="matrix(0.0087890625,0,0,0.0087890625,42.6357421875,0)" xlink:href="#s"/><use transform="matrix(0.0087890625,0,0,0.0087890625,52.611328125,0)" xlink:href="#t"/><use transform="matrix(0.0087890625,0,0,0.0087890625,62.3935546875,0)" xlink:href="#u"/><use transform="matrix(0.0087890625,0,0,0.0087890625,70.9013671875,0)" xlink:href="#v"/><use transform="matrix(0.0087890625,0,0,0.0087890625,80.2001953125,0)" xlink:href="#w"/><use transform="matrix(0.0087890625,0,0,0.0087890625,90.9228515625,0)" xlink:href="#s"/><use transform="matrix(0.0087890625,0,0,0.0087890625,100.1513671875,0)" xlink:href="#q"/><use transform="matrix(0.0087890625,0,0,0.0087890625,109.5732421875,0)" xlink:href="#u"/><use transform="matrix(0.0087890625,0,0,0.0087890625,118.0810546875,0)" xlink:href="#w"/><use transform="matrix(0.0087890625,0,0,0.0087890625,128.8037109375,0)" xlink:href="#B"/><use transform="matrix(0.0087890625,0,0,0.0087890625,141.6884765625,0)" xlink:href="#B"/><use transform="matrix(0.0087890625,0,0,0.0087890625,154.5732421875,0)" xlink:href="#w"/><use transform="matrix(0.0087890625,0,0,0.0087890625,165.2958984375,0)" xlink:href="#y"/></g><path fill="#e5e5e5" d="M196-1063c0-251 371-378 608-255 71 37 119 87 150 151 35 73-14 152-87 150-26 0-63-25-111-73s-102-72-162-72c-72 0-200 37-200 99 0 43 47 111 142 203 145 142 234 232 266 271 95 116 142 225 142 328C944-95 791 0 613 0 494 0 170-60 118-111c-29-29-48-55-48-87-1-69 67-120 140-92h-2c162 59 305 89 429 89 69 0 104-25 104-75 0-69-47-151-142-245-86-86-177-167-261-254-98-100-142-199-142-288" id="C"/><g id="c"><use transform="matrix(0.0087890625,0,0,0.0087890625,0,0)" xlink:href="#B"/><use transform="matrix(0.0087890625,0,0,0.0087890625,12.884765625,0)" xlink:href="#o"/><use transform="matrix(0.0087890625,0,0,0.0087890625,22.271484375,0)" xlink:href="#C"/><use transform="matrix(0.0087890625,0,0,0.0087890625,31.67578125,0)" xlink:href="#v"/><use transform="matrix(0.0087890625,0,0,0.0087890625,40.974609375,0)" xlink:href="#t"/><use transform="matrix(0.0087890625,0,0,0.0087890625,50.7568359375,0)" xlink:href="#s"/></g><path fill="#e5e5e5" d="M111-254c0-80 75-479 73-483 3-23 17-167 40-434-41-20-62-51-62-94 0-67 48-100 145-100 431 0 647 127 647 380 0 161-86 280-258 359 120 81 180 177 180 290 0 173-116 256-272 302C530-12 459 0 391 0 204 0 111-85 111-254zm642-722c0-105-210-177-326-186-9 140-24 282-43 426 246-59 369-139 369-240zm-77 638c-27-89-136-153-326-193-27 162-48 229-34 323 82 18 157 3 237-24 75-26 116-61 123-106" id="D"/><g id="d"><use transform="matrix(0.0087890625,0,0,0.0087890625,0,0)" xlink:href="#D"/><use transform="matrix(0.0087890625,0,0,0.0087890625,9.123046875,0)" xlink:href="#s"/><use transform="matrix(0.0087890625,0,0,0.0087890625,18.94921875,0)" xlink:href="#o"/><use transform="matrix(0.0087890625,0,0,0.0087890625,28.3359375,0)" xlink:href="#y"/><use transform="matrix(0.0087890625,0,0,0.0087890625,39.09375,0)" xlink:href="#u"/><use transform="matrix(0.0087890625,0,0,0.0087890625,47.6015625,0)" xlink:href="#x"/></g><path fill="#e5e5e5" d="M393-1106c-85 0-123-115-69-169 75-41 289-90 328-90 67 0 116 76 148 227 21 100 33 204 33 312 0 359-41 594-120 707C607 32 419 27 252-68c-82-47-144-100-184-161-19-29-29-54-29-75-2-51 53-99 104-94 70 6 117 81 165 118 43 33 92 80 158 80 65 0 111-88 140-264 32-197 40-527-17-686-74 29-139 44-196 44" id="E"/><path fill="#e5e5e5" d="M1319-1365c51 0 104 50 101 100-10 151-188 568-251 746-42 119-107 332-145 435-41 112-162 111-205 2-9-23-20-69-34-138-17-86-44-213-77-384-29 121-72 278-128 471-24 85-42 143-123 143-41 0-71-22-90-66-8-19-18-59-29-120-39-219-218-896-246-1087-8-52 44-102 97-102 45 0 77 25 99 73 7 15 12 53 23 113 33 173 101 434 160 701 72-277 121-491 147-642 10-57 21-94 27-114 29-93 161-81 184 7 6 22 11 66 11 133 0 150 43 362 100 635l239-724c8-25 20-62 43-109 25-50 60-73 97-73" id="F"/><g id="e"><use transform="matrix(0.0087890625,0,0,0.0087890625,0,0)" xlink:href="#E"/><use transform="matrix(0.0087890625,0,0,0.0087890625,8.3232421875,0)" xlink:href="#F"/><use transform="matrix(0.0087890625,0,0,0.0087890625,21.462890625,0)" xlink:href="#v"/><use transform="matrix(0.0087890625,0,0,0.0087890625,30.76171875,0)" xlink:href="#q"/><use transform="matrix(0.0087890625,0,0,0.0087890625,40.18359375,0)" xlink:href="#z"/><use transform="matrix(0.0087890625,0,0,0.0087890625,49.6318359375,0)" xlink:href="#w"/></g><path fill="#e5e5e5" d="M925-1365c52 0 103 46 101 97 0 23-38 113-113 270-125 261-227 519-304 774-21 71-38 117-49 139-29 57-63 85-104 85-109-1-156-321-181-456-30-165-184-659-203-805-7-52 44-104 97-104 40 0 72 25 99 73 46 84 66 250 92 370 23 106 68 262 121 471 71-167 173-418 306-754 20-51 35-86 46-104 25-37 55-56 92-56" id="G"/><path fill="#e5e5e5" d="M602-1365c226 0 427 132 427 346 0 137-77 248-230 335 105 61 197 186 199 339 3 281-357 407-648 316-78-24-131-56-167-92-63-64-18-172 66-171 17 0 42 10 75 29 69 40 136 60 203 60 99 0 270-46 270-132 0-65-34-119-101-162-30-30-193-73-257-109-51-48-33-144 39-165 105-30 195-49 270-118 51-47 80-92 80-140 0-76-136-135-220-135-54 0-174 34-292 55-51 9-103-51-103-103 0-108 251-153 389-153" id="H"/><path fill="#e5e5e5" d="M137-119c0-58 89-135 145-135 71 0 107 42 107 126C389-63 336 0 270 0c-63 0-133-55-133-119" id="I"/><path fill="#e5e5e5" d="M666-1365c326 0 518 259 518 595 0 178-48 346-145 502C928-89 788 0 621 0 344 0 200-283 200-582c0-169 35-333 107-490 89-196 210-293 359-293zM401-582c0 173 76 381 229 381 86 0 168-71 247-214 71-127 106-239 106-334 0-219-129-422-336-417-153 61-246 349-246 584" id="J"/><g id="f"><use transform="matrix(0.0087890625,0,0,0.0087890625,0,0)" xlink:href="#G"/><use transform="matrix(0.0087890625,0,0,0.0087890625,9.404296875,0)" xlink:href="#H"/><use transform="matrix(0.0087890625,0,0,0.0087890625,19.86328125,0)" xlink:href="#I"/><use transform="matrix(0.0087890625,0,0,0.0087890625,24.8115234375,0)" xlink:href="#J"/><use transform="matrix(0.0087890625,0,0,0.0087890625,36.9931640625,0)" xlink:href="#I"/><use transform="matrix(0.0087890625,0,0,0.0087890625,41.94140625,0)" xlink:href="#J"/></g><path fill="#e5e5e5" d="M807-1260c0-54 40-105 96-105 43 0 76 24 99 73 18 39 27 131 27 277 0 274-20 485-61 631C895-128 757 0 555 0 385 0 262-90 189-270c-51-126-76-289-76-488 0-289 18-467 53-534 26-49 59-73 99-73 52 0 105 52 99 104-14 128-48 300-48 513 0 128 14 239 41 332 41 144 108 216 201 216 105 0 179-98 225-293 29-124 45-265 45-422 0-66-21-279-21-345" id="K"/><path fill="#e5e5e5" d="M172-1273c0-51 55-92 106-92 37 0 64 24 92 68 37 59 126 327 147 375 45-73 86-148 133-220 69-105 130-155 174-155 52 0 105 52 103 104-20 75-241 385-311 490 18 36 85 160 200 372 65 118 97 196 97 234 1 55-42 97-97 97-43 0-105-70-183-212-15-28-60-122-136-281-43 69-136 292-221 411-25 35-56 50-87 50-84 0-113-73-88-151 12-39 108-216 290-529-146-314-219-501-219-561" id="L"/><g id="g"><use transform="matrix(0.0087890625,0,0,0.0087890625,0,0)" xlink:href="#B"/><use transform="matrix(0.0087890625,0,0,0.0087890625,12.4013671875,0)" xlink:href="#K"/><use transform="matrix(0.0087890625,0,0,0.0087890625,22.4208984375,0)" xlink:href="#L"/></g><path fill="#e5e5e5" d="M295-1038c-53 2-99-46-99-99 0-31 18-59 51-87 37-32 224-141 280-141 69 0 104 33 104 99v735c-33 116-21 386-54 459-21 48-54 72-99 72-64 1-108-57-94-125 18-88 24-194 24-317 1 31 2-75 2-317v-328c-50 33-88 49-115 49" id="M"/><path fill="#e5e5e5" d="M324-1236c5 23-37 369-37 466 0 156 45 234 136 234 188 0 282-184 282-553 11-40 18-100 31-177 11-67 49-99 100-99 69 0 103 44 103 133 0 160-19 698-19 858 0 51 8 229 8 280 0 49-51 94-100 94-77 0-115-76-115-227v-230c-84 79-185 119-303 119-217 0-325-140-325-421 0-92 40-385 36-477-2-55 48-97 103-97 54 0 102 42 100 97" id="N"/><g id="h"><use transform="matrix(0.0087890625,0,0,0.0087890625,0,0)" xlink:href="#G"/><use transform="matrix(0.0087890625,0,0,0.0087890625,9.404296875,0)" xlink:href="#M"/><use transform="matrix(0.0087890625,0,0,0.0087890625,16.787109375,0)" xlink:href="#I"/><use transform="matrix(0.0087890625,0,0,0.0087890625,21.7353515625,0)" xlink:href="#N"/><use transform="matrix(0.0087890625,0,0,0.0087890625,31.8603515625,0)" xlink:href="#I"/><use transform="matrix(0.0087890625,0,0,0.0087890625,36.80859375,0)" xlink:href="#J"/></g><g id="i"><use transform="matrix(0.0087890625,0,0,0.0087890625,0,0)" xlink:href="#z"/><use transform="matrix(0.0087890625,0,0,0.0087890625,9.4482421875,0)" xlink:href="#w"/><use transform="matrix(0.0087890625,0,0,0.0087890625,20.1708984375,0)" xlink:href="#p"/><use transform="matrix(0.0087890625,0,0,0.0087890625,30.12890625,0)" xlink:href="#t"/><use transform="matrix(0.0087890625,0,0,0.0087890625,39.9111328125,0)" xlink:href="#D"/><use transform="matrix(0.0087890625,0,0,0.0087890625,49.0341796875,0)" xlink:href="#K"/><use transform="matrix(0.0087890625,0,0,0.0087890625,59.0537109375,0)" xlink:href="#z"/></g><path fill="#e5e5e5" d="M722-1365c155 0 277 78 276 225 0 91-50 195-151 314-48 56-136 140-262 254-171 154-256 259-256 316 0 37 32 55 96 55 103 0 398-64 478-64 48 0 94 55 94 103 0 50-33 87-101 99C773-42 564-1 425 0 221 0 119-76 119-227c0-93 56-204 169-333 46-52 140-144 284-277s216-227 216-283c0-29-23-44-69-44-62 0-148 26-258 77-11 52-41 78-92 78-58 0-103-42-103-100 0-156 283-256 456-256" id="O"/><g id="j"><use transform="matrix(0.0087890625,0,0,0.0087890625,0,0)" xlink:href="#B"/><use transform="matrix(0.0087890625,0,0,0.0087890625,12.884765625,0)" xlink:href="#z"/><use transform="matrix(0.0087890625,0,0,0.0087890625,22.3330078125,0)" xlink:href="#w"/><use transform="matrix(0.0087890625,0,0,0.0087890625,31.2890625,0)" xlink:href="#I"/><use transform="matrix(0.0087890625,0,0,0.0087890625,36.2373046875,0)" xlink:href="#G"/><use transform="matrix(0.0087890625,0,0,0.0087890625,45.6416015625,0)" xlink:href="#O"/></g><g id="k"><use transform="matrix(0.0087890625,0,0,0.0087890625,0,0)" xlink:href="#G"/><use transform="matrix(0.0087890625,0,0,0.0087890625,9.404296875,0)" xlink:href="#O"/></g><g id="l"><use transform="matrix(0.0087890625,0,0,0.0087890625,0,0)" xlink:href="#u"/><use transform="matrix(0.0087890625,0,0,0.0087890625,8.5078125,0)" xlink:href="#w"/><use transform="matrix(0.0087890625,0,0,0.0087890625,19.23046875,0)" xlink:href="#y"/><use transform="matrix(0.0087890625,0,0,0.0087890625,29.98828125,0)" xlink:href="#v"/><use transform="matrix(0.0087890625,0,0,0.0087890625,39.287109375,0)" xlink:href="#t"/><use transform="matrix(0.0087890625,0,0,0.0087890625,49.0693359375,0)" xlink:href="#L"/><use transform="matrix(0.0087890625,0,0,0.0087890625,58.0517578125,0)" xlink:href="#v"/></g><g id="m"><use transform="matrix(0.0087890625,0,0,0.0087890625,0,0)" xlink:href="#G"/><use transform="matrix(0.0087890625,0,0,0.0087890625,9.404296875,0)" xlink:href="#M"/><use transform="matrix(0.0087890625,0,0,0.0087890625,16.787109375,0)" xlink:href="#I"/><use transform="matrix(0.0087890625,0,0,0.0087890625,21.7353515625,0)" xlink:href="#M"/></g><path fill="#e5e5e5" d="M492-1365c272 0 549 114 549 360 0 140-81 265-244 374-130 87-276 146-439 180-7 56-15 301-32 372-12 53-46 79-94 79-53 0-99-48-99-101 0-201 55-864 50-1044-38-23-57-56-57-99 0-39 24-69 72-90s147-31 294-31zm348 355c0-132-280-161-454-151-1 136-2 303-2 501 100-31 192-72 276-122 120-70 180-146 180-228" id="P"/><g id="n"><use transform="matrix(0.0087890625,0,0,0.0087890625,0,0)" xlink:href="#z"/><use transform="matrix(0.0087890625,0,0,0.0087890625,9.4482421875,0)" xlink:href="#w"/><use transform="matrix(0.0087890625,0,0,0.0087890625,20.1708984375,0)" xlink:href="#A"/><use transform="matrix(0.0087890625,0,0,0.0087890625,28.2216796875,0)" xlink:href="#o"/><use transform="matrix(0.0087890625,0,0,0.0087890625,37.6083984375,0)" xlink:href="#y"/><use transform="matrix(0.0087890625,0,0,0.0087890625,48.3662109375,0)" xlink:href="#z"/><use transform="matrix(0.0087890625,0,0,0.0087890625,57.814453125,0)" xlink:href="#q"/><use transform="matrix(0.0087890625,0,0,0.0087890625,67.236328125,0)" xlink:href="#C"/><use transform="matrix(0.0087890625,0,0,0.0087890625,76.640625,0)" xlink:href="#K"/><use transform="matrix(0.0087890625,0,0,0.0087890625,86.66015625,0)" xlink:href="#P"/><use transform="matrix(0.0087890625,0,0,0.0087890625,96.0029296875,0)" xlink:href="#P"/><use transform="matrix(0.0087890625,0,0,0.0087890625,105.345703125,0)" xlink:href="#w"/><use transform="matrix(0.0087890625,0,0,0.0087890625,116.068359375,0)" xlink:href="#s"/><use transform="matrix(0.0087890625,0,0,0.0087890625,125.8681640625,0)" xlink:href="#v"/></g></defs></g></svg>