<svg xmlns="http://www.w3.org/2000/svg" xmlns:xlink="http://www.w3.org/1999/xlink" xmlns:lucid="lucid" width="1000" height="920"><g transform="translate(-220 -220)" lucid:page-tab-id="0_0"><path d="M880 1117c0 1.66 1.34 3 3 3h154c1.66 0 3-1.34 3-3v-74c0-1.66-1.34-3-3-3H883c-1.66 0-3 1.34-3 3z" stroke="#00987e" stroke-width="4" fill="#95d6cb"/><use xlink:href="#a" transform="matrix(1,0,0,1,885,1045) translate(37.525 38.6)"/><path d="M560 957c0 1.66 1.34 3 3 3h154c1.66 0 3-1.34 3-3v-74c0-1.66-1.34-3-3-3H563c-1.66 0-3 1.34-3 3z" stroke="#00987e" stroke-width="4" fill="#95d6cb"/><use xlink:href="#b" transform="matrix(1,0,0,1,565,885) translate(33.099999999999994 38.6)"/><path d="M720 920l42.68.82 28.9 1.8 22.2 2.3 17.87 2.63 14.8 2.8 12.47 2.93 10.67 2.97 9.24 3 8.1 3 7.13 3 6.35 3 5.68 2.96 5.12 2.96 4.63 2.94 4.2 2.92 3.85 2.92 3.53 2.92 3.24 2.9 3 2.94 2.75 2.94 2.56 2.97 2.38 3 2.2 3.04 2.05 3.1 1.92 3.13 1.76 3.2 1.63 3.3 1.52 3.38 1.38 3.5 1.26 3.6 1.13 3.75 1 3.9.86 4.1.73 4.3.56 4.52.4 4.8.2 5.1.04 2.68" stroke="#303030" stroke-width="2" fill="none"/><path d="M720.02 919l-.02 1.17V919zM960 1040l-5.52-13.95 9.25-.58z" fill="#303030"/><path d="M961.03 1040h-2.1l-5.9-14.86 12-.75zm-5.12-13.03l3.9 9.8 2.62-10.2z" fill="#303030"/><path d="M720 797c0 1.66 1.34 3 3 3h154c1.66 0 3-1.34 3-3v-74c0-1.66-1.34-3-3-3H723c-1.66 0-3 1.34-3 3z" stroke="#00987e" stroke-width="4" fill="#95d6cb"/><use xlink:href="#c" transform="matrix(1,0,0,1,725,725) translate(19.049999999999997 38.6)"/><path d="M1040 797c0 1.66 1.34 3 3 3h154c1.66 0 3-1.34 3-3v-74c0-1.66-1.34-3-3-3h-154c-1.66 0-3 1.34-3 3z" stroke="#00987e" stroke-width="4" fill="#95d6cb"/><use xlink:href="#d" transform="matrix(1,0,0,1,1045,725) translate(33.525 38.6)"/><path d="M800 800v.62l-.05.6-.06.62-.1.6-.12.6-.14.58-.16.6-.2.6-.22.6-.26.6-.3.62-.32.63-.37.65-.4.66-.5.7-.53.7-.62.75-.7.78-.8.83-.93.86-1.07.92-1.25 1-1.48 1.06-1.77 1.17-2.13 1.3-2.62 1.43-3.3 1.63-4.24 1.9-5.72 2.26-8.22 2.85-13.8 4.13-69.04 18.46-8.22 2.84-5.72 2.26-4.25 1.9-3.3 1.62-2.62 1.44-2.13 1.3-1.77 1.16-1.48 1.07-1.25.98-1.07.93-.93.87-.8.82-.7.77-.62.75-.54.7-.5.7-.4.66-.38.65-.33.63-.3.62-.26.6-.22.6-.2.6-.16.6-.14.6-.12.58-.1.6-.05.6-.04.62v.62" stroke="#303030" stroke-width="2" fill="none"/><path d="M800.9 800.45l-.9-.45h1.12zM650.57 869.36L640 880l2.3-14.82z" fill="#303030"/><path d="M652.25 869.08L641.4 880H639l2.52-16.34zm-10.8 8.03l7.44-7.47-5.83-2.94z" fill="#303030"/><path d="M1120 800l-.1 5.5-.34 5.17-.52 4.93-.7 4.72-.86 4.53-1.02 4.38-1.2 4.27-1.35 4.17-1.5 4.1-1.72 4.05-1.9 4.03-2.1 4.04-2.36 4.07-2.63 4.14-2.97 4.26-3.34 4.4-3.85 4.63-4.46 4.95-5.34 5.43-6.64 6.23-9 7.76-16.87 13.28-35.37 27.2-9 7.75-6.64 6.22-5.33 5.43-4.45 4.96-3.84 4.64-3.33 4.4-2.96 4.25-2.62 4.13-2.35 4.08-2.1 4.05-1.9 4.03-1.72 4.05-1.5 4.1-1.36 4.17-1.2 4.27-1.02 4.38-.87 4.53-.7 4.72-.5 4.93-.34 5.18-.1 5.5" stroke="#303030" stroke-width="2" fill="none"/><path d="M1121 800.06l-1.06-.06h1.06zM965.47 1026.03L960 1040l-3.78-14.52z" fill="#303030"/><path d="M966.9 1025.12l-5.83 14.88h-2.1l-4.07-15.6zm-6.7 11.65l3.84-9.82-6.5-.4z" fill="#303030"/><path d="M800 800l.1 5.5.34 5.17.52 4.93.7 4.72.86 4.53 1.02 4.38 1.2 4.27 1.35 4.17 1.5 4.1 1.72 4.05 1.9 4.03 2.1 4.04 2.36 4.07 2.63 4.14 2.97 4.26 3.34 4.4 3.85 4.63 4.46 4.95 5.34 5.43 6.64 6.23 9 7.76 16.87 13.28 35.37 27.2 9 7.75 6.64 6.22 5.33 5.43 4.45 4.96 3.84 4.64 3.33 4.4 2.96 4.25 2.62 4.13 2.35 4.08 2.1 4.05 1.9 4.03 1.72 4.05 1.5 4.1 1.36 4.17 1.2 4.27 1.02 4.38.87 4.53.7 4.72.5 4.93.34 5.18.1 5.5" stroke="#303030" stroke-width="2" fill="none"/><path d="M799 800.06V800h1.06zM960 1040l-5.47-13.97 9.25-.55z" fill="#303030"/><path d="M961.03 1040h-2.1l-5.84-14.88 12-.72zm-5.07-13.05l3.85 9.82 2.67-10.2z" fill="#303030"/><path d="M400 797c0 1.66 1.34 3 3 3h154c1.66 0 3-1.34 3-3v-74c0-1.66-1.34-3-3-3H403c-1.66 0-3 1.34-3 3z" stroke="#00987e" stroke-width="4" fill="#95d6cb"/><use xlink:href="#e" transform="matrix(1,0,0,1,405,725) translate(32.099999999999994 38.6)"/><path d="M480 800v.62l.05.6.06.62.1.6.12.6.14.58.16.6.2.6.22.6.26.6.3.62.32.63.37.65.4.66.5.7.53.7.62.75.7.78.8.83.93.86 1.07.92 1.25 1 1.48 1.06 1.77 1.17 2.13 1.3 2.62 1.43 3.3 1.63 4.24 1.9 5.72 2.26 8.22 2.85 13.8 4.13 69.04 18.46 8.22 2.84 5.72 2.26 4.25 1.9 3.3 1.62 2.62 1.44 2.13 1.3 1.77 1.16 1.48 1.07 1.25.98 1.07.93.93.87.8.82.7.77.62.75.54.7.5.7.4.66.38.65.33.63.3.62.26.6.22.6.2.6.16.6.14.6.12.58.1.6.05.6.04.62v.62" stroke="#303030" stroke-width="2" fill="none"/><path d="M479.1 800.45l-.22-.45H480zM640 880l-10.57-10.64 8.28-4.18z" fill="#303030"/><path d="M641 880h-2.4l-10.85-10.92 10.73-5.42zm-9.9-10.37l7.44 7.48-1.6-10.4z" fill="#303030"/><path d="M1120 800v.2l-.02.22-.02.2-.03.22-.04.2-.06.22-.06.2-.07.23-.08.22-.1.23-.1.24-.13.23-.16.26-.17.25-.2.28-.2.3-.27.3-.3.33-.34.35-.4.4-.48.4-.57.45-.67.5-.82.54-1 .6-1.26.7-1.6.78-2.06.9-2.74 1.1-3.76 1.3-5.36 1.6-8.05 2.06-13.03 2.74-23.68 3.95-55.04 6.74-289.28 27.8-23.68 3.95-13.03 2.74-8.05 2.05-5.36 1.62-3.76 1.3-2.74 1.1-2.07.9-1.6.8-1.25.68-1 .6-.83.56-.68.5-.58.44-.47.4-.4.4-.35.34-.3.33-.26.3-.22.3-.2.28-.16.26-.15.27-.12.24-.1.25-.1.23-.1.23-.06.23-.06.2-.05.22-.03.2-.03.22-.02.2-.02.22v.2" stroke="#303030" stroke-width="2" fill="none"/><path d="M1120.68 800.74l-.68-.74h1.48zM653.63 873.74L640 880l7.35-13.08z" fill="#303030"/><path d="M655.3 874.07L642.4 880h-3.55l8.3-14.77zm-12.92 3.74l9.58-4.4-4.4-4.8z" fill="#303030"/><path d="M560 637c0 1.66 1.34 3 3 3h154c1.66 0 3-1.34 3-3v-74c0-1.66-1.34-3-3-3H563c-1.66 0-3 1.34-3 3z" stroke="#00987e" stroke-width="4" fill="#95d6cb"/><use xlink:href="#f" transform="matrix(1,0,0,1,565,565) translate(32.099999999999994 27.799999999999997)"/><use xlink:href="#g" transform="matrix(1,0,0,1,565,565) translate(38.125 49.4)"/><path d="M640 640v238" stroke="#303030" stroke-width="2" fill="none"/><path d="M641 640h-2 2zM640 878l-4.64-14.27h9.28z" fill="#303030"/><path d="M640.4 880h-.8l-5.6-17.27h12zm-3.66-15.27l3.26 10.03 3.26-10.03z" fill="#303030"/><path d="M640 640v.62l.05.6.06.62.1.6.12.6.14.58.16.6.2.6.22.6.26.6.3.62.32.63.37.65.4.66.5.7.53.7.62.75.7.78.8.83.93.86 1.07.92 1.25 1 1.48 1.06 1.77 1.17 2.13 1.3 2.62 1.43 3.3 1.63 4.24 1.9 5.72 2.26 8.22 2.85 13.8 4.13 69.04 18.46 8.22 2.84 5.72 2.26 4.25 1.9 3.3 1.62 2.62 1.44 2.13 1.3 1.77 1.16 1.48 1.07 1.25.98 1.07.93.93.87.8.82.7.77.62.75.54.7.5.7.4.66.38.65.33.63.3.62.26.6.22.6.2.6.16.6.14.6.12.58.1.6.05.6.04.62v.62" stroke="#303030" stroke-width="2" fill="none"/><path d="M639.1 640.45l-.22-.45H640zM800 720l-10.57-10.64 8.28-4.18z" fill="#303030"/><path d="M801 720h-2.4l-10.85-10.92 10.73-5.42zm-9.9-10.37l7.44 7.48-1.6-10.4z" fill="#303030"/><path d="M640 640v.2l.02.22.02.2.03.22.04.2.06.22.06.2.07.23.08.22.1.23.1.24.13.23.16.26.17.25.2.28.2.3.27.3.3.33.34.35.4.4.48.4.57.45.67.5.82.54 1 .6 1.26.7 1.6.78 2.06.9 2.74 1.1 3.76 1.3 5.36 1.6 8.05 2.06 13.03 2.74 23.68 3.95 55.04 6.74 289.28 27.8 23.68 3.95 13.03 2.74 8.05 2.05 5.36 1.62 3.76 1.3 2.74 1.1 2.07.9 1.6.8 1.25.68 1 .6.83.56.68.5.58.44.47.4.4.4.35.34.3.33.26.3.22.3.2.28.16.26.15.27.12.24.1.25.1.23.1.23.06.23.06.2.05.22.03.2.03.22.02.2.02.22v.2" stroke="#303030" stroke-width="2" fill="none"/><path d="M639.32 640.74l-.8-.74H640zM1120 720l-13.63-6.26 6.28-6.82z" fill="#303030"/><path d="M1121.15 720h-3.55l-12.9-5.93 8.15-8.84zm-13.1-6.6l9.57 4.4-5.17-9.2z" fill="#303030"/><path d="M880 637c0 1.66 1.34 3 3 3h154c1.66 0 3-1.34 3-3v-74c0-1.66-1.34-3-3-3H883c-1.66 0-3 1.34-3 3z" stroke="#00987e" stroke-width="4" fill="#95d6cb"/><use xlink:href="#h" transform="matrix(1,0,0,1,885,565) translate(15.099999999999994 38.6)"/><use xlink:href="#i" transform="matrix(1,0,0,1,885,565) translate(105.9 38.6)"/><path d="M960 640v.62l-.05.6-.06.62-.1.6-.12.6-.14.58-.16.6-.2.6-.22.6-.26.6-.3.62-.32.63-.37.65-.4.66-.5.7-.53.7-.62.75-.7.78-.8.83-.93.86-1.07.92-1.25 1-1.48 1.06-1.77 1.17-2.13 1.3-2.62 1.43-3.3 1.63-4.24 1.9-5.72 2.26-8.22 2.85-13.8 4.13-69.04 18.46-8.22 2.84-5.72 2.26-4.25 1.9-3.3 1.62-2.62 1.44-2.13 1.3-1.77 1.16-1.48 1.07-1.25.98-1.07.93-.93.87-.8.82-.7.77-.62.75-.54.7-.5.7-.4.66-.38.65-.33.63-.3.62-.26.6-.22.6-.2.6-.16.6-.14.6-.12.58-.1.6-.05.6-.04.62v.62" stroke="#303030" stroke-width="2" fill="none"/><path d="M960.9 640.45l-.9-.45h1.12zM810.57 709.36L800 720l2.3-14.82z" fill="#303030"/><path d="M812.25 709.08L801.4 720H799l2.52-16.34zm-10.8 8.03l7.44-7.47-5.83-2.94z" fill="#303030"/><path d="M960 640v.62l.05.6.06.62.1.6.12.6.14.58.16.6.2.6.22.6.26.6.3.62.32.63.37.65.4.66.5.7.53.7.62.75.7.78.8.83.93.86 1.07.92 1.25 1 1.48 1.06 1.77 1.17 2.13 1.3 2.62 1.43 3.3 1.63 4.24 1.9 5.72 2.26 8.22 2.85 13.8 4.13 69.04 18.46 8.22 2.84 5.72 2.26 4.25 1.9 3.3 1.62 2.62 1.44 2.13 1.3 1.77 1.16 1.48 1.07 1.25.98 1.07.93.93.87.8.82.7.77.62.75.54.7.5.7.4.66.38.65.33.63.3.62.26.6.22.6.2.6.16.6.14.6.12.58.1.6.05.6.04.62v.62" stroke="#303030" stroke-width="2" fill="none"/><path d="M959.1 640.45l-.22-.45H960zM1120 720l-10.57-10.64 8.28-4.18z" fill="#303030"/><path d="M1121 720h-2.4l-10.85-10.92 10.73-5.42zm-9.9-10.37l7.44 7.48-1.6-10.4z" fill="#303030"/><path d="M400 477c0 1.66 1.34 3 3 3h154c1.66 0 3-1.34 3-3v-74c0-1.66-1.34-3-3-3H403c-1.66 0-3 1.34-3 3z" stroke="#00987e" stroke-width="4" fill="#95d6cb"/><use xlink:href="#j" transform="matrix(1,0,0,1,405,405) translate(16.074999999999996 27.799999999999997)"/><use xlink:href="#k" transform="matrix(1,0,0,1,405,405) translate(104.92500000000001 27.799999999999997)"/><use xlink:href="#l" transform="matrix(1,0,0,1,405,405) translate(60.5 49.4)"/><path d="M480 482v.6l.05.57.06.58.1.57.1.56.13.57.16.56.18.58.2.58.26.58.27.6.33.6.36.6.4.65.45.65.52.68.6.7.66.76.77.77.88.83 1.03.9 1.22.94 1.42 1.03 1.7 1.13 2.03 1.23 2.52 1.38 3.14 1.58 4.07 1.8 5.46 2.15 7.78 2.7 12.65 3.8 73.66 19.34 7.78 2.7 5.45 2.15 4.06 1.8 3.15 1.57 2.53 1.37 2.04 1.23 1.7 1.13 1.4 1.03 1.22.95 1.02.9.88.83.77.78.67.76.6.7.5.7.47.65.4.65.37.62.32.6.26.6.25.57.22.58.2.57.15.55.13.57.1.56.1.57.05.58.04.58v.6" stroke="#303030" stroke-width="2" fill="none"/><path d="M480.88 481.53l-1.76.94-1.3-2.47h2.26zM640 560l-10.75-10.46 8.2-4.32z" fill="#303030"/><path d="M641 560h-2.43l-11-10.7 10.63-5.6zm-10.07-10.22l7.56 7.36-1.8-10.4z" fill="#303030"/><path d="M720 317c0 1.66 1.34 3 3 3h154c1.66 0 3-1.34 3-3v-74c0-1.66-1.34-3-3-3H723c-1.66 0-3 1.34-3 3z" stroke="#00987e" stroke-width="4" fill="#95d6cb"/><use xlink:href="#j" transform="matrix(1,0,0,1,725,245) translate(16.074999999999996 38.6)"/><use xlink:href="#m" transform="matrix(1,0,0,1,725,245) translate(104.92500000000001 38.6)"/><path d="M720 280l-2.47.05-2.37.15-2.3.24-2.23.33-2.18.42-2.14.5-2.1.58-2.08.68-2.07.77-2.07.86-2.07.97-2.07 1.1-2.1 1.2-2.15 1.37-2.2 1.52-2.24 1.7-2.33 1.94-2.42 2.18-2.54 2.5-2.7 2.87-2.9 3.36-3.16 4-3.53 4.87-4.07 6.14-5.02 8.33-7.45 13.6-25.46 49.14-5.02 8.32-4.07 6.13-3.53 4.86-3.16 4-2.9 3.35-2.7 2.88-2.54 2.5-2.43 2.17-2.34 1.93-2.25 1.7-2.18 1.53-2.14 1.36-2.1 1.22-2.1 1.1-2.06.97-2.07.87-2.07.77-2.08.68-2.1.6-2.15.5-2.18.4-2.23.34-2.3.24-2.37.15-2.47.05" stroke="#303030" stroke-width="2" fill="none"/><path d="M720 280.02l-.14-1 .14-.03zM574.76 442.68L560 440l13.52-6.5z" fill="#303030"/><path d="M575.93 443.9L560 441.03v-2.13l14.32-6.9zm-12.72-4.33l10.38 1.88-.87-6.46z" fill="#303030"/><path d="M240 637c0 1.66 1.34 3 3 3h154c1.66 0 3-1.34 3-3v-74c0-1.66-1.34-3-3-3H243c-1.66 0-3 1.34-3 3z" stroke="#00987e" stroke-width="4" fill="#95d6cb"/><use xlink:href="#n" transform="matrix(1,0,0,1,245,565) translate(53.025 38.6)"/><path d="M480 480v.62l-.05.6-.06.62-.1.6-.12.6-.14.58-.16.6-.2.6-.22.6-.26.6-.3.62-.32.63-.37.65-.4.66-.5.7-.53.7-.62.75-.7.78-.8.83-.93.86-1.07.92-1.25 1-1.48 1.06-1.77 1.17-2.13 1.3-2.62 1.43-3.3 1.63-4.24 1.9-5.72 2.26-8.22 2.85-13.8 4.13-69.04 18.46-8.22 2.84-5.72 2.26-4.25 1.9-3.3 1.62-2.62 1.44-2.13 1.3-1.77 1.16-1.48 1.07-1.25.98-1.07.93-.93.87-.8.82-.7.77-.62.75-.54.7-.5.7-.4.66-.38.65-.33.63-.3.62-.26.6-.22.6-.2.6-.16.6-.14.6-.12.58-.1.6-.05.6-.04.62v.62" stroke="#303030" stroke-width="2" fill="none"/><path d="M480.9 480.45l-.9-.45h1.12zM330.57 549.36L320 560l2.3-14.82z" fill="#303030"/><path d="M332.25 549.08L321.4 560H319l2.52-16.34zm-10.8 8.03l7.44-7.47-5.83-2.94z" fill="#303030"/><defs><path fill="#303030" d="M210-169c-67 3-38 105-44 169h-31v-121c0-29-5-50-35-48C34-165 62-65 56 0H25l-1-190h30c1 10-1 24 2 32 10-44 99-50 107 0 11-21 27-35 58-36 85-2 47 119 55 194h-31v-121c0-29-5-49-35-48" id="o"/><path fill="#303030" d="M100-194c62-1 85 37 85 99 1 63-27 99-86 99S16-35 15-95c0-66 28-99 85-99zM99-20c44 1 53-31 53-75 0-43-8-75-51-75s-53 32-53 75 10 74 51 75" id="p"/><path fill="#303030" d="M117-194c89-4 53 116 60 194h-32v-121c0-31-8-49-39-48C34-167 62-67 57 0H25l-1-190h30c1 10-1 24 2 32 11-22 29-35 61-36" id="q"/><path fill="#303030" d="M177-190C167-65 218 103 67 71c-23-6-38-20-44-43l32-5c15 47 100 32 89-28v-30C133-14 115 1 83 1 29 1 15-40 15-95c0-56 16-97 71-98 29-1 48 16 59 35 1-10 0-23 2-32h30zM94-22c36 0 50-32 50-73 0-42-14-75-50-75-39 0-46 34-46 75s6 73 46 73" id="r"/><path fill="#303030" d="M85-194c31 0 48 13 60 33l-1-100h32l1 261h-30c-2-10 0-23-3-31C134-8 116 4 85 4 32 4 16-35 15-94c0-66 23-100 70-100zm9 24c-40 0-46 34-46 75 0 40 6 74 45 74 42 0 51-32 51-76 0-42-9-74-50-73" id="s"/><path fill="#303030" d="M115-194c53 0 69 39 70 98 0 66-23 100-70 100C84 3 66-7 56-30L54 0H23l1-261h32v101c10-23 28-34 59-34zm-8 174c40 0 45-34 45-75 0-40-5-75-45-74-42 0-51 32-51 76 0 43 10 73 51 73" id="t"/><g id="a"><use transform="matrix(0.05,0,0,0.05,0,0)" xlink:href="#o"/><use transform="matrix(0.05,0,0,0.05,14.950000000000001,0)" xlink:href="#p"/><use transform="matrix(0.05,0,0,0.05,24.950000000000003,0)" xlink:href="#q"/><use transform="matrix(0.05,0,0,0.05,34.95,0)" xlink:href="#r"/><use transform="matrix(0.05,0,0,0.05,44.95,0)" xlink:href="#p"/><use transform="matrix(0.05,0,0,0.05,54.95,0)" xlink:href="#s"/><use transform="matrix(0.05,0,0,0.05,64.95,0)" xlink:href="#t"/></g><path fill="#303030" d="M16-82v-28h88v28H16" id="u"/><path fill="#303030" d="M24-231v-30h32v30H24zM24 0v-190h32V0H24" id="v"/><path fill="#303030" d="M59-47c-2 24 18 29 38 22v24C64 9 27 4 27-40v-127H5v-23h24l9-43h21v43h35v23H59v120" id="w"/><g id="b"><use transform="matrix(0.05,0,0,0.05,0,0)" xlink:href="#o"/><use transform="matrix(0.05,0,0,0.05,14.950000000000001,0)" xlink:href="#p"/><use transform="matrix(0.05,0,0,0.05,24.950000000000003,0)" xlink:href="#q"/><use transform="matrix(0.05,0,0,0.05,34.95,0)" xlink:href="#r"/><use transform="matrix(0.05,0,0,0.05,44.95,0)" xlink:href="#p"/><use transform="matrix(0.05,0,0,0.05,54.95,0)" xlink:href="#u"/><use transform="matrix(0.05,0,0,0.05,60.900000000000006,0)" xlink:href="#v"/><use transform="matrix(0.05,0,0,0.05,64.85000000000001,0)" xlink:href="#q"/><use transform="matrix(0.05,0,0,0.05,74.85000000000001,0)" xlink:href="#v"/><use transform="matrix(0.05,0,0,0.05,78.80000000000001,0)" xlink:href="#w"/></g><path fill="#303030" d="M141-36C126-15 110 5 73 4 37 3 15-17 15-53c-1-64 63-63 125-63 3-35-9-54-41-54-24 1-41 7-42 31l-33-3c5-37 33-52 76-52 45 0 72 20 72 64v82c-1 20 7 32 28 27v20c-31 9-61-2-59-35zM48-53c0 20 12 33 32 33 41-3 63-29 60-74-43 2-92-5-92 41" id="x"/><path fill="#303030" d="M84 4C-5 8 30-112 23-190h32v120c0 31 7 50 39 49 72-2 45-101 50-169h31l1 190h-30c-1-10 1-25-2-33-11 22-28 36-60 37" id="y"/><path fill="#303030" d="M106-169C34-169 62-67 57 0H25v-261h32l-1 103c12-21 28-36 61-36 89 0 53 116 60 194h-32v-121c2-32-8-49-39-48" id="z"/><path fill="#303030" d="M100-194c63 0 86 42 84 106H49c0 40 14 67 53 68 26 1 43-12 49-29l28 8c-11 28-37 45-77 45C44 4 14-33 15-96c1-61 26-98 85-98zm52 81c6-60-76-77-97-28-3 7-6 17-6 28h103" id="A"/><path fill="#303030" d="M96-169c-40 0-48 33-48 73s9 75 48 75c24 0 41-14 43-38l32 2c-6 37-31 61-74 61-59 0-76-41-82-99-10-93 101-131 147-64 4 7 5 14 7 22l-32 3c-4-21-16-35-41-35" id="B"/><g id="c"><use transform="matrix(0.05,0,0,0.05,0,0)" xlink:href="#x"/><use transform="matrix(0.05,0,0,0.05,10,0)" xlink:href="#y"/><use transform="matrix(0.05,0,0,0.05,20,0)" xlink:href="#w"/><use transform="matrix(0.05,0,0,0.05,25,0)" xlink:href="#z"/><use transform="matrix(0.05,0,0,0.05,35,0)" xlink:href="#A"/><use transform="matrix(0.05,0,0,0.05,45,0)" xlink:href="#q"/><use transform="matrix(0.05,0,0,0.05,55,0)" xlink:href="#w"/><use transform="matrix(0.05,0,0,0.05,60,0)" xlink:href="#v"/><use transform="matrix(0.05,0,0,0.05,63.95,0)" xlink:href="#B"/><use transform="matrix(0.05,0,0,0.05,72.95,0)" xlink:href="#x"/><use transform="matrix(0.05,0,0,0.05,82.95,0)" xlink:href="#w"/><use transform="matrix(0.05,0,0,0.05,87.95,0)" xlink:href="#v"/><use transform="matrix(0.05,0,0,0.05,91.9,0)" xlink:href="#p"/><use transform="matrix(0.05,0,0,0.05,101.9,0)" xlink:href="#q"/></g><path fill="#303030" d="M24 0v-261h32V0H24" id="C"/><g id="d"><use transform="matrix(0.05,0,0,0.05,0,0)" xlink:href="#B"/><use transform="matrix(0.05,0,0,0.05,9,0)" xlink:href="#z"/><use transform="matrix(0.05,0,0,0.05,19,0)" xlink:href="#x"/><use transform="matrix(0.05,0,0,0.05,29,0)" xlink:href="#q"/><use transform="matrix(0.05,0,0,0.05,39,0)" xlink:href="#r"/><use transform="matrix(0.05,0,0,0.05,49,0)" xlink:href="#A"/><use transform="matrix(0.05,0,0,0.05,59,0)" xlink:href="#C"/><use transform="matrix(0.05,0,0,0.05,62.95,0)" xlink:href="#p"/><use transform="matrix(0.05,0,0,0.05,72.95,0)" xlink:href="#r"/></g><path fill="#303030" d="M114-163C36-179 61-72 57 0H25l-1-190h30c1 12-1 29 2 39 6-27 23-49 58-41v29" id="D"/><g id="e"><use transform="matrix(0.05,0,0,0.05,0,0)" xlink:href="#x"/><use transform="matrix(0.05,0,0,0.05,10,0)" xlink:href="#s"/><use transform="matrix(0.05,0,0,0.05,20,0)" xlink:href="#u"/><use transform="matrix(0.05,0,0,0.05,25.950000000000003,0)" xlink:href="#s"/><use transform="matrix(0.05,0,0,0.05,35.95,0)" xlink:href="#v"/><use transform="matrix(0.05,0,0,0.05,39.900000000000006,0)" xlink:href="#D"/><use transform="matrix(0.05,0,0,0.05,45.85000000000001,0)" xlink:href="#A"/><use transform="matrix(0.05,0,0,0.05,55.85,0)" xlink:href="#B"/><use transform="matrix(0.05,0,0,0.05,64.85000000000001,0)" xlink:href="#w"/><use transform="matrix(0.05,0,0,0.05,69.85000000000001,0)" xlink:href="#p"/><use transform="matrix(0.05,0,0,0.05,79.85000000000001,0)" xlink:href="#D"/></g><g id="f"><use transform="matrix(0.05,0,0,0.05,0,0)" xlink:href="#x"/><use transform="matrix(0.05,0,0,0.05,10,0)" xlink:href="#s"/><use transform="matrix(0.05,0,0,0.05,20,0)" xlink:href="#u"/><use transform="matrix(0.05,0,0,0.05,25.950000000000003,0)" xlink:href="#s"/><use transform="matrix(0.05,0,0,0.05,35.95,0)" xlink:href="#v"/><use transform="matrix(0.05,0,0,0.05,39.900000000000006,0)" xlink:href="#D"/><use transform="matrix(0.05,0,0,0.05,45.85000000000001,0)" xlink:href="#A"/><use transform="matrix(0.05,0,0,0.05,55.85,0)" xlink:href="#B"/><use transform="matrix(0.05,0,0,0.05,64.85000000000001,0)" xlink:href="#w"/><use transform="matrix(0.05,0,0,0.05,69.85000000000001,0)" xlink:href="#p"/><use transform="matrix(0.05,0,0,0.05,79.85000000000001,0)" xlink:href="#D"/></g><g id="g"><use transform="matrix(0.05,0,0,0.05,0,0)" xlink:href="#x"/><use transform="matrix(0.05,0,0,0.05,10,0)" xlink:href="#C"/><use transform="matrix(0.05,0,0,0.05,13.949999999999998,0)" xlink:href="#C"/><use transform="matrix(0.05,0,0,0.05,17.9,0)" xlink:href="#u"/><use transform="matrix(0.05,0,0,0.05,23.849999999999998,0)" xlink:href="#v"/><use transform="matrix(0.05,0,0,0.05,27.799999999999997,0)" xlink:href="#q"/><use transform="matrix(0.05,0,0,0.05,37.8,0)" xlink:href="#u"/><use transform="matrix(0.05,0,0,0.05,43.75,0)" xlink:href="#p"/><use transform="matrix(0.05,0,0,0.05,53.75,0)" xlink:href="#q"/><use transform="matrix(0.05,0,0,0.05,63.75,0)" xlink:href="#A"/></g><g id="h"><use transform="matrix(0.05,0,0,0.05,0,0)" xlink:href="#x"/><use transform="matrix(0.05,0,0,0.05,10,0)" xlink:href="#s"/><use transform="matrix(0.05,0,0,0.05,20,0)" xlink:href="#u"/><use transform="matrix(0.05,0,0,0.05,25.950000000000003,0)" xlink:href="#s"/><use transform="matrix(0.05,0,0,0.05,35.95,0)" xlink:href="#v"/><use transform="matrix(0.05,0,0,0.05,39.900000000000006,0)" xlink:href="#D"/><use transform="matrix(0.05,0,0,0.05,45.85000000000001,0)" xlink:href="#A"/><use transform="matrix(0.05,0,0,0.05,55.85,0)" xlink:href="#B"/><use transform="matrix(0.05,0,0,0.05,64.85000000000001,0)" xlink:href="#w"/><use transform="matrix(0.05,0,0,0.05,69.85000000000001,0)" xlink:href="#p"/><use transform="matrix(0.05,0,0,0.05,79.85000000000001,0)" xlink:href="#D"/></g><path fill="#303030" d="M205 0l-28-72H64L36 0H1l101-248h38L239 0h-34zm-38-99l-47-123c-12 45-31 82-46 123h93" id="E"/><path fill="#303030" d="M30-248c87 1 191-15 191 75 0 78-77 80-158 76V0H30v-248zm33 125c57 0 124 11 124-50 0-59-68-47-124-48v98" id="F"/><path fill="#303030" d="M33 0v-248h34V0H33" id="G"/><g id="i"><use transform="matrix(0.05,0,0,0.05,0,0)" xlink:href="#E"/><use transform="matrix(0.05,0,0,0.05,12,0)" xlink:href="#F"/><use transform="matrix(0.05,0,0,0.05,24,0)" xlink:href="#G"/></g><g id="j"><use transform="matrix(0.05,0,0,0.05,0,0)" xlink:href="#v"/><use transform="matrix(0.05,0,0,0.05,3.95,0)" xlink:href="#q"/><use transform="matrix(0.05,0,0,0.05,13.949999999999998,0)" xlink:href="#w"/><use transform="matrix(0.05,0,0,0.05,18.95,0)" xlink:href="#A"/><use transform="matrix(0.05,0,0,0.05,28.950000000000003,0)" xlink:href="#r"/><use transform="matrix(0.05,0,0,0.05,38.95,0)" xlink:href="#D"/><use transform="matrix(0.05,0,0,0.05,44.900000000000006,0)" xlink:href="#x"/><use transform="matrix(0.05,0,0,0.05,54.900000000000006,0)" xlink:href="#w"/><use transform="matrix(0.05,0,0,0.05,59.900000000000006,0)" xlink:href="#v"/><use transform="matrix(0.05,0,0,0.05,63.85,0)" xlink:href="#p"/><use transform="matrix(0.05,0,0,0.05,73.85000000000001,0)" xlink:href="#q"/></g><path fill="#303030" d="M135-143c-3-34-86-38-87 0 15 53 115 12 119 90S17 21 10-45l28-5c4 36 97 45 98 0-10-56-113-15-118-90-4-57 82-63 122-42 12 7 21 19 24 35" id="H"/><g id="k"><use transform="matrix(0.05,0,0,0.05,0,0)" xlink:href="#w"/><use transform="matrix(0.05,0,0,0.05,5,0)" xlink:href="#A"/><use transform="matrix(0.05,0,0,0.05,15,0)" xlink:href="#H"/><use transform="matrix(0.05,0,0,0.05,24,0)" xlink:href="#w"/></g><path fill="#303030" d="M108 0H70L1-190h34L89-25l56-165h34" id="I"/><g id="l"><use transform="matrix(0.05,0,0,0.05,0,0)" xlink:href="#A"/><use transform="matrix(0.05,0,0,0.05,10,0)" xlink:href="#q"/><use transform="matrix(0.05,0,0,0.05,20,0)" xlink:href="#I"/></g><g id="m"><use transform="matrix(0.05,0,0,0.05,0,0)" xlink:href="#w"/><use transform="matrix(0.05,0,0,0.05,5,0)" xlink:href="#A"/><use transform="matrix(0.05,0,0,0.05,15,0)" xlink:href="#H"/><use transform="matrix(0.05,0,0,0.05,24,0)" xlink:href="#w"/></g><path fill="#303030" d="M115-194c55 1 70 41 70 98S169 2 115 4C84 4 66-9 55-30l1 105H24l-1-265h31l2 30c10-21 28-34 59-34zm-8 174c40 0 45-34 45-75s-6-73-45-74c-42 0-51 32-51 76 0 43 10 73 51 73" id="J"/><path fill="#303030" d="M141 0L90-78 38 0H4l68-98-65-92h35l48 74 47-74h35l-64 92 68 98h-35" id="K"/><path fill="#303030" d="M179-190L93 31C79 59 56 82 12 73V49c39 6 53-20 64-50L1-190h34L92-34l54-156h33" id="L"/><g id="n"><use transform="matrix(0.05,0,0,0.05,0,0)" xlink:href="#J"/><use transform="matrix(0.05,0,0,0.05,10,0)" xlink:href="#D"/><use transform="matrix(0.05,0,0,0.05,15.949999999999998,0)" xlink:href="#p"/><use transform="matrix(0.05,0,0,0.05,25.950000000000003,0)" xlink:href="#K"/><use transform="matrix(0.05,0,0,0.05,34.95,0)" xlink:href="#L"/></g></defs></g></svg>